<svg xmlns="http://www.w3.org/2000/svg" xmlns:xlink="http://www.w3.org/1999/xlink" viewBox="0 0 536.4 414">
  <defs>
    <linearGradient id="a" x1="108.79" x2="-403.57" y1="-1477.17" y2="-1138.64" gradientTransform="matrix(1 0 0 -1 203.27 -803.53)" gradientUnits="userSpaceOnUse">
      <stop offset="0" stop-color="#fff"/>
      <stop offset=".14" stop-color="#fafafa"/>
      <stop offset=".3" stop-color="#ececec"/>
      <stop offset=".48" stop-color="#d5d5d6"/>
      <stop offset=".66" stop-color="#b4b5b6"/>
      <stop offset=".85" stop-color="#8a8c8d"/>
      <stop offset="1" stop-color="#626466"/>
    </linearGradient>
    <linearGradient xlink:href="#a" id="b" x1="113.11" x2="-407.52" y1="-1478.96" y2="-1134.97"/>
    <linearGradient xlink:href="#a" id="c" x1="117.67" x2="-411.73" y1="-1480.89" y2="-1131.1"/>
    <linearGradient xlink:href="#a" id="d" x1="122.42" x2="-416.16" y1="-1482.91" y2="-1127.06"/>
    <linearGradient xlink:href="#a" id="e" x1="126.55" x2="-420.07" y1="-1484.5" y2="-1123.34"/>
    <linearGradient xlink:href="#a" id="f" x1="131.71" x2="-424.96" y1="-1486.74" y2="-1118.94"/>
    <linearGradient xlink:href="#a" id="g" x1="137.12" x2="-430.15" y1="-1489.12" y2="-1114.32"/>
    <linearGradient xlink:href="#a" id="h" x1="142.47" x2="-435.35" y1="-1491.43" y2="-1109.66"/>
    <linearGradient xlink:href="#a" id="i" x1="147.68" x2="-440.45" y1="-1493.61" y2="-1105.02"/>
    <linearGradient xlink:href="#a" id="j" x1="153.3" x2="-446.02" y1="-1496.03" y2="-1100.05"/>
    <linearGradient xlink:href="#a" id="k" x1="158.9" x2="-451.63" y1="-1498.4" y2="-1095.02"/>
    <linearGradient xlink:href="#a" id="l" x1="164.78" x2="-457.58" y1="-1500.92" y2="-1089.72"/>
    <linearGradient xlink:href="#a" id="m" x1="170.62" x2="-463.54" y1="-1503.38" y2="-1084.38"/>
    <linearGradient xlink:href="#a" id="n" x1="176.85" x2="-469.99" y1="-1506.06" y2="-1078.69"/>
    <linearGradient xlink:href="#a" id="o" x1="183.56" x2="-477.01" y1="-1509.01" y2="-1072.57"/>
    <linearGradient xlink:href="#a" id="p" x1="190.4" x2="-484.26" y1="-1512.01" y2="-1066.26"/>
    <linearGradient xlink:href="#a" id="q" x1="108.78" x2="-400.82" y1="-1472.5" y2="-1135.8"/>
    <linearGradient xlink:href="#a" id="r" x1="113.24" x2="-404.83" y1="-1474.34" y2="-1132.03"/>
    <linearGradient xlink:href="#a" id="s" x1="117.57" x2="-408.77" y1="-1476.05" y2="-1128.29"/>
    <linearGradient xlink:href="#a" id="t" x1="121.94" x2="-412.78" y1="-1477.77" y2="-1124.47"/>
    <linearGradient xlink:href="#a" id="u" x1="126.64" x2="-417.13" y1="-1479.67" y2="-1120.4"/>
    <linearGradient xlink:href="#a" id="v" x1="131.58" x2="-421.74" y1="-1481.71" y2="-1116.12"/>
    <linearGradient xlink:href="#a" id="w" x1="137.11" x2="-426.95" y1="-1484.1" y2="-1111.42"/>
    <linearGradient xlink:href="#a" id="x" x1="141.94" x2="-431.56" y1="-1486" y2="-1107.08"/>
    <linearGradient xlink:href="#a" id="y" x1="147.25" x2="-436.67" y1="-1488.19" y2="-1102.38"/>
    <linearGradient xlink:href="#a" id="z" x1="153.09" x2="-442.35" y1="-1490.68" y2="-1097.27"/>
    <linearGradient xlink:href="#a" id="aa" x1="158.28" x2="-447.45" y1="-1492.72" y2="-1092.5"/>
    <linearGradient xlink:href="#a" id="ab" x1="164.33" x2="-453.47" y1="-1495.28" y2="-1087.09"/>
    <linearGradient xlink:href="#a" id="ac" x1="169.98" x2="-459.13" y1="-1497.54" y2="-1081.88"/>
    <linearGradient xlink:href="#a" id="ad" x1="176.6" x2="-465.85" y1="-1500.4" y2="-1075.92"/>
    <linearGradient xlink:href="#a" id="ae" x1="183.33" x2="-472.78" y1="-1503.29" y2="-1069.79"/>
    <linearGradient xlink:href="#a" id="af" x1="190.31" x2="-480.05" y1="-1506.3" y2="-1063.39"/>
    <linearGradient xlink:href="#a" id="ag" x1="108.57" x2="-397.94" y1="-1467.71" y2="-1133.05"/>
    <linearGradient xlink:href="#a" id="ah" x1="112.87" x2="-401.74" y1="-1469.38" y2="-1129.37"/>
    <linearGradient xlink:href="#a" id="ai" x1="117.49" x2="-405.85" y1="-1471.23" y2="-1125.45"/>
    <linearGradient xlink:href="#a" id="aj" x1="121.76" x2="-409.71" y1="-1472.82" y2="-1121.67"/>
    <linearGradient xlink:href="#a" id="ak" x1="126.31" x2="-413.84" y1="-1474.57" y2="-1117.69"/>
    <linearGradient xlink:href="#a" id="al" x1="131.3" x2="-418.41" y1="-1476.58" y2="-1113.37"/>
    <linearGradient xlink:href="#a" id="am" x1="136.94" x2="-423.64" y1="-1478.98" y2="-1108.6"/>
    <linearGradient xlink:href="#a" id="an" x1="141.99" x2="-428.38" y1="-1480.96" y2="-1104.11"/>
    <linearGradient xlink:href="#a" id="ao" x1="147.08" x2="-433.19" y1="-1482.94" y2="-1099.54"/>
    <linearGradient xlink:href="#a" id="ap" x1="152.81" x2="-438.66" y1="-1485.29" y2="-1094.5"/>
    <linearGradient xlink:href="#a" id="aq" x1="158.17" x2="-443.83" y1="-1487.37" y2="-1089.62"/>
    <linearGradient xlink:href="#a" id="ar" x1="164.07" x2="-449.59" y1="-1489.76" y2="-1084.31"/>
    <linearGradient xlink:href="#a" id="as" x1="169.5" x2="-454.92" y1="-1491.81" y2="-1079.24"/>
    <linearGradient xlink:href="#a" id="at" x1="176.11" x2="-461.53" y1="-1494.59" y2="-1073.29"/>
    <linearGradient xlink:href="#a" id="au" x1="182.85" x2="-468.34" y1="-1497.41" y2="-1067.16"/>
    <linearGradient xlink:href="#a" id="av" x1="189.74" x2="-475.39" y1="-1500.28" y2="-1060.82"/>
    <linearGradient xlink:href="#a" id="aw" x1="108.62" x2="-395.3" y1="-1463.08" y2="-1130.14"/>
    <linearGradient xlink:href="#a" id="ax" x1="112.95" x2="-399.06" y1="-1464.72" y2="-1126.42"/>
    <linearGradient xlink:href="#a" id="ay" x1="117.36" x2="-402.93" y1="-1466.37" y2="-1122.61"/>
    <linearGradient xlink:href="#a" id="az" x1="121.53" x2="-406.63" y1="-1467.84" y2="-1118.88"/>
    <linearGradient xlink:href="#a" id="ba" x1="126.48" x2="-411.04" y1="-1469.8" y2="-1114.65"/>
    <linearGradient xlink:href="#a" id="bb" x1="131.64" x2="-415.69" y1="-1471.85" y2="-1110.23"/>
    <linearGradient xlink:href="#a" id="bc" x1="136.72" x2="-420.32" y1="-1473.83" y2="-1105.78"/>
    <linearGradient xlink:href="#a" id="bd" x1="141.51" x2="-424.73" y1="-1475.57" y2="-1101.45"/>
    <linearGradient xlink:href="#a" id="be" x1="147.09" x2="-429.92" y1="-1477.8" y2="-1096.57"/>
    <linearGradient xlink:href="#a" id="bf" x1="153.12" x2="-435.59" y1="-1480.29" y2="-1091.32"/>
    <linearGradient xlink:href="#a" id="bg" x1="158.01" x2="-440.22" y1="-1481.99" y2="-1086.73"/>
    <linearGradient xlink:href="#a" id="bh" x1="163.75" x2="-445.71" y1="-1484.2" y2="-1081.53"/>
    <linearGradient xlink:href="#a" id="bi" x1="169.9" x2="-451.68" y1="-1486.65" y2="-1075.97"/>
    <linearGradient xlink:href="#a" id="bj" x1="175.97" x2="-457.61" y1="-1489" y2="-1070.38"/>
    <linearGradient xlink:href="#a" id="bk" x1="182.56" x2="-464.15" y1="-1491.65" y2="-1064.35"/>
    <linearGradient xlink:href="#a" id="bl" x1="189.72" x2="-471.36" y1="-1494.62" y2="-1057.83"/>
    <linearGradient xlink:href="#a" id="bm" x1="108.58" x2="-392.61" y1="-1458.4" y2="-1127.26"/>
    <linearGradient xlink:href="#a" id="bn" x1="113.05" x2="-396.43" y1="-1460.07" y2="-1123.45"/>
    <linearGradient xlink:href="#a" id="bo" x1="117.37" x2="-400.15" y1="-1461.61" y2="-1119.68"/>
    <linearGradient xlink:href="#a" id="bp" x1="121.68" x2="-403.91" y1="-1463.11" y2="-1115.85"/>
    <linearGradient xlink:href="#a" id="bq" x1="126.4" x2="-408.04" y1="-1464.85" y2="-1111.74"/>
    <linearGradient xlink:href="#a" id="br" x1="131.12" x2="-412.23" y1="-1466.56" y2="-1107.57"/>
    <linearGradient xlink:href="#a" id="bs" x1="136.27" x2="-416.84" y1="-1468.52" y2="-1103.07"/>
    <linearGradient xlink:href="#a" id="bt" x1="141.12" x2="-421.22" y1="-1470.24" y2="-1098.7"/>
    <linearGradient xlink:href="#a" id="bu" x1="147.04" x2="-426.63" y1="-1472.63" y2="-1093.6"/>
    <linearGradient xlink:href="#a" id="bv" x1="152.41" x2="-431.58" y1="-1474.62" y2="-1088.77"/>
    <linearGradient xlink:href="#a" id="bw" x1="157.76" x2="-436.55" y1="-1476.55" y2="-1083.88"/>
    <linearGradient xlink:href="#a" id="bx" x1="163.64" x2="-442.09" y1="-1478.79" y2="-1078.57"/>
    <linearGradient xlink:href="#a" id="by" x1="169.29" x2="-447.44" y1="-1480.83" y2="-1073.35"/>
    <linearGradient xlink:href="#a" id="bz" x1="175.75" x2="-453.67" y1="-1483.36" y2="-1067.5"/>
    <linearGradient xlink:href="#a" id="ca" x1="182.13" x2="-459.87" y1="-1485.79" y2="-1061.61"/>
    <linearGradient xlink:href="#a" id="cb" x1="189.11" x2="-466.76" y1="-1488.56" y2="-1055.23"/>
    <linearGradient xlink:href="#a" id="cc" x1="108.63" x2="-390.03" y1="-1453.78" y2="-1124.3"/>
    <linearGradient xlink:href="#a" id="cd" x1="112.7" x2="-393.45" y1="-1455.13" y2="-1120.7"/>
    <linearGradient xlink:href="#a" id="ce" x1="117.18" x2="-397.24" y1="-1456.72" y2="-1116.83"/>
    <linearGradient xlink:href="#a" id="cf" x1="121.73" x2="-401.13" y1="-1458.32" y2="-1112.86"/>
    <linearGradient xlink:href="#a" id="cg" x1="126.3" x2="-405.07" y1="-1459.9" y2="-1108.82"/>
    <linearGradient xlink:href="#a" id="ch" x1="130.87" x2="-409.04" y1="-1461.45" y2="-1104.72"/>
    <linearGradient xlink:href="#a" id="ci" x1="136.41" x2="-413.92" y1="-1463.61" y2="-1099.99"/>
    <linearGradient xlink:href="#a" id="cj" x1="141.36" x2="-418.31" y1="-1465.33" y2="-1095.54"/>
    <linearGradient xlink:href="#a" id="ck" x1="146.55" x2="-422.96" y1="-1467.17" y2="-1090.88"/>
    <linearGradient xlink:href="#a" id="cl" x1="152.42" x2="-428.3" y1="-1469.42" y2="-1085.73"/>
    <linearGradient xlink:href="#a" id="cm" x1="157.53" x2="-432.95" y1="-1471.12" y2="-1080.99"/>
    <linearGradient xlink:href="#a" id="cn" x1="163.39" x2="-438.36" y1="-1473.28" y2="-1075.69"/>
    <linearGradient xlink:href="#a" id="co" x1="168.82" x2="-443.41" y1="-1475.1" y2="-1070.59"/>
    <linearGradient xlink:href="#a" id="cp" x1="175.32" x2="-449.56" y1="-1477.58" y2="-1064.72"/>
    <linearGradient xlink:href="#a" id="cq" x1="181.9" x2="-455.84" y1="-1480.06" y2="-1058.7"/>
    <linearGradient xlink:href="#a" id="cr" x1="188.62" x2="-462.35" y1="-1482.6" y2="-1052.48"/>
    <linearGradient xlink:href="#a" id="cs" x1="108.02" x2="-386.94" y1="-1448.71" y2="-1121.68"/>
    <linearGradient xlink:href="#a" id="ct" x1="112.51" x2="-390.64" y1="-1450.29" y2="-1117.85"/>
    <linearGradient xlink:href="#a" id="cu" x1="116.96" x2="-394.34" y1="-1451.8" y2="-1113.98"/>
    <linearGradient xlink:href="#a" id="cv" x1="121.48" x2="-398.13" y1="-1453.33" y2="-1110.01"/>
    <linearGradient xlink:href="#a" id="cw" x1="125.86" x2="-401.83" y1="-1454.72" y2="-1106.07"/>
    <linearGradient xlink:href="#a" id="cx" x1="130.94" x2="-406.18" y1="-1456.55" y2="-1101.67"/>
    <linearGradient xlink:href="#a" id="cy" x1="136.33" x2="-410.84" y1="-1458.54" y2="-1097.02"/>
    <linearGradient xlink:href="#a" id="cz" x1="140.6" x2="-414.54" y1="-1459.75" y2="-1092.96"/>
    <linearGradient xlink:href="#a" id="da" x1="146.48" x2="-419.73" y1="-1461.98" y2="-1087.88"/>
    <linearGradient xlink:href="#a" id="db" x1="152.16" x2="-424.79" y1="-1464.04" y2="-1082.84"/>
    <linearGradient xlink:href="#a" id="dc" x1="157.28" x2="-429.38" y1="-1465.68" y2="-1078.07"/>
    <linearGradient xlink:href="#a" id="dd" x1="162.75" x2="-434.31" y1="-1467.51" y2="-1073.02"/>
    <linearGradient xlink:href="#a" id="de" x1="168.82" x2="-439.88" y1="-1469.68" y2="-1067.5"/>
    <linearGradient xlink:href="#a" id="df" x1="175.21" x2="-445.82" y1="-1472.01" y2="-1061.7"/>
    <linearGradient xlink:href="#a" id="dg" x1="181.61" x2="-451.82" y1="-1474.3" y2="-1055.79"/>
    <linearGradient xlink:href="#a" id="dh" x1="188.39" x2="-458.26" y1="-1476.79" y2="-1049.54"/>
    <linearGradient xlink:href="#a" id="di" x1="108.56" x2="-384.8" y1="-1444.41" y2="-1118.44"/>
    <linearGradient xlink:href="#a" id="dj" x1="112.79" x2="-388.24" y1="-1445.76" y2="-1114.72"/>
    <linearGradient xlink:href="#a" id="dk" x1="116.91" x2="-391.61" y1="-1447" y2="-1111.01"/>
    <linearGradient xlink:href="#a" id="dl" x1="121.57" x2="-395.45" y1="-1448.56" y2="-1106.96"/>
    <linearGradient xlink:href="#a" id="dm" x1="126.02" x2="-399.15" y1="-1449.95" y2="-1102.96"/>
    <linearGradient xlink:href="#a" id="dn" x1="131.18" x2="-403.49" y1="-1451.76" y2="-1098.5"/>
    <linearGradient xlink:href="#a" id="do" x1="136.03" x2="-407.6" y1="-1453.33" y2="-1094.15"/>
    <linearGradient xlink:href="#a" id="dp" x1="141.03" x2="-411.88" y1="-1454.96" y2="-1089.64"/>
    <linearGradient xlink:href="#a" id="dq" x1="146.33" x2="-416.46" y1="-1456.74" y2="-1084.9"/>
    <linearGradient xlink:href="#a" id="dr" x1="151.72" x2="-421.17" y1="-1458.54" y2="-1080.03"/>
    <linearGradient xlink:href="#a" id="ds" x1="157.38" x2="-426.17" y1="-1460.47" y2="-1074.91"/>
    <linearGradient xlink:href="#a" id="dt" x1="162.64" x2="-430.82" y1="-1462.09" y2="-1069.98"/>
    <linearGradient xlink:href="#a" id="du" x1="168.57" x2="-436.16" y1="-1464.1" y2="-1064.54"/>
    <linearGradient xlink:href="#a" id="dv" x1="174.78" x2="-441.81" y1="-1466.24" y2="-1058.85"/>
    <linearGradient xlink:href="#a" id="dw" x1="181.31" x2="-447.83" y1="-1468.54" y2="-1052.85"/>
    <linearGradient xlink:href="#a" id="dx" x1="188.17" x2="-454.24" y1="-1470.99" y2="-1046.55"/>
    <linearGradient xlink:href="#a" id="dy" x1="108.44" x2="-382.16" y1="-1439.67" y2="-1115.53"/>
    <linearGradient xlink:href="#a" id="dz" x1="112.58" x2="-385.47" y1="-1440.91" y2="-1111.84"/>
    <linearGradient xlink:href="#a" id="ea" x1="116.98" x2="-389" y1="-1442.28" y2="-1107.97"/>
    <linearGradient xlink:href="#a" id="eb" x1="121.56" x2="-392.71" y1="-1443.73" y2="-1103.94"/>
    <linearGradient xlink:href="#a" id="ec" x1="125.97" x2="-396.31" y1="-1445.03" y2="-1099.95"/>
    <linearGradient xlink:href="#a" id="ed" x1="131.08" x2="-400.54" y1="-1446.75" y2="-1095.5"/>
    <linearGradient xlink:href="#a" id="ee" x1="135.99" x2="-404.63" y1="-1448.3" y2="-1091.1"/>
    <linearGradient xlink:href="#a" id="ef" x1="140.8" x2="-408.66" y1="-1449.74" y2="-1086.7"/>
    <linearGradient xlink:href="#a" id="eg" x1="146.29" x2="-413.33" y1="-1451.58" y2="-1081.83"/>
    <linearGradient xlink:href="#a" id="eh" x1="151.69" x2="-417.97" y1="-1453.32" y2="-1076.93"/>
    <linearGradient xlink:href="#a" id="ei" x1="156.93" x2="-422.49" y1="-1454.9" y2="-1072.07"/>
    <linearGradient xlink:href="#a" id="ej" x1="162.59" x2="-427.43" y1="-1456.71" y2="-1066.88"/>
    <linearGradient xlink:href="#a" id="ek" x1="168.48" x2="-432.62" y1="-1458.62" y2="-1061.46"/>
    <linearGradient xlink:href="#a" id="el" x1="174.67" x2="-438.16" y1="-1460.67" y2="-1055.77"/>
    <linearGradient xlink:href="#a" id="em" x1="180.83" x2="-443.71" y1="-1462.65" y2="-1050.01"/>
    <linearGradient xlink:href="#a" id="en" x1="187.87" x2="-450.19" y1="-1465.15" y2="-1043.57"/>
    <linearGradient id="eo" x1="377.42" x2="-858.17" y1="-1525.66" y2="-885.7" gradientTransform="matrix(1 0 0 -1 173.8 -1017.36)" gradientUnits="userSpaceOnUse">
      <stop offset="0" stop-color="#f2ffff"/>
      <stop offset=".46" stop-color="#0aa9cc"/>
      <stop offset="1" stop-color="#00439f"/>
    </linearGradient>
    <linearGradient xlink:href="#eo" id="ep" x1="95.88" x2="-505.34" y1="-1407.32" y2="-1095.92" gradientTransform="matrix(1 0 0 -1 203.27 -803.53)"/>
    <linearGradient xlink:href="#eo" id="eq" x1="729.81" x2="-2194.31" y1="-1723.21" y2="-208.7" gradientTransform="matrix(1 0 0 -1 203.27 -803.53)"/>
    <linearGradient xlink:href="#eo" id="er" x1="305.02" x2="-600.45" y1="-1320.27" y2="-851.29"/>
    <linearGradient xlink:href="#eo" id="es" x1="90.29" x2="-468.82" y1="-1353.45" y2="-1063.87" gradientTransform="matrix(1 0 0 -1 203.27 -803.53)"/>
    <linearGradient xlink:href="#eo" id="et" x1="735.16" x2="-1586.03" y1="-1398.56" y2="-196.33" gradientTransform="matrix(1 0 0 -1 203.27 -803.53)"/>
    <linearGradient xlink:href="#eo" id="eu" x1="517.55" x2="-853.22" y1="-1403.17" y2="-693.19"/>
    <linearGradient xlink:href="#eo" id="ev" x1="95.47" x2="-492.42" y1="-1385.81" y2="-1081.32" gradientTransform="matrix(1 0 0 -1 203.27 -803.53)"/>
    <linearGradient xlink:href="#eo" id="ew" x1="1249.72" x2="-3099.88" y1="-1581.29" y2="671.54" gradientTransform="matrix(1 0 0 -1 203.27 -803.53)"/>
    <linearGradient xlink:href="#eo" id="ex" x1="426.6" x2="-866.5" y1="-1490.34" y2="-820.6"/>
    <linearGradient xlink:href="#eo" id="ey" x1="96.12" x2="-502.38" y1="-1401.54" y2="-1091.55" gradientTransform="matrix(1 0 0 -1 203.27 -803.53)"/>
    <linearGradient xlink:href="#eo" id="ez" x1="917.68" x2="-2517.96" y1="-1669.97" y2="109.48" gradientTransform="matrix(1 0 0 -1 203.27 -803.53)"/>
    <linearGradient xlink:href="#eo" id="fa" x1="24.02" x2="-385.73" y1="-1340.43" y2="-1128.21"/>
    <linearGradient xlink:href="#eo" id="fb" x1="96.97" x2="-500.68" y1="-1397.03" y2="-1087.48" gradientTransform="matrix(1 0 0 -1 203.27 -803.53)"/>
    <linearGradient xlink:href="#eo" id="fc" x1="156.3" x2="-572.38" y1="-1390.04" y2="-1012.63" gradientTransform="matrix(1 0 0 -1 203.27 -803.53)"/>
    <linearGradient xlink:href="#eo" id="fd" x1="224.9" x2="-666.33" y1="-1419.16" y2="-957.56"/>
    <linearGradient xlink:href="#eo" id="fe" x1="154.15" x2="-583.16" y1="-1410.11" y2="-1028.23" gradientTransform="matrix(1 0 0 -1 203.27 -803.53)"/>
    <linearGradient xlink:href="#eo" id="ff" x1="382.94" x2="-1008.79" y1="-1473.72" y2="-752.89" gradientTransform="matrix(1 0 0 -1 203.27 -803.53)"/>
    <linearGradient xlink:href="#eo" id="fg" x1="159.01" x2="-590.41" y1="-1410.07" y2="-1021.91"/>
    <linearGradient xlink:href="#eo" id="fh" x1="166.25" x2="-602.97" y1="-1414.53" y2="-1016.13" gradientTransform="matrix(1 0 0 -1 203.27 -803.53)"/>
    <linearGradient xlink:href="#eo" id="fi" x1="210.42" x2="-681.8" y1="-1433.73" y2="-971.62" gradientTransform="matrix(1 0 0 -1 203.27 -803.53)"/>
    <linearGradient xlink:href="#eo" id="fj" x1="704.88" x2="-1652" y1="-1655.55" y2="-434.83"/>
    <linearGradient xlink:href="#eo" id="fk" x1="270.04" x2="-777.93" y1="-1437.81" y2="-895.03" gradientTransform="matrix(1 0 0 -1 203.27 -803.53)"/>
    <linearGradient xlink:href="#eo" id="fl" x1="1267.84" x2="-4208.29" y1="-1925.48" y2="910.82" gradientTransform="matrix(1 0 0 -1 203.27 -803.53)"/>
    <linearGradient xlink:href="#eo" id="fm" x1="480.92" x2="-1181.68" y1="-1518.77" y2="-657.65"/>
    <linearGradient xlink:href="#eo" id="fn" x1="283.4" x2="-800.13" y1="-1438.51" y2="-877.31" gradientTransform="matrix(1 0 0 -1 203.27 -803.53)"/>
    <linearGradient xlink:href="#eo" id="fo" x1="730.45" x2="-1951.36" y1="-1613.28" y2="-224.27" gradientTransform="matrix(1 0 0 -1 203.27 -803.53)"/>
    <linearGradient xlink:href="#eo" id="fp" x1="716.47" x2="-1845.02" y1="-1632.96" y2="-306.27"/>
    <linearGradient xlink:href="#eo" id="fq" x1="433.42" x2="-1136.39" y1="-1500.77" y2="-687.7" gradientTransform="matrix(1 0 0 -1 203.27 -803.53)"/>
    <linearGradient xlink:href="#eo" id="fr" x1="1035.1" x2="-3130.21" y1="-1787.85" y2="369.53" gradientTransform="matrix(1 0 0 -1 203.27 -803.53)"/>
    <linearGradient xlink:href="#eo" id="fs" x1="530.07" x2="-1295.38" y1="-1520.37" y2="-574.89"/>
    <linearGradient xlink:href="#eo" id="ft" x1="337.23" x2="-907.32" y1="-1455.35" y2="-810.75" gradientTransform="matrix(1 0 0 -1 203.27 -803.53)"/>
    <linearGradient xlink:href="#eo" id="fu" x1="761.96" x2="-2008.11" y1="-1605.89" y2="-171.16" gradientTransform="matrix(1 0 0 -1 203.27 -803.53)"/>
    <linearGradient xlink:href="#eo" id="fv" x1="649.35" x2="-1566.72" y1="-1589.86" y2="-442.07"/>
    <linearGradient xlink:href="#eo" id="fw" x1="325.19" x2="-894.68" y1="-1462.91" y2="-831.08" gradientTransform="matrix(1 0 0 -1 203.27 -803.53)"/>
    <linearGradient xlink:href="#eo" id="fx" x1="1040.57" x2="-3038.42" y1="-1751.99" y2="360.67" gradientTransform="matrix(1 0 0 -1 203.27 -803.53)"/>
    <linearGradient xlink:href="#eo" id="fy" x1="618.98" x2="-1565.03" y1="-1628.35" y2="-497.17"/>
    <linearGradient xlink:href="#eo" id="fz" x1="310.73" x2="-886.83" y1="-1478.83" y2="-858.57" gradientTransform="matrix(1 0 0 -1 203.27 -803.53)"/>
    <linearGradient xlink:href="#eo" id="ga" x1="966.16" x2="-3064.8" y1="-1823.93" y2="263.86" gradientTransform="matrix(1 0 0 -1 203.27 -803.53)"/>
    <linearGradient xlink:href="#eo" id="gb" x1="69.11" x2="-439.32" y1="-1340.51" y2="-1077.18"/>
    <linearGradient xlink:href="#eo" id="gc" x1="92.11" x2="-473.91" y1="-1359.11" y2="-1065.95" gradientTransform="matrix(1 0 0 -1 203.27 -803.53)"/>
    <linearGradient xlink:href="#eo" id="gd" x1="150.23" x2="-555.07" y1="-1375.89" y2="-1010.58" gradientTransform="matrix(1 0 0 -1 203.27 -803.53)"/>
    <linearGradient xlink:href="#eo" id="ge" x1="485.05" x2="-868.08" y1="-1395.23" y2="-694.39"/>
    <linearGradient xlink:href="#eo" id="gf" x1="127.56" x2="-521.42" y1="-1368.12" y2="-1032" gradientTransform="matrix(1 0 0 -1 203.27 -803.53)"/>
    <linearGradient xlink:href="#eo" id="gg" x1="1078.13" x2="-2608.95" y1="-1545.06" y2="364.63" gradientTransform="matrix(1 0 0 -1 203.27 -803.53)"/>
    <linearGradient xlink:href="#eo" id="gh" x1="506.03" x2="-953.84" y1="-1411.4" y2="-655.28"/>
    <linearGradient xlink:href="#eo" id="gi" x1="160.17" x2="-571.04" y1="-1380.38" y2="-1001.66" gradientTransform="matrix(1 0 0 -1 203.27 -803.53)"/>
    <linearGradient xlink:href="#eo" id="gj" x1="1057.95" x2="-2572.45" y1="-1549.83" y2="330.5" gradientTransform="matrix(1 0 0 -1 203.27 -803.53)"/>
    <linearGradient xlink:href="#eo" id="gk" x1="43.68" x2="-409.7" y1="-1337.53" y2="-1102.7"/>
    <linearGradient xlink:href="#eo" id="gl" x1="95.61" x2="-487.05" y1="-1375.9" y2="-1074.12" gradientTransform="matrix(1 0 0 -1 203.27 -803.53)"/>
    <linearGradient xlink:href="#eo" id="gm" x1="146.01" x2="-551.71" y1="-1379.09" y2="-1017.72" gradientTransform="matrix(1 0 0 -1 203.27 -803.53)"/>
    <linearGradient xlink:href="#eo" id="gn" x1="41.62" x2="-411.05" y1="-1344.16" y2="-1109.71"/>
    <linearGradient xlink:href="#eo" id="go" x1="93.52" x2="-487.88" y1="-1381.81" y2="-1080.67" gradientTransform="matrix(1 0 0 -1 203.27 -803.53)"/>
    <linearGradient xlink:href="#eo" id="gp" x1="142.05" x2="-550.66" y1="-1385.46" y2="-1026.68" gradientTransform="matrix(1 0 0 -1 203.27 -803.53)"/>
    <linearGradient xlink:href="#eo" id="gq" x1="154.12" x2="-532.89" y1="-1347.23" y2="-991.4"/>
    <linearGradient xlink:href="#eo" id="gr" x1="164.26" x2="-574.13" y1="-1376.87" y2="-994.43" gradientTransform="matrix(1 0 0 -1 203.27 -803.53)"/>
    <linearGradient xlink:href="#eo" id="gs" x1="277.01" x2="-742.89" y1="-1386.59" y2="-858.34" gradientTransform="matrix(1 0 0 -1 203.27 -803.53)"/>
    <linearGradient xlink:href="#eo" id="gt" x1="137.91" x2="-511.39" y1="-1340.12" y2="-1003.82"/>
    <linearGradient xlink:href="#eo" id="gu" x1="168.49" x2="-577.11" y1="-1372.93" y2="-986.76" gradientTransform="matrix(1 0 0 -1 203.27 -803.53)"/>
    <linearGradient xlink:href="#eo" id="gv" x1="245.17" x2="-688.46" y1="-1378.56" y2="-894.99" gradientTransform="matrix(1 0 0 -1 203.27 -803.53)"/>
    <linearGradient xlink:href="#eo" id="gw" x1="743.58" x2="-1840.41" y1="-1574.25" y2="-235.9"/>
    <linearGradient xlink:href="#eo" id="gx" x1="518.85" x2="-1266.1" y1="-1474.81" y2="-550.31" gradientTransform="matrix(1 0 0 -1 203.27 -803.53)"/>
    <linearGradient xlink:href="#eo" id="gy" x1="994.94" x2="-2744.21" y1="-1685.41" y2="251.24" gradientTransform="matrix(1 0 0 -1 203.27 -803.53)"/>
    <linearGradient xlink:href="#eo" id="gz" x1="966.45" x2="-2242.71" y1="-1554.98" y2="107.17"/>
    <linearGradient xlink:href="#eo" id="ha" x1="535.87" x2="-1294.94" y1="-1471.61" y2="-523.37" gradientTransform="matrix(1 0 0 -1 203.27 -803.53)"/>
    <linearGradient xlink:href="#eo" id="hb" x1="1434.05" x2="-3750.88" y1="-1657.39" y2="1028.08" gradientTransform="matrix(1 0 0 -1 203.27 -803.53)"/>
    <linearGradient xlink:href="#eo" id="hc" x1="823.19" x2="-2034.45" y1="-1582.76" y2="-102.68"/>
    <linearGradient xlink:href="#eo" id="hd" x1="566.71" x2="-1382.2" y1="-1489.61" y2="-480.19" gradientTransform="matrix(1 0 0 -1 203.27 -803.53)"/>
    <linearGradient xlink:href="#eo" id="he" x1="1096.37" x2="-2986.05" y1="-1682.76" y2="431.68" gradientTransform="matrix(1 0 0 -1 203.27 -803.53)"/>
    <linearGradient xlink:href="#eo" id="hf" x1="962.37" x2="-2547.86" y1="-1647.44" y2="170.65"/>
    <linearGradient xlink:href="#eo" id="hg" x1="799.18" x2="-2039.76" y1="-1579.77" y2="-109.37" gradientTransform="matrix(1 0 0 -1 203.27 -803.53)"/>
    <linearGradient xlink:href="#eo" id="hh" x1="1130.33" x2="-3189.84" y1="-1726.26" y2="511.33" gradientTransform="matrix(1 0 0 -1 203.27 -803.53)"/>
    <linearGradient xlink:href="#eo" id="hi" x1="949.96" x2="-2380.03" y1="-1627.94" y2="96.8"/>
    <linearGradient xlink:href="#eo" id="hj" x1="599.95" x2="-1463.07" y1="-1498.39" y2="-429.87" gradientTransform="matrix(1 0 0 -1 203.27 -803.53)"/>
    <linearGradient xlink:href="#eo" id="hk" x1="1340.26" x2="-3897.83" y1="-1784.29" y2="928.72" gradientTransform="matrix(1 0 0 -1 203.27 -803.53)"/>
    <linearGradient xlink:href="#eo" id="hl" x1="740.79" x2="-1794.39" y1="-1520.97" y2="-207.89"/>
    <linearGradient xlink:href="#eo" id="hm" x1="660.32" x2="-1595.22" y1="-1502.69" y2="-334.45" gradientTransform="matrix(1 0 0 -1 203.27 -803.53)"/>
    <linearGradient xlink:href="#eo" id="hn" x1="795.06" x2="-1926.69" y1="-1526.21" y2="-116.51" gradientTransform="matrix(1 0 0 -1 203.27 -803.53)"/>
    <linearGradient xlink:href="#eo" id="ho" x1="896.91" x2="-1958.35" y1="-1451.79" y2="27.06"/>
    <linearGradient xlink:href="#eo" id="hp" x1="600.88" x2="-1345.43" y1="-1416.58" y2="-408.51" gradientTransform="matrix(1 0 0 -1 203.27 -803.53)"/>
    <linearGradient xlink:href="#eo" id="hq" x1="1217.35" x2="-2834.31" y1="-1500.09" y2="598.43" gradientTransform="matrix(1 0 0 -1 203.27 -803.53)"/>
    <linearGradient xlink:href="#eo" id="hr" x1="1002.4" x2="-2238.31" y1="-1492.09" y2="186.4"/>
    <linearGradient xlink:href="#eo" id="hs" x1="623.24" x2="-1408.13" y1="-1430.01" y2="-377.88" gradientTransform="matrix(1 0 0 -1 203.27 -803.53)"/>
    <linearGradient xlink:href="#eo" id="ht" x1="1406.54" x2="-3443.6" y1="-1567.65" y2="944.43" gradientTransform="matrix(1 0 0 -1 203.27 -803.53)"/>
    <linearGradient xlink:href="#eo" id="hu" x1="1016.96" x2="-2379.62" y1="-1510.86" y2="248.36"/>
    <linearGradient xlink:href="#eo" id="hv" x1="832.98" x2="-1905.76" y1="-1468.97" y2="-50.47" gradientTransform="matrix(1 0 0 -1 203.27 -803.53)"/>
    <linearGradient xlink:href="#eo" id="hw" x1="1125.98" x2="-2651.24" y1="-1513.45" y2="442.92" gradientTransform="matrix(1 0 0 -1 203.27 -803.53)"/>
    <linearGradient xlink:href="#eo" id="hx" x1="151.01" x2="-239.4" y1="-1483.64" y2="-1194.77"/>
    <linearGradient xlink:href="#eo" id="hy" x1="77.18" x2="-237.99" y1="-1464.93" y2="-1231.73" gradientTransform="matrix(1 0 0 -1 203.27 -803.53)"/>
    <linearGradient xlink:href="#eo" id="hz" x1="318.31" x2="-370.56" y1="-1571.65" y2="-1061.96" gradientTransform="matrix(1 0 0 -1 203.27 -803.53)"/>
    <linearGradient xlink:href="#eo" id="ia" x1="372.66" x2="-230.09" y1="-1390.09" y2="-944.13"/>
    <linearGradient xlink:href="#eo" id="ib" x1="279.13" x2="-253.79" y1="-1426.91" y2="-1032.61" gradientTransform="matrix(1 0 0 -1 203.27 -803.53)"/>
    <linearGradient xlink:href="#eo" id="ic" x1="625.34" x2="-386.18" y1="-1471.27" y2="-722.85" gradientTransform="matrix(1 0 0 -1 203.27 -803.53)"/>
    <linearGradient xlink:href="#a" id="id" x1="490.84" x2="-672.8" y1="-1690.02" y2="-921.19" gradientTransform="matrix(1 0 0 -1 173.8 -1017.36)"/>
    <linearGradient xlink:href="#a" id="ie" x1="518.6" x2="-702.68" y1="-1704.35" y2="-897.44" gradientTransform="matrix(1 0 0 -1 173.8 -1017.36)"/>
    <linearGradient xlink:href="#a" id="if" x1="615.13" x2="-811.49" y1="-1754.46" y2="-811.88" gradientTransform="matrix(1 0 0 -1 173.8 -1017.36)"/>
    <linearGradient xlink:href="#a" id="ig" x1="489.14" x2="-660.16" y1="-1677.39" y2="-918.03" gradientTransform="matrix(1 0 0 -1 173.8 -1017.36)"/>
    <linearGradient xlink:href="#a" id="ih" x1="546.46" x2="-720.99" y1="-1706.25" y2="-868.82" gradientTransform="matrix(1 0 0 -1 173.8 -1017.36)"/>
    <linearGradient xlink:href="#a" id="ii" x1="578.31" x2="-755.91" y1="-1722.34" y2="-840.8" gradientTransform="matrix(1 0 0 -1 173.8 -1017.36)"/>
    <linearGradient xlink:href="#a" id="ij" x1="613.23" x2="-795.14" y1="-1740.12" y2="-809.59" gradientTransform="matrix(1 0 0 -1 173.8 -1017.36)"/>
    <linearGradient xlink:href="#a" id="ik" x1="586.6" x2="-915.62" y1="-1781.09" y2="-788.55"/>
    <linearGradient xlink:href="#a" id="il" x1="631.99" x2="-981" y1="-1806.55" y2="-740.82"/>
    <linearGradient xlink:href="#a" id="im" x1="801.96" x2="-1242" y1="-1902.47" y2="-552"/>
    <linearGradient xlink:href="#a" id="in" x1="585.33" x2="-893.65" y1="-1763.92" y2="-786.73"/>
    <linearGradient xlink:href="#a" id="io" x1="680.95" x2="-1029.26" y1="-1816.09" y2="-686.13"/>
    <linearGradient xlink:href="#a" id="ip" x1="737.25" x2="-1112.82" y1="-1846.98" y2="-624.62"/>
    <linearGradient xlink:href="#a" id="iq" x1="800.45" x2="-1209.6" y1="-1881.78" y2="-553.71"/>
    <linearGradient xlink:href="#a" id="ir" x1="371.94" x2="-436.29" y1="-1528.46" y2="-994.46" gradientTransform="matrix(1 0 0 -1 173.8 -1017.36)"/>
    <linearGradient xlink:href="#a" id="is" x1="387.5" x2="-446.3" y1="-1534.31" y2="-983.4" gradientTransform="matrix(1 0 0 -1 173.8 -1017.36)"/>
    <linearGradient xlink:href="#a" id="it" x1="403.32" x2="-456.6" y1="-1540.14" y2="-971.98" gradientTransform="matrix(1 0 0 -1 173.8 -1017.36)"/>
    <linearGradient xlink:href="#a" id="iu" x1="420.1" x2="-467.72" y1="-1546.4" y2="-959.8" gradientTransform="matrix(1 0 0 -1 173.8 -1017.36)"/>
    <linearGradient xlink:href="#a" id="iv" x1="437.71" x2="-479.59" y1="-1553" y2="-946.92" gradientTransform="matrix(1 0 0 -1 173.8 -1017.36)"/>
    <linearGradient xlink:href="#a" id="iw" x1="456.65" x2="-492.65" y1="-1560.24" y2="-933.03" gradientTransform="matrix(1 0 0 -1 173.8 -1017.36)"/>
    <linearGradient xlink:href="#a" id="ix" x1="497.25" x2="-521.33" y1="-1575.77" y2="-902.78" gradientTransform="matrix(1 0 0 -1 173.8 -1017.36)"/>
    <linearGradient xlink:href="#a" id="iy" x1="519.42" x2="-537.44" y1="-1584.36" y2="-886.08" gradientTransform="matrix(1 0 0 -1 173.8 -1017.36)"/>
    <linearGradient xlink:href="#a" id="iz" x1="542.35" x2="-554.3" y1="-1593.14" y2="-868.57" gradientTransform="matrix(1 0 0 -1 173.8 -1017.36)"/>
    <linearGradient xlink:href="#a" id="ja" x1="567.28" x2="-573.1" y1="-1602.92" y2="-849.45" gradientTransform="matrix(1 0 0 -1 173.8 -1017.36)"/>
    <linearGradient xlink:href="#a" id="jb" x1="593.56" x2="-593.25" y1="-1613.23" y2="-829.09" gradientTransform="matrix(1 0 0 -1 173.8 -1017.36)"/>
    <linearGradient xlink:href="#a" id="jc" x1="621.88" x2="-615.45" y1="-1624.51" y2="-806.99" gradientTransform="matrix(1 0 0 -1 173.8 -1017.36)"/>
    <linearGradient xlink:href="#a" id="jd" x1="651.78" x2="-639.29" y1="-1636.42" y2="-783.39" gradientTransform="matrix(1 0 0 -1 173.8 -1017.36)"/>
    <linearGradient xlink:href="#a" id="je" x1="718.08" x2="-693.79" y1="-1663.15" y2="-730.31" gradientTransform="matrix(1 0 0 -1 173.8 -1017.36)"/>
    <linearGradient xlink:href="#a" id="jf" x1="754.67" x2="-724.72" y1="-1678" y2="-700.54" gradientTransform="matrix(1 0 0 -1 173.8 -1017.36)"/>
    <linearGradient xlink:href="#a" id="jg" x1="794.19" x2="-758.86" y1="-1694.21" y2="-668.08" gradientTransform="matrix(1 0 0 -1 173.8 -1017.36)"/>
    <linearGradient xlink:href="#a" id="jh" x1="369.94" x2="-430.01" y1="-1519.31" y2="-990.77" gradientTransform="matrix(1 0 0 -1 173.8 -1017.36)"/>
    <linearGradient xlink:href="#a" id="ji" x1="401.03" x2="-449.63" y1="-1530.46" y2="-968.42" gradientTransform="matrix(1 0 0 -1 173.8 -1017.36)"/>
    <linearGradient xlink:href="#a" id="jj" x1="417.81" x2="-460.5" y1="-1536.55" y2="-956.24" gradientTransform="matrix(1 0 0 -1 173.8 -1017.36)"/>
    <linearGradient xlink:href="#a" id="jk" x1="435.35" x2="-472.03" y1="-1542.91" y2="-943.38" gradientTransform="matrix(1 0 0 -1 173.8 -1017.36)"/>
    <linearGradient xlink:href="#a" id="jl" x1="454.15" x2="-484.68" y1="-1549.87" y2="-929.57" gradientTransform="matrix(1 0 0 -1 173.8 -1017.36)"/>
    <linearGradient xlink:href="#a" id="jm" x1="473.83" x2="-498.13" y1="-1557.15" y2="-914.96" gradientTransform="matrix(1 0 0 -1 173.8 -1017.36)"/>
    <linearGradient xlink:href="#a" id="jn" x1="494.59" x2="-512.57" y1="-1564.87" y2="-899.42" gradientTransform="matrix(1 0 0 -1 173.8 -1017.36)"/>
    <linearGradient xlink:href="#a" id="jo" x1="516.59" x2="-528.18" y1="-1573.12" y2="-882.83" gradientTransform="matrix(1 0 0 -1 173.8 -1017.36)"/>
    <linearGradient xlink:href="#a" id="jp" x1="539.5" x2="-544.64" y1="-1581.66" y2="-865.35" gradientTransform="matrix(1 0 0 -1 173.8 -1017.36)"/>
    <linearGradient xlink:href="#a" id="jq" x1="564.09" x2="-562.71" y1="-1590.96" y2="-846.47" gradientTransform="matrix(1 0 0 -1 173.8 -1017.36)"/>
    <linearGradient xlink:href="#a" id="jr" x1="590.53" x2="-582.56" y1="-1601.12" y2="-826.05" gradientTransform="matrix(1 0 0 -1 173.8 -1017.36)"/>
    <linearGradient xlink:href="#a" id="js" x1="618.53" x2="-603.97" y1="-1611.92" y2="-804.19" gradientTransform="matrix(1 0 0 -1 173.8 -1017.36)"/>
    <linearGradient xlink:href="#a" id="jt" x1="648.22" x2="-627.09" y1="-1623.4" y2="-780.79" gradientTransform="matrix(1 0 0 -1 173.8 -1017.36)"/>
    <linearGradient xlink:href="#a" id="ju" x1="679.89" x2="-652.23" y1="-1635.73" y2="-755.57" gradientTransform="matrix(1 0 0 -1 173.8 -1017.36)"/>
    <linearGradient xlink:href="#a" id="jv" x1="714.29" x2="-680.18" y1="-1649.34" y2="-727.99" gradientTransform="matrix(1 0 0 -1 173.8 -1017.36)"/>
    <linearGradient xlink:href="#a" id="jw" x1="789.95" x2="-743.38" y1="-1679.39" y2="-666.3" gradientTransform="matrix(1 0 0 -1 173.8 -1017.36)"/>
    <linearGradient xlink:href="#a" id="jx" x1="832.56" x2="-780.17" y1="-1696.61" y2="-631.06" gradientTransform="matrix(1 0 0 -1 173.8 -1017.36)"/>
    <linearGradient xlink:href="#a" id="jy" x1="121.02" x2="-358.65" y1="-1406.44" y2="-1089.52"/>
    <linearGradient xlink:href="#a" id="jz" x1="131.05" x2="-365.21" y1="-1408.9" y2="-1081.02"/>
    <linearGradient xlink:href="#a" id="ka" x1="141.41" x2="-372.12" y1="-1411.37" y2="-1072.07"/>
    <linearGradient xlink:href="#a" id="kb" x1="152.48" x2="-379.67" y1="-1414.07" y2="-1062.47"/>
    <linearGradient xlink:href="#a" id="kc" x1="164.11" x2="-387.78" y1="-1416.9" y2="-1052.26"/>
    <linearGradient xlink:href="#a" id="kd" x1="176.72" x2="-396.8" y1="-1420.12" y2="-1041.18"/>
    <linearGradient xlink:href="#a" id="ke" x1="203.95" x2="-416.92" y1="-1426.97" y2="-1016.76"/>
    <linearGradient xlink:href="#a" id="kf" x1="219.02" x2="-428.46" y1="-1430.87" y2="-1003.06"/>
    <linearGradient xlink:href="#a" id="kg" x1="234.91" x2="-440.9" y1="-1434.92" y2="-988.41"/>
    <linearGradient xlink:href="#a" id="kh" x1="252.24" x2="-454.85" y1="-1439.52" y2="-972.34"/>
    <linearGradient xlink:href="#a" id="ki" x1="270.81" x2="-470.19" y1="-1444.49" y2="-954.91"/>
    <linearGradient xlink:href="#a" id="kj" x1="290.64" x2="-486.96" y1="-1449.8" y2="-936.03"/>
    <linearGradient xlink:href="#a" id="kk" x1="312.23" x2="-505.75" y1="-1455.72" y2="-915.26"/>
    <linearGradient xlink:href="#a" id="kl" x1="360.76" x2="-549.73" y1="-1469.19" y2="-867.62"/>
    <linearGradient xlink:href="#a" id="km" x1="388.43" x2="-575.91" y1="-1477.08" y2="-839.93"/>
    <linearGradient xlink:href="#a" id="kn" x1="418.64" x2="-605.33" y1="-1485.8" y2="-809.24"/>
    <linearGradient xlink:href="#a" id="ko" x1="119.52" x2="-353.13" y1="-1396.21" y2="-1083.93"/>
    <linearGradient xlink:href="#a" id="kp" x1="139.79" x2="-365.98" y1="-1400.59" y2="-1066.42"/>
    <linearGradient xlink:href="#a" id="kq" x1="150.8" x2="-373.19" y1="-1403.01" y2="-1056.8"/>
    <linearGradient xlink:href="#a" id="kr" x1="162.38" x2="-380.93" y1="-1405.54" y2="-1046.56"/>
    <linearGradient xlink:href="#a" id="ks" x1="174.93" x2="-389.54" y1="-1408.43" y2="-1035.47"/>
    <linearGradient xlink:href="#a" id="kt" x1="187.88" x2="-398.59" y1="-1411.28" y2="-1023.79"/>
    <linearGradient xlink:href="#a" id="ku" x1="201.92" x2="-408.66" y1="-1414.52" y2="-1011.1"/>
    <linearGradient xlink:href="#a" id="kv" x1="217.06" x2="-419.81" y1="-1418.13" y2="-997.33"/>
    <linearGradient xlink:href="#a" id="kw" x1="232.82" x2="-431.64" y1="-1421.74" y2="-982.72"/>
    <linearGradient xlink:href="#a" id="kx" x1="250.06" x2="-444.96" y1="-1425.91" y2="-966.7"/>
    <linearGradient xlink:href="#a" id="ky" x1="268.35" x2="-459.43" y1="-1430.29" y2="-949.44"/>
    <linearGradient xlink:href="#a" id="kz" x1="288.19" x2="-475.55" y1="-1435.17" y2="-930.56"/>
    <linearGradient xlink:href="#a" id="la" x1="309.62" x2="-493.44" y1="-1440.53" y2="-909.94"/>
    <linearGradient xlink:href="#a" id="lb" x1="332.78" x2="-513.31" y1="-1446.39" y2="-887.36"/>
    <linearGradient xlink:href="#a" id="lc" x1="357.78" x2="-535.32" y1="-1452.74" y2="-862.65"/>
    <linearGradient xlink:href="#a" id="ld" x1="415.44" x2="-588.54" y1="-1468.01" y2="-804.67"/>
    <linearGradient xlink:href="#a" id="le" x1="448.51" x2="-620.44" y1="-1476.98" y2="-770.71"/>
    <linearGradient xlink:href="#a" id="lf" x1="-16.35" x2="15.5" y1="-1785.08" y2="-1157.77" gradientTransform="matrix(1 0 0 -1 173.8 -1017.36)"/>
    <linearGradient xlink:href="#a" id="lg" x1="-77.42" x2="-51.23" y1="-1688.94" y2="-1173.09" gradientTransform="matrix(1 0 0 -1 173.8 -1017.36)"/>
    <linearGradient xlink:href="#a" id="lh" x1="-97.49" x2="-73.29" y1="-1655.25" y2="-1178.52" gradientTransform="matrix(1 0 0 -1 173.8 -1017.36)"/>
    <linearGradient xlink:href="#a" id="li" x1="-121.66" x2="-99.82" y1="-1615.2" y2="-1184.98" gradientTransform="matrix(1 0 0 -1 173.8 -1017.36)"/>
    <linearGradient xlink:href="#a" id="lj" x1="-24.69" x2="6.69" y1="-1777.16" y2="-1158.79" gradientTransform="matrix(1 0 0 -1 173.8 -1017.36)"/>
    <linearGradient xlink:href="#a" id="lk" x1="-129.27" x2="-108.12" y1="-1603.58" y2="-1186.82" gradientTransform="matrix(1 0 0 -1 173.8 -1017.36)"/>
    <linearGradient xlink:href="#a" id="ll" x1="-158.74" x2="-139.97" y1="-1562.93" y2="-1193.12" gradientTransform="matrix(1 0 0 -1 173.8 -1017.36)"/>
    <linearGradient xlink:href="#a" id="lm" x1="-139.13" x2="-118.55" y1="-1593.55" y2="-1188.19" gradientTransform="matrix(1 0 0 -1 173.8 -1017.36)"/>
    <linearGradient xlink:href="#a" id="ln" x1="-92.49" x2="-67.68" y1="-1665.65" y2="-1176.74" gradientTransform="matrix(1 0 0 -1 173.8 -1017.36)"/>
    <linearGradient xlink:href="#a" id="lo" x1="-77.57" x2="-51.32" y1="-1689.89" y2="-1172.88" gradientTransform="matrix(1 0 0 -1 173.8 -1017.36)"/>
    <linearGradient xlink:href="#a" id="lp" x1="-55.23" x2="-26.61" y1="-1730.1" y2="-1166.28" gradientTransform="matrix(1 0 0 -1 173.8 -1017.36)"/>
    <style>
      .b{opacity:.7}.ic{fill:#16518b}.lk{fill:#4179ba}
    </style>
  </defs>
  <g class="b" style="isolation:isolate">
    <path fill="url(#a)" d="M35.92 490.4c.2 0 .36.41.36.85s-.16.76-.36.73-.35-.41-.35-.85.16-.76.35-.73Z" transform="translate(-29.48 -213.83)"/>
    <path fill="url(#b)" d="M38.07 490.75c.2 0 .37.42.37.86s-.17.77-.37.73-.37-.42-.37-.86.17-.76.37-.73Z" transform="translate(-29.48 -213.83)"/>
    <path fill="url(#c)" d="M40.26 491.1c.21 0 .38.42.38.87s-.17.78-.38.74-.37-.42-.37-.87.16-.77.37-.74Z" transform="translate(-29.48 -213.83)"/>
    <path fill="url(#d)" d="M42.51 491.46c.21 0 .39.43.39.88s-.18.79-.39.76-.38-.44-.38-.89.17-.78.38-.75Z" transform="translate(-29.48 -213.83)"/>
    <path fill="url(#e)" d="M44.81 491.84c.22 0 .4.43.4.89s-.18.79-.4.76-.39-.44-.39-.89.18-.8.39-.76Z" transform="translate(-29.48 -213.83)"/>
    <path fill="url(#f)" d="M47.17 492.21c.23 0 .41.45.41.91s-.18.81-.41.77-.4-.45-.4-.9.23-.81.4-.78Z" transform="translate(-29.48 -213.83)"/>
    <path fill="url(#g)" d="M49.59 492.61c.23 0 .41.44.41.91s-.18.82-.41.78-.41-.45-.41-.92.18-.81.41-.77Z" transform="translate(-29.48 -213.83)"/>
    <path fill="url(#h)" d="M52.07 493c.23 0 .43.46.43.93s-.2.83-.43.79-.42-.46-.42-.93.18-.79.42-.79Z" transform="translate(-29.48 -213.83)"/>
    <path fill="url(#i)" d="M54.62 493.42c.23 0 .43.46.43.94s-.2.83-.43.79-.44-.46-.44-.94.19-.83.44-.79Z" transform="translate(-29.48 -213.83)"/>
    <path fill="url(#j)" d="M57.23 493.84c.24 0 .45.46.45 1s-.21.85-.45.81-.45-.47-.45-1 .22-.86.45-.81Z" transform="translate(-29.48 -213.83)"/>
    <path fill="url(#k)" d="M59.91 494.27c.25 0 .45.47.45 1s-.2.86-.45.81-.46-.47-.46-1 .2-.85.46-.81Z" transform="translate(-29.48 -213.83)"/>
    <path fill="url(#l)" d="M62.66 494.71c.26 0 .47.48.47 1s-.21.87-.47.82-.47-.48-.47-1 .21-.86.47-.82Z" transform="translate(-29.48 -213.83)"/>
    <path fill="url(#m)" d="M65.49 495.17c.26 0 .48.49.48 1s-.22.89-.48.84-.49-.49-.49-1 .22-.89.49-.84Z" transform="translate(-29.48 -213.83)"/>
    <path fill="url(#n)" d="M68.39 495.64c.27 0 .5.49.5 1s-.23.89-.5.84-.5-.5-.5-1 .22-.89.5-.84Z" transform="translate(-29.48 -213.83)"/>
    <path fill="url(#o)" d="M71.38 496.12c.28 0 .51.5.51 1s-.23.9-.51.85-.52-.51-.52-1 .23-.9.52-.85Z" transform="translate(-29.48 -213.83)"/>
    <path fill="url(#p)" d="M74.45 496.61c.29.05.53.52.53 1.05s-.24.91-.53.87-.53-.52-.53-1 .24-.96.53-.92Z" transform="translate(-29.48 -213.83)"/>
    <path fill="url(#q)" d="M35.92 485.74c.2 0 .36.41.36.84s-.16.77-.36.74-.35-.41-.35-.84.16-.76.35-.74Z" transform="translate(-29.48 -213.83)"/>
    <path fill="url(#r)" d="M38.07 486c.2 0 .37.4.37.84s-.17.78-.37.75-.37-.41-.37-.85.17-.74.37-.74Z" transform="translate(-29.48 -213.83)"/>
    <path fill="url(#s)" d="M40.26 486.33c.21 0 .38.42.38.86s-.17.78-.38.76-.37-.42-.37-.86.16-.79.37-.76Z" transform="translate(-29.48 -213.83)"/>
    <path fill="url(#t)" d="M42.51 486.64c.21 0 .39.42.39.86s-.18.8-.39.77-.38-.42-.38-.87.17-.79.38-.76Z" transform="translate(-29.48 -213.83)"/>
    <path fill="url(#u)" d="M44.81 487c.22 0 .4.42.4.88s-.18.8-.4.77-.39-.43-.39-.88.18-.85.39-.77Z" transform="translate(-29.48 -213.83)"/>
    <path fill="url(#v)" d="M47.17 487.27c.23 0 .41.43.41.89s-.18.81-.41.78-.4-.43-.4-.89.23-.81.4-.78Z" transform="translate(-29.48 -213.83)"/>
    <path fill="url(#w)" d="M49.59 487.6c.23 0 .41.43.41.9s-.18.82-.41.79-.41-.44-.41-.9.18-.82.41-.79Z" transform="translate(-29.48 -213.83)"/>
    <path fill="url(#x)" d="M52.07 487.93c.23 0 .43.44.43.92s-.2.83-.43.8-.42-.45-.42-.92.18-.83.42-.8Z" transform="translate(-29.48 -213.83)"/>
    <path fill="url(#y)" d="M54.62 488.28c.23 0 .43.44.43.93s-.2.84-.43.8-.44-.45-.44-.92.19-.85.44-.81Z" transform="translate(-29.48 -213.83)"/>
    <path fill="url(#z)" d="M57.23 488.63c.24 0 .45.46.45.94s-.21.86-.45.82-.45-.45-.45-.94.22-.85.45-.82Z" transform="translate(-29.48 -213.83)"/>
    <path fill="url(#aa)" d="M59.91 489c.25 0 .45.47.45 1s-.2.86-.45.83-.46-.47-.46-1 .2-.83.46-.83Z" transform="translate(-29.48 -213.83)"/>
    <path fill="url(#ab)" d="M62.66 489.37c.26 0 .47.46.47 1s-.21.87-.47.84-.47-.48-.47-1 .21-.88.47-.84Z" transform="translate(-29.48 -213.83)"/>
    <path fill="url(#ac)" d="M65.49 489.75c.26 0 .48.48.48 1s-.22.88-.48.84-.49-.48-.49-1 .22-.88.49-.84Z" transform="translate(-29.48 -213.83)"/>
    <path fill="url(#ad)" d="M68.39 490.14c.27 0 .5.49.5 1s-.23.9-.5.86-.5-.49-.5-1 .22-.89.5-.86Z" transform="translate(-29.48 -213.83)"/>
    <path fill="url(#ae)" d="M71.38 490.55c.28 0 .51.49.51 1s-.23.91-.51.87-.52-.49-.52-1 .23-.91.52-.87Z" transform="translate(-29.48 -213.83)"/>
    <path fill="url(#af)" d="M74.45 491c.29 0 .53.5.53 1s-.24.93-.53.89-.53-.51-.53-1 .24-.97.53-.89Z" transform="translate(-29.48 -213.83)"/>
    <path fill="url(#ag)" d="M35.92 481.09c.2 0 .36.39.36.83s-.16.76-.36.74-.35-.39-.35-.83.16-.76.35-.74Z" transform="translate(-29.48 -213.83)"/>
    <path fill="url(#ah)" d="M38.07 481.32c.2 0 .37.4.37.84s-.17.78-.37.76-.37-.4-.37-.84.17-.78.37-.76Z" transform="translate(-29.48 -213.83)"/>
    <path fill="url(#ai)" d="M40.26 481.56c.21 0 .38.4.38.85s-.17.79-.38.77-.37-.41-.37-.86.16-.78.37-.76Z" transform="translate(-29.48 -213.83)"/>
    <path fill="url(#aj)" d="M42.51 481.81c.21 0 .39.41.39.86s-.18.79-.39.77-.38-.41-.38-.86.17-.79.38-.77Z" transform="translate(-29.48 -213.83)"/>
    <path fill="url(#ak)" d="M44.81 482.06c.22 0 .4.42.4.87s-.18.81-.4.78-.39-.41-.39-.87.18-.84.39-.78Z" transform="translate(-29.48 -213.83)"/>
    <path fill="url(#al)" d="M47.17 482.32c.23 0 .41.42.41.88s-.18.82-.41.79-.4-.41-.4-.88.23-.81.4-.79Z" transform="translate(-29.48 -213.83)"/>
    <path fill="url(#am)" d="M49.59 482.59c.23 0 .41.42.41.89s-.18.83-.41.8-.41-.43-.41-.9.18-.82.41-.79Z" transform="translate(-29.48 -213.83)"/>
    <path fill="url(#an)" d="M52.07 482.86c.23 0 .43.43.43.91s-.2.83-.43.8-.42-.43-.42-.9.18-.84.42-.81Z" transform="translate(-29.48 -213.83)"/>
    <path fill="url(#ao)" d="M54.62 483.14c.23 0 .43.44.43.92s-.2.84-.43.82-.44-.44-.44-.92.19-.85.44-.82Z" transform="translate(-29.48 -213.83)"/>
    <path fill="url(#ap)" d="M57.23 483.42c.24 0 .45.45.45.94s-.21.85-.45.83-.45-.45-.45-.94.22-.85.45-.83Z" transform="translate(-29.48 -213.83)"/>
    <path fill="url(#aq)" d="M59.91 483.72c.25 0 .45.45.45.94s-.2.87-.45.84-.46-.45-.46-.94.2-.87.46-.84Z" transform="translate(-29.48 -213.83)"/>
    <path fill="url(#ar)" d="M62.66 484c.26 0 .47.46.47 1s-.21.88-.47.85-.47-.46-.47-1 .21-.85.47-.85Z" transform="translate(-29.48 -213.83)"/>
    <path fill="url(#as)" d="M65.49 484.33c.26 0 .48.47.48 1s-.22.89-.48.86-.49-.46-.49-1 .22-.89.49-.86Z" transform="translate(-29.48 -213.83)"/>
    <path fill="url(#at)" d="M68.39 484.65c.27 0 .5.47.5 1s-.23.91-.5.88-.5-.47-.5-1 .22-.91.5-.88Z" transform="translate(-29.48 -213.83)"/>
    <path fill="url(#au)" d="M71.38 485c.28 0 .51.48.51 1s-.23.91-.51.88-.52-.48-.52-1 .23-.88.52-.88Z" transform="translate(-29.48 -213.83)"/>
    <path fill="url(#av)" d="M74.45 485.32c.29 0 .53.48.53 1s-.24.93-.53.89-.53-.48-.53-1 .24-.93.53-.89Z" transform="translate(-29.48 -213.83)"/>
    <path fill="url(#aw)" d="M35.92 476.43c.2 0 .36.38.36.82s-.16.77-.36.76-.35-.39-.35-.82.16-.78.35-.76Z" transform="translate(-29.48 -213.83)"/>
    <path fill="url(#ax)" d="M38.07 476.61c.2 0 .37.39.37.83s-.17.78-.37.76-.37-.39-.37-.83.17-.78.37-.76Z" transform="translate(-29.48 -213.83)"/>
    <path fill="url(#ay)" d="M40.26 476.79c.21 0 .38.4.38.84s-.17.8-.38.78-.37-.4-.37-.85.16-.78.37-.77Z" transform="translate(-29.48 -213.83)"/>
    <path fill="url(#az)" d="M42.51 477c.21 0 .39.4.39.85s-.18.8-.39.78-.38-.4-.38-.85.17-.78.38-.78Z" transform="translate(-29.48 -213.83)"/>
    <path fill="url(#ba)" d="M44.81 477.18c.22 0 .4.4.4.86s-.18.81-.4.79-.39-.41-.39-.86.18-.81.39-.79Z" transform="translate(-29.48 -213.83)"/>
    <path fill="url(#bb)" d="M47.17 477.37c.23 0 .41.41.41.87s-.18.83-.41.81-.4-.41-.4-.88.23-.82.4-.8Z" transform="translate(-29.48 -213.83)"/>
    <path fill="url(#bc)" d="M49.59 477.58c.23 0 .41.41.41.88s-.18.83-.41.81-.41-.41-.41-.88.18-.83.41-.81Z" transform="translate(-29.48 -213.83)"/>
    <path fill="url(#bd)" d="M52.07 477.79c.23 0 .43.42.43.89s-.2.84-.43.82-.42-.42-.42-.89.18-.84.42-.82Z" transform="translate(-29.48 -213.83)"/>
    <path fill="url(#be)" d="M54.62 478c.23 0 .43.43.43.9s-.2.86-.43.84-.44-.43-.44-.91.19-.83.44-.83Z" transform="translate(-29.48 -213.83)"/>
    <path fill="url(#bf)" d="M57.23 478.22c.24 0 .45.43.45.92s-.21.86-.45.84-.45-.44-.45-.92.22-.86.45-.84Z" transform="translate(-29.48 -213.83)"/>
    <path fill="url(#bg)" d="M59.91 478.44c.25 0 .45.44.45.94s-.2.87-.45.85-.46-.44-.46-.94.2-.87.46-.85Z" transform="translate(-29.48 -213.83)"/>
    <path fill="url(#bh)" d="M62.66 478.67c.26 0 .47.45.47.95s-.21.89-.47.86-.47-.44-.47-.94.21-.89.47-.87Z" transform="translate(-29.48 -213.83)"/>
    <path fill="url(#bi)" d="M65.49 478.91c.26 0 .48.46.48 1s-.22.9-.48.88-.49-.46-.49-1 .22-.9.49-.88Z" transform="translate(-29.48 -213.83)"/>
    <path fill="url(#bj)" d="M68.39 479.16c.27 0 .5.45.5 1s-.23.91-.5.88-.5-.46-.5-1 .22-.91.5-.88Z" transform="translate(-29.48 -213.83)"/>
    <path fill="url(#bk)" d="M71.38 479.41c.28 0 .51.46.51 1s-.23.92-.51.89-.52-.47-.52-1 .23-.92.52-.89Z" transform="translate(-29.48 -213.83)"/>
    <path fill="url(#bl)" d="M74.45 479.67c.29 0 .53.46.53 1s-.24.94-.53.91-.53-.48-.53-1 .24-.94.53-.91Z" transform="translate(-29.48 -213.83)"/>
    <path fill="url(#bm)" d="M35.92 471.77c.2 0 .36.38.36.81s-.16.78-.36.77-.35-.38-.35-.81.16-.78.35-.77Z" transform="translate(-29.48 -213.83)"/>
    <path fill="url(#bn)" d="M38.07 471.9c.2 0 .37.37.37.82s-.17.79-.37.77-.37-.38-.37-.82.17-.79.37-.77Z" transform="translate(-29.48 -213.83)"/>
    <path fill="url(#bo)" d="M40.26 472c.21 0 .38.38.38.82s-.17.8-.38.79-.37-.39-.37-.83.16-.78.37-.78Z" transform="translate(-29.48 -213.83)"/>
    <path fill="url(#bp)" d="M42.51 472.16c.21 0 .39.38.39.84s-.18.8-.39.79-.38-.39-.38-.84.17-.81.38-.79Z" transform="translate(-29.48 -213.83)"/>
    <path fill="url(#bq)" d="M44.81 472.29c.22 0 .4.39.4.85s-.18.82-.4.8-.39-.39-.39-.85.18-.81.39-.8Z" transform="translate(-29.48 -213.83)"/>
    <path fill="url(#br)" d="M47.17 472.43c.23 0 .41.4.41.86s-.18.83-.41.81-.4-.4-.4-.86.23-.83.4-.81Z" transform="translate(-29.48 -213.83)"/>
    <path fill="url(#bs)" d="M49.59 472.57c.23 0 .41.4.41.87s-.18.84-.41.82-.41-.4-.41-.87.18-.84.41-.82Z" transform="translate(-29.48 -213.83)"/>
    <path fill="url(#bt)" d="M52.07 472.71c.23 0 .43.41.43.88s-.2.85-.43.84-.42-.41-.42-.89.18-.84.42-.83Z" transform="translate(-29.48 -213.83)"/>
    <path fill="url(#bu)" d="M54.62 472.86c.23 0 .43.42.43.9s-.2.86-.43.84-.44-.42-.44-.9.19-.86.44-.84Z" transform="translate(-29.48 -213.83)"/>
    <path fill="url(#bv)" d="M57.23 473c.24 0 .45.41.45.9s-.21.87-.45.85-.45-.42-.45-.9.22-.85.45-.85Z" transform="translate(-29.48 -213.83)"/>
    <path fill="url(#bw)" d="M59.91 473.17c.25 0 .45.42.45.92s-.2.88-.45.87-.46-.44-.46-.93.2-.88.46-.86Z" transform="translate(-29.48 -213.83)"/>
    <path fill="url(#bx)" d="M62.66 473.33c.26 0 .47.43.47.93s-.21.89-.47.88-.47-.44-.47-.94.21-.89.47-.87Z" transform="translate(-29.48 -213.83)"/>
    <path fill="url(#by)" d="M65.49 473.49c.26 0 .48.44.48.95s-.22.9-.48.89-.49-.45-.49-.95.22-.9.49-.89Z" transform="translate(-29.48 -213.83)"/>
    <path fill="url(#bz)" d="M68.39 473.66c.27 0 .5.45.5 1s-.23.92-.5.9-.5-.45-.5-1 .22-.91.5-.9Z" transform="translate(-29.48 -213.83)"/>
    <path fill="url(#ca)" d="M71.38 473.84c.28 0 .51.45.51 1s-.23.93-.51.91-.52-.45-.52-1 .23-.93.52-.91Z" transform="translate(-29.48 -213.83)"/>
    <path fill="url(#cb)" d="M74.45 474c.29 0 .53.46.53 1s-.24.95-.53.93-.53-.46-.53-1 .24-.93.53-.93Z" transform="translate(-29.48 -213.83)"/>
    <path fill="url(#cc)" d="M35.92 467.11c.2 0 .36.37.36.8s-.16.79-.36.78-.35-.37-.35-.8.16-.78.35-.78Z" transform="translate(-29.48 -213.83)"/>
    <path fill="url(#cd)" d="M38.07 467.18c.2 0 .37.37.37.81s-.17.8-.37.79-.37-.37-.37-.81.17-.79.37-.79Z" transform="translate(-29.48 -213.83)"/>
    <path fill="url(#ce)" d="M40.26 467.26c.21 0 .38.37.38.82s-.17.8-.38.79-.37-.38-.37-.82.16-.8.37-.79Z" transform="translate(-29.48 -213.83)"/>
    <path fill="url(#cf)" d="M42.51 467.33c.21 0 .39.38.39.83s-.18.81-.39.8-.38-.38-.38-.83.17-.81.38-.8Z" transform="translate(-29.48 -213.83)"/>
    <path fill="url(#cg)" d="M44.81 467.4c.22 0 .4.39.4.84s-.18.83-.4.82-.39-.39-.39-.85.18-.81.39-.81Z" transform="translate(-29.48 -213.83)"/>
    <path fill="url(#ch)" d="M47.17 467.48c.23 0 .41.39.41.85s-.18.83-.41.82-.4-.39-.4-.85.23-.82.4-.82Z" transform="translate(-29.48 -213.83)"/>
    <path fill="url(#ci)" d="M49.59 467.56c.23 0 .41.39.41.86s-.18.84-.41.84-.41-.4-.41-.87.18-.84.41-.83Z" transform="translate(-29.48 -213.83)"/>
    <path fill="url(#cj)" d="M52.07 467.64c.23 0 .43.4.43.87s-.2.86-.43.85-.42-.4-.42-.88.18-.85.42-.84Z" transform="translate(-29.48 -213.83)"/>
    <path fill="url(#ck)" d="M54.62 467.72c.23 0 .43.4.43.89s-.2.86-.43.85-.44-.41-.44-.89.19-.86.44-.85Z" transform="translate(-29.48 -213.83)"/>
    <path fill="url(#cl)" d="M57.23 467.8c.24 0 .45.42.45.9s-.21.88-.45.87-.45-.42-.45-.9.22-.87.45-.87Z" transform="translate(-29.48 -213.83)"/>
    <path fill="url(#cm)" d="M59.91 467.9c.25 0 .45.41.45.9s-.2.89-.45.88-.46-.42-.46-.91.2-.89.46-.87Z" transform="translate(-29.48 -213.83)"/>
    <path fill="url(#cn)" d="M62.66 468c.26 0 .47.43.47.93s-.21.89-.47.88-.47-.42-.47-.92.21-.89.47-.89Z" transform="translate(-29.48 -213.83)"/>
    <path fill="url(#co)" d="M65.49 468.08c.26 0 .48.42.48.93s-.22.91-.48.9-.49-.43-.49-.91.22-.93.49-.92Z" transform="translate(-29.48 -213.83)"/>
    <path fill="url(#cp)" d="M68.39 468.17c.27 0 .5.43.5.95s-.23.92-.5.91-.5-.44-.5-.95.22-.92.5-.91Z" transform="translate(-29.48 -213.83)"/>
    <path fill="url(#cq)" d="M71.38 468.27c.28 0 .51.44.51 1s-.23.93-.51.92-.52-.44-.52-1 .23-.93.52-.92Z" transform="translate(-29.48 -213.83)"/>
    <path fill="url(#cr)" d="M74.45 468.37c.29 0 .53.44.53 1s-.24 1-.53.94-.53-.45-.53-1 .24-.95.53-.94Z" transform="translate(-29.48 -213.83)"/>
    <path fill="url(#cs)" d="M35.92 462.46c.2 0 .36.35.36.79s-.16.78-.36.78-.35-.36-.35-.79.16-.78.35-.78Z" transform="translate(-29.48 -213.83)"/>
    <path fill="url(#ct)" d="M38.07 462.47c.2 0 .37.36.37.8s-.17.8-.37.79-.37-.36-.37-.79.17-.8.37-.8Z" transform="translate(-29.48 -213.83)"/>
    <path fill="url(#cu)" d="M40.26 462.49c.21 0 .38.36.38.81s-.17.8-.38.8-.37-.37-.37-.81.16-.8.37-.8Z" transform="translate(-29.48 -213.83)"/>
    <path fill="url(#cv)" d="M42.51 462.5c.21 0 .39.37.39.82s-.18.81-.39.81-.38-.37-.38-.82.17-.81.38-.81Z" transform="translate(-29.48 -213.83)"/>
    <path fill="url(#cw)" d="M44.81 462.52c.22 0 .4.37.4.83s-.18.82-.4.82-.39-.38-.39-.83.18-.82.39-.82Z" transform="translate(-29.48 -213.83)"/>
    <path fill="url(#cx)" d="M47.17 462.54c.23 0 .41.37.41.84s-.18.83-.41.83-.4-.38-.4-.84.23-.84.4-.83Z" transform="translate(-29.48 -213.83)"/>
    <path fill="url(#cy)" d="M49.59 462.55c.23 0 .41.38.41.85s-.18.84-.41.84-.41-.38-.41-.85.18-.85.41-.84Z" transform="translate(-29.48 -213.83)"/>
    <path fill="url(#cz)" d="M52.07 462.57c.23 0 .43.38.43.86s-.2.85-.43.85-.42-.39-.42-.86.18-.85.42-.85Z" transform="translate(-29.48 -213.83)"/>
    <path fill="url(#da)" d="M54.62 462.58c.23 0 .43.39.43.88s-.2.86-.43.86-.44-.39-.44-.87.19-.87.44-.87Z" transform="translate(-29.48 -213.83)"/>
    <path fill="url(#db)" d="M57.23 462.6c.24 0 .45.4.45.88s-.21.89-.45.88-.45-.4-.45-.89.22-.87.45-.87Z" transform="translate(-29.48 -213.83)"/>
    <path fill="url(#dc)" d="M59.91 462.62c.25 0 .45.4.45.9s-.2.89-.45.88-.46-.4-.46-.89.2-.89.46-.89Z" transform="translate(-29.48 -213.83)"/>
    <path fill="url(#dd)" d="M62.66 462.64c.26 0 .47.4.47.9s-.21.91-.47.91-.47-.42-.47-.91.21-.9.47-.9Z" transform="translate(-29.48 -213.83)"/>
    <path fill="url(#de)" d="M65.49 462.65c.26 0 .48.42.48.93s-.22.91-.48.91-.49-.42-.49-.92.22-.92.49-.92Z" transform="translate(-29.48 -213.83)"/>
    <path fill="url(#df)" d="M68.39 462.68c.27 0 .5.42.5.93s-.23.93-.5.92-.5-.42-.5-.93.22-.93.5-.92Z" transform="translate(-29.48 -213.83)"/>
    <path fill="url(#dg)" d="M71.38 462.7c.28 0 .51.42.51.94s-.23.94-.51.94-.52-.43-.52-.95.23-.93.52-.93Z" transform="translate(-29.48 -213.83)"/>
    <path fill="url(#dh)" d="M74.45 462.72c.29 0 .53.43.53 1s-.24.95-.53.95-.53-.43-.53-1 .24-.95.53-.95Z" transform="translate(-29.48 -213.83)"/>
    <path fill="url(#di)" d="M35.92 457.8c.2 0 .36.35.36.78s-.16.79-.36.8-.35-.35-.35-.79.16-.79.35-.79Z" transform="translate(-29.48 -213.83)"/>
    <path fill="url(#dj)" d="M38.07 457.76c.2 0 .37.35.37.79s-.17.8-.37.8-.37-.35-.37-.79.17-.8.37-.8Z" transform="translate(-29.48 -213.83)"/>
    <path fill="url(#dk)" d="M40.26 457.71c.21 0 .38.36.38.81s-.17.81-.38.81-.37-.36-.37-.8.16-.81.37-.82Z" transform="translate(-29.48 -213.83)"/>
    <path fill="url(#dl)" d="M42.51 457.67c.21 0 .39.37.39.81s-.18.82-.39.83-.38-.36-.38-.82.17-.81.38-.82Z" transform="translate(-29.48 -213.83)"/>
    <path fill="url(#dm)" d="M44.81 457.63c.22 0 .4.36.4.82s-.18.83-.4.83-.39-.36-.39-.82.18-.83.39-.83Z" transform="translate(-29.48 -213.83)"/>
    <path fill="url(#dn)" d="M47.17 457.59c.23 0 .41.36.41.83s-.18.84-.41.84-.4-.37-.4-.83.23-.84.4-.84Z" transform="translate(-29.48 -213.83)"/>
    <path fill="url(#do)" d="M49.59 457.54c.23 0 .41.37.41.84s-.18.85-.41.85-.41-.37-.41-.84.18-.85.41-.85Z" transform="translate(-29.48 -213.83)"/>
    <path fill="url(#dp)" d="M52.07 457.49c.23 0 .43.38.43.85s-.2.87-.43.87-.42-.38-.42-.85.18-.87.42-.87Z" transform="translate(-29.48 -213.83)"/>
    <path fill="url(#dq)" d="M54.62 457.45c.23 0 .43.38.43.86s-.2.87-.43.87-.44-.38-.44-.86.19-.87.44-.87Z" transform="translate(-29.48 -213.83)"/>
    <path fill="url(#dr)" d="M57.23 457.39c.24 0 .45.39.45.88s-.21.88-.45.88-.45-.38-.45-.87.22-.88.45-.89Z" transform="translate(-29.48 -213.83)"/>
    <path fill="url(#ds)" d="M59.91 457.34c.25 0 .45.39.45.89s-.2.9-.45.9-.46-.4-.46-.89.2-.89.46-.9Z" transform="translate(-29.48 -213.83)"/>
    <path fill="url(#dt)" d="M62.66 457.29c.26 0 .47.4.47.9s-.21.91-.47.91-.47-.4-.47-.9.21-.9.47-.91Z" transform="translate(-29.48 -213.83)"/>
    <path fill="url(#du)" d="M65.49 457.23c.26 0 .48.41.48.92s-.22.92-.48.92-.49-.4-.49-.91.22-.92.49-.93Z" transform="translate(-29.48 -213.83)"/>
    <path fill="url(#dv)" d="M68.39 457.18c.27 0 .5.41.5.92s-.23.94-.5.94-.5-.41-.5-.92.22-.93.5-.94Z" transform="translate(-29.48 -213.83)"/>
    <path fill="url(#dw)" d="M71.38 457.13c.28 0 .51.41.51.93s-.23.95-.51.95-.52-.41-.52-.94.23-.94.52-.94Z" transform="translate(-29.48 -213.83)"/>
    <path fill="url(#dx)" d="M74.45 457.07c.29 0 .53.42.53.95s-.24 1-.53 1-.53-.42-.53-1 .24-.95.53-.95Z" transform="translate(-29.48 -213.83)"/>
    <path fill="url(#dy)" d="M35.92 453.14c.2 0 .36.34.36.77s-.16.8-.36.8-.35-.33-.35-.76.16-.8.35-.81Z" transform="translate(-29.48 -213.83)"/>
    <path fill="url(#dz)" d="M38.07 453.05c.2 0 .37.33.37.78s-.17.8-.37.81-.37-.34-.37-.78.17-.81.37-.81Z" transform="translate(-29.48 -213.83)"/>
    <path fill="url(#ea)" d="M40.26 453c.21 0 .38.34.38.79s-.17.81-.38.82-.37-.35-.37-.79.16-.82.37-.82Z" transform="translate(-29.48 -213.83)"/>
    <path fill="url(#eb)" d="M42.51 452.84c.21 0 .39.36.39.81s-.18.82-.39.83-.38-.35-.38-.8.17-.82.38-.84Z" transform="translate(-29.48 -213.83)"/>
    <path fill="url(#ec)" d="M44.81 452.74c.22 0 .4.36.4.81s-.18.84-.4.85-.39-.36-.39-.82.18-.83.39-.84Z" transform="translate(-29.48 -213.83)"/>
    <path fill="url(#ed)" d="M47.17 452.64c.23 0 .41.36.41.82s-.18.84-.41.85-.4-.36-.4-.82.23-.84.4-.85Z" transform="translate(-29.48 -213.83)"/>
    <path fill="url(#ee)" d="M49.59 452.53c.23 0 .41.36.41.83s-.18.86-.41.86-.41-.36-.41-.83.18-.85.41-.86Z" transform="translate(-29.48 -213.83)"/>
    <path fill="url(#ef)" d="M52.07 452.42c.23 0 .43.36.43.84s-.2.87-.43.87-.42-.36-.42-.84.18-.86.42-.87Z" transform="translate(-29.48 -213.83)"/>
    <path fill="url(#eg)" d="M54.62 452.3c.23 0 .43.38.43.86s-.2.88-.43.89-.44-.38-.44-.86.19-.88.44-.89Z" transform="translate(-29.48 -213.83)"/>
    <path fill="url(#eh)" d="M57.23 452.19c.24 0 .45.37.45.86s-.21.89-.45.9-.45-.38-.45-.86.22-.89.45-.9Z" transform="translate(-29.48 -213.83)"/>
    <path fill="url(#ei)" d="M59.91 452.07c.25 0 .45.38.45.87s-.2.9-.45.91-.46-.38-.46-.87.2-.9.46-.91Z" transform="translate(-29.48 -213.83)"/>
    <path fill="url(#ej)" d="M62.66 452c.26 0 .47.38.47.88s-.21.91-.47.93-.47-.39-.47-.89.21-.92.47-.92Z" transform="translate(-29.48 -213.83)"/>
    <path fill="url(#ek)" d="M65.49 451.82c.26 0 .48.39.48.9s-.22.92-.48.93-.49-.39-.49-.89.22-.93.49-.94Z" transform="translate(-29.48 -213.83)"/>
    <path fill="url(#el)" d="M68.39 451.69c.27 0 .5.39.5.91s-.23.94-.5.95-.5-.4-.5-.91.22-.94.5-.95Z" transform="translate(-29.48 -213.83)"/>
    <path fill="url(#em)" d="M71.38 451.56c.28 0 .51.39.51.92s-.23.95-.51 1-.52-.4-.52-.92.23-.99.52-1Z" transform="translate(-29.48 -213.83)"/>
    <path fill="url(#en)" d="M74.45 451.42c.29 0 .53.4.53.93s-.24 1-.53 1-.53-.41-.53-.93.24-.99.53-1Z" transform="translate(-29.48 -213.83)"/>
    <path fill="url(#eo)" d="m94.9 250.66-16.63-.21-8.88 13.88-11.91-.83-6.23-11.11-27.82-.61-2.82 5.6-7.09-.36v.57l7.2.39 2.83-5.61 27.55.7 6.21 11.12 12.26.88 8.9-13.86 16.2.25L111.11 276l53.28 5.34 18.79 23.95 8.17 1.33 14.91 18.63 30.32 6.2 45.2 53.01 1.11-.63-45.78-53.5-30.4-6.13-14.94-18.61-8.19-1.3-18.84-23.93-53.38-5.19-16.46-24.51z" style="mix-blend-mode:multiply"/>
    <path fill="url(#ep)" d="M43 470.07c-.27 0-.5.45-.5 1s.23 1.07.5 1.08.51-.44.51-1-.21-1.06-.51-1.08Z" style="mix-blend-mode:multiply" transform="translate(-29.48 -213.83)"/>
    <path fill="url(#eq)" d="M313.81 596.65c1.17 1.36 1.17 3 0 3.66s-3 .09-4.18-1.27-1.14-3 0-3.62 3.02-.12 4.18 1.23Z" style="mix-blend-mode:multiply" transform="translate(-29.48 -213.83)"/>
    <path fill="url(#er)" d="m299.35 65.33-34.07 41.72-21.24 6.77-32.51 41.3-13.96 3.33-17.89-14.86-20.37 5.97-17.88 26.56-24.36 5.5-10.65-12.14-21.23 5.89-9.74 17.64-16.44 3.57-1.74-2.59-9.41 2.17-3.81 7.7-17.79 3.55-2.41-4.31-11.2 2.51v.56l11.08-2.45 2.41 4.31 18.06-3.54 3.82-7.7 9.08-2.07 1.74 2.6 16.8-3.6 9.76-17.63 20.77-5.7 10.63 12.16 24.95-5.56 17.92-26.54 19.61-5.69 17.86 14.91 14.86-3.51 32.59-41.26 21.29-6.73 34.67-42.3-1.2-.54z" style="mix-blend-mode:multiply"/>
    <path fill="url(#es)" d="M42.15 418.65c-.27.06-.5.59-.5 1.17s.23 1 .5.94.49-.58.49-1.16-.22-1.01-.49-.95Z" style="mix-blend-mode:multiply" transform="translate(-29.48 -213.83)"/>
    <path fill="url(#et)" d="M327.07 278.54c1.23-1.52 3.26-2.31 4.51-1.74s1.26 2.27 0 3.8-3.28 2.28-4.51 1.71-1.23-2.26 0-3.77Z" style="mix-blend-mode:multiply" transform="translate(-29.48 -213.83)"/>
    <path fill="url(#eu)" d="m472.3 71.2-51.25 45.5-147.66 32.41-29.76 32.98-35.63 5.57-17.07 20.43-22.07 2.38-10.43-10.97-17.54 2.52-8.2 11.53-18.33 2.02-4.47-5.66L92 212.27l-9.78 15.89-19.66 1.47-7.03-11.27-11.18 1.41-7.65 14.87L14.07 236v.57l22.77-1.31 7.66-14.85 10.87-1.35 7.01 11.3 20.05-1.45 9.79-15.88 17.42-2.24 4.46 5.67 18.89-2.02 8.21-11.52 16.88-2.38 10.42 10.99 22.85-2.39 17.12-20.4 35.7-5.47 29.84-32.95 148.15-32.07 52.38-46.28-2.24-.77z" style="mix-blend-mode:multiply"/>
    <path fill="url(#ev)" d="M43.57 449.05c-.27 0-.5.51-.5 1.1s.23 1 .5 1 .51-.5.51-1.1-.23-1.05-.51-1Z" style="mix-blend-mode:multiply" transform="translate(-29.48 -213.83)"/>
    <path fill="url(#ew)" d="M498.5 284.17c2.3-2.06 6.08-3.11 8.41-2.32s2.37 3.13 0 5.2-6.11 3.06-8.41 2.24-2.28-3.08 0-5.12Z" style="mix-blend-mode:multiply" transform="translate(-29.48 -213.83)"/>
    <path fill="url(#ex)" d="m107.65 222.54-14.01 1.24-8.73 13.72-25.41.97-6.01-9.99-7.11.59-8.39 15.81-14.5.16-3.24 6.55-6.07-.13v.56l6.19.15 3.24-6.53 14.52-.13 8.4-15.79 6.8-.54 6 10 25.79-.91 8.74-13.7 13.54-1.16 8.21 10.9 29.59-1.34 9.77-12.6 46.64-3.83 34.33 33.51 91.08.59 24.77 19.82 1.46-1.06-25.45-20.26-91.34-.32-34.41-33.44-47.42 4.03-9.75 12.61-29 1.4-8.23-10.88z" style="mix-blend-mode:multiply"/>
    <path fill="url(#ey)" d="M43.69 464.5c-.28 0-.51.47-.51 1.06s.23 1.07.51 1.07.5-.46.5-1.05-.19-1.07-.5-1.08Z" style="mix-blend-mode:multiply" transform="translate(-29.48 -213.83)"/>
    <path fill="url(#ez)" d="M384.65 481.66a2.49 2.49 0 0 1 0 4.22 4.89 4.89 0 0 1-5.56-.26 2.49 2.49 0 0 1 0-4.18 4.87 4.87 0 0 1 5.56.22Z" style="mix-blend-mode:multiply" transform="translate(-29.48 -213.83)"/>
    <path fill="url(#fa)" d="m45.21 224.92-6.97 13.34-15.19.65-3.75 7.74-4.81.01v.57h4.92l3.77-7.73 15.2-.61 7.08-13.53-.25-.44z" style="mix-blend-mode:multiply"/>
    <path fill="url(#fb)" d="M44 459.71c-.28 0-.5.48-.5 1.07s.22 1.06.5 1.06.51-.47.51-1.06-.24-1.07-.51-1.07Z" style="mix-blend-mode:multiply" transform="translate(-29.48 -213.83)"/>
    <path fill="url(#fc)" d="M74.31 438.19c.26-.51.69-.56 1-.11a2 2 0 0 1 0 1.77c-.27.5-.7.54-1 .09a2 2 0 0 1 0-1.75Z" style="mix-blend-mode:multiply" transform="translate(-29.48 -213.83)"/>
    <path fill="url(#fd)" d="m105.3 230.78-12.53.75-8.84 13.68-25.06.22-5.93-10.07-4.71.25-5.16 9.49.26.46 5.06-9.29 4.39-.22 5.92 10.07 25.44-.13 8.85-13.67 12.07-.68 10.04 13.73 32.95-.24v-.97l-32.69.33-10.06-13.71z" style="mix-blend-mode:multiply"/>
    <path fill="url(#fe)" d="M72.23 458.25a2 2 0 0 0 0 1.73c.26.48.68.48 1 0a2 2 0 0 0 0-1.74c-.32-.47-.74-.47-1 .01Z" style="mix-blend-mode:multiply" transform="translate(-29.48 -213.83)"/>
    <path fill="url(#ff)" d="M177.45 456.66a1.65 1.65 0 0 1 1.48 1.8 1.69 1.69 0 0 1-1.48 1.84 1.67 1.67 0 0 1-1.47-1.81 1.69 1.69 0 0 1 1.47-1.83Z" style="mix-blend-mode:multiply" transform="translate(-29.48 -213.83)"/>
    <path fill="url(#fg)" d="m54.24 246.13-5.16.03v.67l5-.01 4 6.95 12.16.33v-.73l-12-.3-4-6.94z" style="mix-blend-mode:multiply"/>
    <path fill="url(#fh)" d="M78.6 459.06c-.4 0-.71.57-.71 1.26s.31 1.26.71 1.26.71-.56.71-1.26-.31-1.26-.71-1.26Z" style="mix-blend-mode:multiply" transform="translate(-29.48 -213.83)"/>
    <path fill="url(#fi)" d="M99.67 466.18c.47 0 .85.63.85 1.4s-.38 1.37-.85 1.36-.84-.65-.84-1.4.37-1.37.84-1.36Z" style="mix-blend-mode:multiply" transform="translate(-29.48 -213.83)"/>
    <path fill="url(#fj)" d="m98.46 241.13-.4.59 16.1 23.18 65.29 3.96 24.03 28.48 60.18 7.94 30 31.21 45.16 8.59 39.09 37.75 90.77 22.26v-1.94l-89.81-21.75-39.22-37.7-45.31-8.49-30.08-31.16-60.33-7.79-24.09-28.44-65.42-3.77-15.96-22.92z" style="mix-blend-mode:multiply"/>
    <path fill="url(#fk)" d="M128.52 454.21a.84.84 0 0 0-1.49 0 2.07 2.07 0 0 0 0 2.17.84.84 0 0 0 1.49 0 2.09 2.09 0 0 0 0-2.17Z" style="mix-blend-mode:multiply" transform="translate(-29.48 -213.83)"/>
    <path fill="url(#fl)" d="M497.86 614.25c3.24.77 5.9 3 5.9 5.06s-2.66 3-5.9 2.19-5.82-3.06-5.82-5 2.59-3.01 5.82-2.25Z" style="mix-blend-mode:multiply" transform="translate(-29.48 -213.83)"/>
    <path fill="url(#fm)" d="m104.83 238.2-.42.61 14.88 20.78 33.88 1.4 11.73-13.75 25.34-.01 22.02 24.01 72.55 4.48v-1.38l-72.08-4.23-22.08-23.98-26.11.09L152.83 260l-33.27-1.28-14.73-20.52z" style="mix-blend-mode:multiply"/>
    <path fill="url(#fn)" d="M134.92 451.25a.9.9 0 0 0-1.57.06 2.11 2.11 0 0 0 0 2.22.9.9 0 0 0 1.57 0 2.09 2.09 0 0 0 0-2.28Z" style="mix-blend-mode:multiply" transform="translate(-29.48 -213.83)"/>
    <path fill="url(#fo)" d="M314.13 486.26a3 3 0 0 1 3 2.77 2.62 2.62 0 0 1-3 2.41 3 3 0 0 1-3-2.77 2.61 2.61 0 0 1 3-2.41Z" style="mix-blend-mode:multiply" transform="translate(-29.48 -213.83)"/>
    <path fill="url(#fp)" d="m183.55 256.13-14.96-.37v1.03l14.56.4 22.13 25.22 84.74 7.82 27.19 25.81 44.62 6.23 28.75 25.34 1.7-.9-29.55-25.93-44.76-6.11-27.28-25.77-84.96-7.58-22.18-25.19z" style="mix-blend-mode:multiply"/>
    <path fill="url(#fq)" d="M198.15 468.17a1.76 1.76 0 0 0-1.66 1.89 1.87 1.87 0 0 0 1.66 2 1.76 1.76 0 0 0 1.68-1.89 1.87 1.87 0 0 0-1.68-2Z" style="mix-blend-mode:multiply" transform="translate(-29.48 -213.83)"/>
    <path fill="url(#fr)" d="M424 559.15c1.8 1.56 1.8 3.6 0 4.53s-4.66.41-6.42-1.15-1.74-3.55 0-4.49 4.6-.44 6.42 1.11Z" style="mix-blend-mode:multiply" transform="translate(-29.48 -213.83)"/>
    <path fill="url(#fs)" d="m199.49 225.12-38.63 2.3-9.14 11.39-23.28.61v.91l23.61-.55 9.16-11.38 37.85-2.14 30.24 30.51 67.72 1.58v-1.42l-67.21-1.36-30.32-30.45z" style="mix-blend-mode:multiply"/>
    <path fill="url(#ft)" d="M158 452a1.6 1.6 0 0 0-1.3 1.74c0 .94.58 1.69 1.3 1.68a1.58 1.58 0 0 0 1.3-1.74c-.02-.96-.6-1.68-1.3-1.68Z" style="mix-blend-mode:multiply" transform="translate(-29.48 -213.83)"/>
    <path fill="url(#fu)" d="M326.34 468.8a3 3 0 0 1 3.17 2.73 2.86 2.86 0 0 1-3.17 2.59 3 3 0 0 1-3.13-2.73 2.86 2.86 0 0 1 3.13-2.59Z" style="mix-blend-mode:multiply" transform="translate(-29.48 -213.83)"/>
    <path fill="url(#fv)" d="m194.59 234.92-31.13 1.05-11.96 14.5-28.89-.28v.9l29.22.36 11.99-14.48 30.35-.94 26.46 27.77 84.27 3.49 43.74 38.13 45.21 5.01v-1.7l-44.35-4.79-43.88-38.06-84.5-3.25-26.53-27.71z" style="mix-blend-mode:multiply"/>
    <path fill="url(#fw)" d="M152.15 462.79c-.69 0-1.25.74-1.25 1.66a1.55 1.55 0 0 0 1.25 1.7c.69 0 1.25-.74 1.25-1.67s-.56-1.69-1.25-1.69Z" style="mix-blend-mode:multiply" transform="translate(-29.48 -213.83)"/>
    <path fill="url(#fx)" d="M423.1 520.19c2.54.26 4.61 1.92 4.61 3.7s-2.07 3-4.61 2.7-4.54-2-4.54-3.7 2.03-2.97 4.54-2.7Z" style="mix-blend-mode:multiply" transform="translate(-29.48 -213.83)"/>
    <path fill="url(#fy)" d="m175.19 274.52-59.77-4.63v.87l59.38 4.78 30.18 36.82 37.32 6.39 28.08 31.62 53.49 12.37 42.91 44.21 1.56-.69-43.7-44.83L271 349.17l-28.15-31.58-37.42-6.29-30.24-36.78z" style="mix-blend-mode:multiply"/>
    <path fill="url(#fz)" d="M145 482.52c-.66 0-1.18.65-1.18 1.54a1.61 1.61 0 0 0 1.18 1.73c.66.06 1.2-.63 1.2-1.54a1.62 1.62 0 0 0-1.2-1.73Z" style="mix-blend-mode:multiply" transform="translate(-29.48 -213.83)"/>
    <path fill="url(#ga)" d="M399.85 619c1.65 1.69 1.65 3.64 0 4.35s-4.28-.08-5.89-1.75-1.6-3.57 0-4.3 4.25 0 5.89 1.7Z" style="mix-blend-mode:multiply" transform="translate(-29.48 -213.83)"/>
    <path fill="url(#gb)" d="m22.45 208.98-8.99 1.76v.56l8.86-1.71 3.46 6.33 17.12-2.69v-.65l-17 2.72-3.45-6.32z" style="mix-blend-mode:multiply"/>
    <path fill="url(#gc)" d="M43 423.78c-.28.06-.5.57-.5 1.16s.22 1 .5 1 .5-.57.5-1.16-.27-1.06-.5-1Z" style="mix-blend-mode:multiply" transform="translate(-29.48 -213.83)"/>
    <path fill="url(#gd)" d="M72.35 425.51c.37-.06.67.44.67 1.12s-.3 1.28-.67 1.33-.67-.44-.67-1.11.32-1.27.67-1.34Z" style="mix-blend-mode:multiply" transform="translate(-29.48 -213.83)"/>
    <path fill="url(#ge)" d="m416.29 93.85-175.42 45.59-21.86 26.63-22.15 4.58-13.84-11.98-18.57 4.61-15.6 22.18-32.72 6.27-12.78-15.05-17.38 4.43-8.3 14.79-27.98 5.72-3.21 6.35-15.09 2.69v.62l15.25-2.68 3.21-6.35 28.02-5.64 8.32-14.78 16.92-4.26 12.75 15.09 33.32-6.29 15.63-22.16 17.81-4.38 13.82 12.02 23.05-4.7 21.92-26.6 174.88-44.93v-1.77z" style="mix-blend-mode:multiply"/>
    <path fill="url(#gf)" d="M60.9 423.63c-.33.06-.6.63-.6 1.26s.27 1.12.6 1.06.6-.62.6-1.27-.26-1.11-.6-1.05Z" style="mix-blend-mode:multiply" transform="translate(-29.48 -213.83)"/>
    <path fill="url(#gg)" d="M445.52 305.29c2.75-.73 5 .19 5 2s-2.25 3.91-5 4.61-4.9-.23-4.9-2.06 2.18-3.84 4.9-4.55Z" style="mix-blend-mode:multiply" transform="translate(-29.48 -213.83)"/>
    <path fill="url(#gh)" d="m409.09 105.36-139.78 34.02-32.02 36.52-35.65 6.19-10.29 12.68-18.1 2.6-7.51-7.51-28.01 4.74-6.62 9.56-5.93.85-5.07-6.02-28.27 4.64L82 219.97l-15.56 1.66-5.91-9.14-12.9 1.92v.66l12.73-1.85 5.9 9.15 15.94-1.66 9.86-16.31 27.78-4.48 5.05 6.02 6.51-.9 6.64-9.55 27.34-4.55 7.49 7.53 18.9-2.66 10.31-12.66 35.74-6.1 32.11-36.48 139.16-33.46v-1.75z" style="mix-blend-mode:multiply"/>
    <path fill="url(#gi)" d="M77.14 427.31c-.38.06-.7.66-.7 1.35s.32 1.21.7 1.16.7-.67.7-1.36-.31-1.21-.7-1.15Z" style="mix-blend-mode:multiply" transform="translate(-29.48 -213.83)"/>
    <path fill="url(#gj)" d="M438.33 316.83c2.68-.66 4.86.29 4.86 2.11s-2.18 3.85-4.86 4.48-4.78-.34-4.78-2.14 2.12-3.8 4.78-4.45Z" style="mix-blend-mode:multiply" transform="translate(-29.48 -213.83)"/>
    <path fill="url(#gk)" d="m40.75 216.86-15.47 2.2-2.96 6.31-7.83.87v.57l7.96-.87 2.95-6.3 15.35-2.14v-.64z" style="mix-blend-mode:multiply"/>
    <path fill="url(#gl)" d="M44 439.29c-.28 0-.5.53-.5 1.12s.22 1 .5 1 .51-.54.51-1.13-.24-1.03-.51-.99Z" style="mix-blend-mode:multiply" transform="translate(-29.48 -213.83)"/>
    <path fill="url(#gm)" d="M70.2 429.8c.36-.05.66.45.66 1.13s-.3 1.25-.66 1.3-.66-.45-.66-1.12.29-1.25.66-1.31Z" style="mix-blend-mode:multiply" transform="translate(-29.48 -213.83)"/>
    <path fill="url(#gn)" d="m38.46 224.09-11.25 1.23-3.09 6.45-10.81.85v.56l10.93-.83 3.1-6.44 11.12-1.18v-.64z" style="mix-blend-mode:multiply"/>
    <path fill="url(#go)" d="M42.81 445.67c-.28 0-.5.51-.5 1.1s.22 1 .5 1 .5-.52.5-1.1-.23-1.02-.5-1Z" style="mix-blend-mode:multiply" transform="translate(-29.48 -213.83)"/>
    <path fill="url(#gp)" d="M67.9 437c.36 0 .64.47.64 1.13s-.28 1.23-.64 1.27-.64-.47-.64-1.13.29-1.19.64-1.27Z" style="mix-blend-mode:multiply" transform="translate(-29.48 -213.83)"/>
    <path fill="url(#gq)" d="m104.45 189.38-9.99 2.09-12.19 20.56-13.5 1.87-4.25-6.37-14.6 2.44v.67l14.42-2.36 4.24 6.37 13.9-1.87 12.2-20.55 9.77-2.01v-.84z" style="mix-blend-mode:multiply"/>
    <path fill="url(#gr)" d="M79.43 422.86c-.39.06-.71.68-.71 1.38s.32 1.21.71 1.15.72-.68.72-1.39-.32-1.21-.72-1.14Z" style="mix-blend-mode:multiply" transform="translate(-29.48 -213.83)"/>
    <path fill="url(#gs)" d="M133.87 402.07c.62-.13 1.11.47 1.11 1.34a1.79 1.79 0 0 1-1.11 1.81c-.6.12-1.09-.49-1.09-1.35a1.8 1.8 0 0 1 1.09-1.8Z" style="mix-blend-mode:multiply" transform="translate(-29.48 -213.83)"/>
    <path fill="url(#gt)" d="m89.33 190.25-9.78 16.88-8.66 1.38-4.2-6.15-14.43 2.69v.68l14.24-2.62 4.2 6.16 9.05-1.41 9.95-17.13-.37-.48z" style="mix-blend-mode:multiply"/>
    <path fill="url(#gu)" d="M81.77 417.93c-.4.08-.72.71-.72 1.42s.32 1.21.72 1.14.73-.71.73-1.42-.33-1.22-.73-1.14Z" style="mix-blend-mode:multiply" transform="translate(-29.48 -213.83)"/>
    <path fill="url(#gv)" d="M118.26 403.47c.39-.66 1-.8 1.4-.3a2 2 0 0 1 0 2.11c-.39.66-1 .79-1.4.3a2.09 2.09 0 0 1 0-2.11Z" style="mix-blend-mode:multiply" transform="translate(-29.48 -213.83)"/>
    <path fill="url(#gw)" d="m206.67 205.07-.78.89 28.24 26.47 102.5-3.76 42.19 31.3 1.63-1.14-43-31.73-102.8 4.08-27.98-26.11z" style="mix-blend-mode:multiply"/>
    <path fill="url(#gx)" d="M237.29 417.73a2 2 0 0 0-2.91.32 2.21 2.21 0 0 0 0 3 2 2 0 0 0 2.91-.3 2.21 2.21 0 0 0 0-3.02Z" style="mix-blend-mode:multiply" transform="translate(-29.48 -213.83)"/>
    <path fill="url(#gy)" d="M412.05 471a2.56 2.56 0 0 1 0 4.44 5.61 5.61 0 0 1-6.15-.15 2.56 2.56 0 0 1 0-4.4 5.65 5.65 0 0 1 6.15.11Z" style="mix-blend-mode:multiply" transform="translate(-29.48 -213.83)"/>
    <path fill="url(#gz)" d="m528.25 80.84-63.28 50.83-55.38 10.03-22.61 19.5-44 6.75-20.41-12.57-45.69 8.46-26.44 28.21-36.79 4.79v1.17l37.36-4.76 26.51-28.17 44.28-8.07 20.35 12.62 45.81-6.9 22.69-19.46 55.62-9.9 64.62-51.66-2.64-.87z" style="mix-blend-mode:multiply"/>
    <path fill="url(#ha)" d="M243.24 409.05a2.54 2.54 0 0 0-2.13 2.46 1.87 1.87 0 0 0 2.13 1.92 2.54 2.54 0 0 0 2.14-2.47 1.86 1.86 0 0 0-2.14-1.91Z" style="mix-blend-mode:multiply" transform="translate(-29.48 -213.83)"/>
    <path fill="url(#hb)" d="M553.86 293.68c2.73-2.2 7.16-3.27 9.94-2.38s2.77 3.44 0 5.65-7.21 3.22-9.94 2.3-2.68-3.4 0-5.57Z" style="mix-blend-mode:multiply" transform="translate(-29.48 -213.83)"/>
    <path fill="url(#hc)" d="m323.6 191.01-28.8 3.26-21.3 20.48-33.91 2.47-13.81-12.28-.85.94 14.13 12.62 35.07-2.46 21.36-20.44 27.34-3.01 24.81 17.13 40.66-2.94 26.16 16.61 1.86-1.33-27.03-17.05-40.79 3.07-24.9-17.07z" style="mix-blend-mode:multiply"/>
    <path fill="url(#hd)" d="M256.52 417.54a2.3 2.3 0 0 0-3.2.35 2.24 2.24 0 0 0 0 3.18 2.3 2.3 0 0 0 3.2-.33 2.23 2.23 0 0 0 0-3.2Z" style="mix-blend-mode:multiply" transform="translate(-29.48 -213.83)"/>
    <path fill="url(#he)" d="M448.21 433.93c1.94 1.22 1.94 3.35 0 4.73a6.75 6.75 0 0 1-7 .27c-1.89-1.22-1.89-3.3 0-4.68a6.77 6.77 0 0 1 7-.32Z" style="mix-blend-mode:multiply" transform="translate(-29.48 -213.83)"/>
    <path fill="url(#hf)" d="m371.3 216.23-58.99 3.37v1.47l58.06-3.14 53.76 36.35 1.92-1.25-54.75-36.8z" style="mix-blend-mode:multiply"/>
    <path fill="url(#hg)" d="M342 431.41c-1.84.11-3.33 1.42-3.33 2.93s1.49 2.65 3.33 2.56 3.39-1.41 3.39-2.94-1.58-2.67-3.39-2.55Z" style="mix-blend-mode:multiply" transform="translate(-29.48 -213.83)"/>
    <path fill="url(#hh)" d="M458 465c2 1.34 2 3.51 0 4.81a7 7 0 0 1-7.19-.1c-2-1.34-2-3.46 0-4.75a7 7 0 0 1 7.19.04Z" style="mix-blend-mode:multiply" transform="translate(-29.48 -213.83)"/>
    <path fill="url(#hi)" d="m341.87 179.71-68.79 9.02-11.81 12.05-22.85 2.45v1.23l23.45-2.44 11.84-12.03 67.33-8.62 19.88 12.8 46.53-4.62 84.37 49.31 2.37-1.44-85.67-49.72-46.69 4.78-19.96-12.77z" style="mix-blend-mode:multiply"/>
    <path fill="url(#hj)" d="M268 415.33a2.72 2.72 0 0 0-2.4 2.58A2.09 2.09 0 0 0 268 420a2.7 2.7 0 0 0 2.44-2.59 2.1 2.1 0 0 0-2.44-2.08Z" style="mix-blend-mode:multiply" transform="translate(-29.48 -213.83)"/>
    <path fill="url(#hk)" d="M526.75 449.09c2.51 1.44 2.51 3.85 0 5.36a9.57 9.57 0 0 1-8.92.09c-2.43-1.43-2.43-3.79 0-5.29a9.57 9.57 0 0 1 8.92-.16Z" style="mix-blend-mode:multiply" transform="translate(-29.48 -213.83)"/>
    <path fill="url(#hl)" d="m313.85 168.77-38.24 6.16-13.53 14.14 1.02.79 13.14-13.68 37.61-5.95v-1.46z" style="mix-blend-mode:multiply"/>
    <path fill="url(#hm)" d="M290.25 401.71a2.33 2.33 0 0 0 0 3.48 3 3 0 0 0 3.83-.5 2.3 2.3 0 0 0 0-3.5 3 3 0 0 0-3.83.52Z" style="mix-blend-mode:multiply" transform="translate(-29.48 -213.83)"/>
    <path fill="url(#hn)" d="M343.16 380.6c1.87-.31 3.4.68 3.4 2.21s-1.53 3-3.4 3.3-3.35-.71-3.35-2.22 1.5-2.98 3.35-3.29Z" style="mix-blend-mode:multiply" transform="translate(-29.48 -213.83)"/>
    <path fill="url(#ho)" d="m468.68 3.75-77.05 29.19L379.2 46.4l-62.49 22.68-38.12 44.73-34.4 10.14v1.26l35.05-10.23 38.22-44.69 62.69-22.58 12.49-13.45 76.04-28.58V3.75z" style="mix-blend-mode:multiply"/>
    <path fill="url(#hp)" d="M273.8 336a3.49 3.49 0 0 0-2.47 3.09 1.75 1.75 0 0 0 2.47 1.63 3.51 3.51 0 0 0 2.5-3.09 1.76 1.76 0 0 0-2.5-1.63Z" style="mix-blend-mode:multiply" transform="translate(-29.48 -213.83)"/>
    <path fill="url(#hq)" d="M497.86 215c3.24-1.24 5.9-.62 5.9 1.4s-2.66 4.65-5.9 5.85-5.82.56-5.82-1.42 2.59-4.56 5.82-5.83Z" style="mix-blend-mode:multiply" transform="translate(-29.48 -213.83)"/>
    <path fill="url(#hr)" d="M527.11 3.49 393.99 49.77l-10.93 11.44-53.42 17.85-35.07 39.39-42.16 11.59v1.28l42.85-11.65 35.17-39.37 53.61-17.74L395 51.13 527.11 5.59v-2.1z" style="mix-blend-mode:multiply"/>
    <path fill="url(#hs)" d="M282 342.07a3.52 3.52 0 0 0-2.56 3.11 1.84 1.84 0 0 0 2.56 1.71 3.54 3.54 0 0 0 2.61-3.12c.01-1.34-1.16-2.1-2.61-1.7Z" style="mix-blend-mode:multiply" transform="translate(-29.48 -213.83)"/>
    <path fill="url(#ht)" d="M556.24 214.53c3.87-1.36 7-.68 7 1.52s-3.17 5.07-7 6.4-6.9.59-6.9-1.57 3.06-5 6.9-6.35Z" style="mix-blend-mode:multiply" transform="translate(-29.48 -213.83)"/>
    <path fill="url(#hu)" d="m434.8 48.03-34.32 33.66-68.61 19.77v1.52l69.64-19.86 35.28-34.44-1.99-.65z" style="mix-blend-mode:multiply"/>
    <path fill="url(#hv)" d="M361.54 313.14c-2 .58-3.62 2.33-3.62 3.89s1.61 2.39 3.62 1.83 3.65-2.32 3.65-3.91-1.65-2.4-3.65-1.81Z" style="mix-blend-mode:multiply" transform="translate(-29.48 -213.83)"/>
    <path fill="url(#hw)" d="M461.38 261.16c2-2 5.37-3.12 7.45-2.46s2.09 2.86 0 4.9-5.42 3.08-7.45 2.4-2.03-2.84 0-4.84Z" style="mix-blend-mode:multiply" transform="translate(-29.48 -213.83)"/>
    <path fill="url(#hx)" d="m70.13 261.31-19.59-1.12-12.86 22.03-7.35-1.2-3.57-7.53-13.13-1.7v.36l13.05 1.72 3.57 7.52 7.51 1.25 12.89-22.01L70 261.77l7.96 13.4 26.71 2.94 9.75 14.98 30.87 4.88v-.61l-30.7-4.8-9.77-14.97-26.74-2.89-7.95-13.39z"/>
    <path fill="url(#hy)" d="M43.13 485c-.21 0-.38.31-.38.76s.17.83.38.86.38-.31.38-.76-.17-.86-.38-.86Z" transform="translate(-29.48 -213.83)"/>
    <path fill="url(#hz)" d="M174.72 510.1a1.53 1.53 0 0 1 1.11 1.56c0 .76-.5 1.3-1.11 1.21a1.55 1.55 0 0 1-1.11-1.56c0-.76.5-1.31 1.11-1.21Z" transform="translate(-29.48 -213.83)"/>
    <path d="m79.53 179.93-17.94 4.77-11.31 22.05-6.4 1.16-2.15-3.55-6.77 1.36v.39l6.67-1.31 2.16 3.54 6.59-1.18 11.32-22.04 17.7-4.67 4.7 6.13 33.09-7.78 11.68 13.19 39.54-7.22 16.17-21.72 178.84-42.02v-1.02l-179.1 42.41-16.15 21.74-39.12 7.22-11.7-13.18-33.12 7.85-4.7-6.12z" class="ic"/>
    <path d="M34.98 205c-.27.05-.48.5-.48 1s.21.86.48.81.48-.5.48-1-.22-.86-.48-.81Zm328.28-86.77c1.74-.42 3.16.29 3.16 1.58s-1.42 2.67-3.16 3.07-3.12-.31-3.12-1.59 1.38-2.64 3.12-3.06Z" class="ic"/>
    <path fill="url(#ia)" d="m298.85 83.18-96.27 33.4-26.71 37.46-49.97 13.32v.57l50.22-13.28 26.74-37.45 95.99-33.12v-.9z"/>
    <path fill="url(#ib)" d="M155.42 380.16a1.61 1.61 0 0 0-1 1.56c0 .71.43 1.18 1 1a1.6 1.6 0 0 0 1-1.55c-.01-.69-.42-1.17-1-1.01Z" transform="translate(-29.48 -213.83)"/>
    <path fill="url(#ic)" d="M328.2 295.46c1.35-.48 2.44.06 2.44 1.2a3.51 3.51 0 0 1-2.44 2.88c-1.33.46-2.42-.08-2.42-1.2a3.51 3.51 0 0 1 2.42-2.88Z" transform="translate(-29.48 -213.83)"/>
    <path fill="url(#id)" fill-rule="evenodd" d="m134.38 316.36-6.9-1.54v8.9l6.9 1.74v-9.1z" opacity=".7"/>
    <path fill="url(#ie)" fill-rule="evenodd" d="m144.08 318.53-7.34-1.64v9.17l7.34 1.85v-9.38z" opacity=".7"/>
    <path fill="url(#if)" fill-rule="evenodd" d="m177.19 325.92-8.93-1.99v10.1l8.93 2.25v-10.36z" opacity=".7"/>
    <path fill="url(#ig)" fill-rule="evenodd" d="m134.38 304.72-6.9-1.28v8.9l6.9 1.48v-9.1z" opacity=".7"/>
    <path fill="url(#ih)" fill-rule="evenodd" d="m154.4 308.43-7.82-1.45v9.46l7.82 1.69v-9.7z" opacity=".7"/>
    <path fill="url(#ii)" fill-rule="evenodd" d="m165.41 310.48-8.34-1.55v9.77l8.34 1.79v-10.01z" opacity=".7"/>
    <path fill="url(#ij)" fill-rule="evenodd" d="m177.19 312.66-8.93-1.65v10.1l8.93 1.92v-10.37z" opacity=".7"/>
    <path fill="url(#ik)" d="m208.33 597.46-9.3-3.58v-10.47l9.3 3.3v10.75m1 1.47V586l-11.21-4v12.57l11.19 4.34Z" class="b" transform="translate(-29.48 -213.83)"/>
    <path fill="url(#il)" d="m224.31 603.62-10.15-3.91v-10.93l10.15 3.6v11.24m1.06 1.55v-13.56l-12.2-4.29v13.11l12.2 4.74Z" class="b" transform="translate(-29.48 -213.83)"/>
    <path fill="url(#im)" d="m282.25 626-13.52-5.21v-12.63l13.52 4.8v13m1.42 1.87v-15.69l-16.26-5.73v15.1l16.26 6.32Z" class="b" transform="translate(-29.48 -213.83)"/>
    <path fill="url(#in)" d="m208.33 580.92-9.3-3.15v-10.48l9.3 2.87v10.76m1 1.42v-13L198.12 566v12.56l11.19 3.82Z" class="b" transform="translate(-29.48 -213.83)"/>
    <path fill="url(#io)" d="m241.79 592.25-11.11-3.76v-11.44l11.11 3.42v11.78m1.17 1.59v-14.21l-13.37-4.07v13.71l13.41 4.57Z" class="b" transform="translate(-29.48 -213.83)"/>
    <path fill="url(#ip)" d="m261 598.76-12.24-4.14v-12L261 586.4v12.36m1.28 1.69v-14.91l-14.71-4.49v14.38l14.71 5Z" class="b" transform="translate(-29.48 -213.83)"/>
    <path fill="url(#iq)" d="m282.25 606-13.52-4.58v-12.65l13.52 4.23v13m1.42 1.8v-15.7l-16.26-5v15.1l16.26 5.56Z" class="b" transform="translate(-29.48 -213.83)"/>
    <g fill-rule="evenodd" opacity=".4">
      <path fill="url(#ir)" d="m89.56 205.01-4.03.65v6.07l4.03-.55v-6.17z" opacity=".7"/>
      <path fill="url(#is)" d="m95.12 204.12-4.2.67v6.2l4.2-.57v-6.3z" opacity=".7"/>
      <path fill="url(#it)" d="m100.92 203.19-4.38.7v6.33l4.38-.6v-6.43z" opacity=".7"/>
      <path fill="url(#iu)" d="m106.97 202.21-4.57.74v6.47l4.57-.63v-6.58z" opacity=".7"/>
      <path fill="url(#iv)" d="m113.3 201.2-4.77.77v6.61l4.77-.66v-6.72z" opacity=".7"/>
      <path fill="url(#iw)" d="m119.92 200.14-5 .8v6.76l5-.69v-6.87z" opacity=".7"/>
      <path fill="url(#ix)" d="m134.11 197.86-5.48.88v7.08l5.48-.75v-7.21z" opacity=".7"/>
      <path fill="url(#iy)" d="m141.74 196.63-5.77.93v7.25l5.77-.79v-7.39z" opacity=".7"/>
      <path fill="url(#iz)" d="m149.74 195.35-6.05.97v7.43l6.05-.83v-7.57z" opacity=".7"/>
      <path fill="url(#ja)" d="m158.17 194-6.37 1.02v7.62l6.37-.87V194z" opacity=".7"/>
      <path fill="url(#jb)" d="m167.04 192.57-6.71 1.08v7.82l6.71-.92v-7.98z" opacity=".7"/>
      <path fill="url(#jc)" d="m176.4 191.07-7.08 1.13v8.04l7.08-.97v-8.2z" opacity=".7"/>
      <path fill="url(#jd)" d="m186.29 189.48-7.48 1.2v8.25l7.48-1.02v-8.43z" opacity=".7"/>
      <path fill="url(#je)" d="m207.84 186.02-8.39 1.35v8.73l8.39-1.15v-8.93z" opacity=".7"/>
      <path fill="url(#jf)" d="m219.61 184.13-8.91 1.43v9l8.91-1.22v-9.21z" opacity=".7"/>
      <path fill="url(#jg)" d="m232.13 182.12-9.48 1.53v9.27l9.48-1.3v-9.5z" opacity=".7"/>
      <path fill="url(#jh)" d="m89.56 197.12-4.03.77v6.07l4.03-.67v-6.17z" opacity=".7"/>
      <path fill="url(#ji)" d="m100.92 194.96-4.38.83v6.33l4.38-.73v-6.43z" opacity=".7"/>
      <path fill="url(#jj)" d="m106.97 193.8-4.57.87v6.47l4.57-.76v-6.58z" opacity=".7"/>
      <path fill="url(#jk)" d="m113.3 192.6-4.77.91v6.61l4.77-.8v-6.72z" opacity=".7"/>
      <path fill="url(#jl)" d="m119.92 191.34-5 .95v6.76l5-.83v-6.88z" opacity=".7"/>
      <path fill="url(#jm)" d="m126.85 190.02-5.24.99v6.92l5.24-.87v-7.04z" opacity=".7"/>
      <path fill="url(#jn)" d="m134.11 188.63-5.48 1.05v7.08l5.48-.92v-7.21z" opacity=".7"/>
      <path fill="url(#jo)" d="m141.74 187.18-5.77 1.1v7.25l5.77-.96v-7.39z" opacity=".7"/>
      <path fill="url(#jp)" d="m149.74 185.66-6.05 1.15v7.43l6.05-1.01v-7.57z" opacity=".7"/>
      <path fill="url(#jq)" d="m158.17 184.06-6.37 1.21v7.62l6.37-1.07v-7.76z" opacity=".7"/>
      <path fill="url(#jr)" d="m167.04 182.37-6.71 1.27v7.83l6.71-1.13v-7.97z" opacity=".7"/>
      <path fill="url(#js)" d="m176.4 180.58-7.08 1.35v8.03l7.08-1.18v-8.2z" opacity=".7"/>
      <path fill="url(#jt)" d="m186.29 178.7-7.48 1.42v8.26l7.48-1.25v-8.43z" opacity=".7"/>
      <path fill="url(#ju)" d="m196.75 176.71-7.91 1.5v8.49l7.91-1.32v-8.67z" opacity=".7"/>
      <path fill="url(#jv)" d="m207.84 174.6-8.39 1.59v8.74l8.39-1.4v-8.93z" opacity=".7"/>
      <path fill="url(#jw)" d="m232.13 169.97-9.48 1.8v9.28l9.48-1.58v-9.5z" opacity=".7"/>
      <path fill="url(#jx)" d="m245.46 167.43-10.1 1.92v9.58l10.1-1.69v-9.81z" opacity=".7"/>
    </g>
    <path fill="url(#jy)" d="m42 418.26-2.92.68v-6.23L42 412v6.31m.22.43v-7.28l-3.36.89v7.16l3.36-.77Z" class="b" transform="translate(-29.48 -213.83)"/>
    <path fill="url(#jz)" d="m46.66 417.2-3.07.7v-6.38l3.07-.81v6.49m.24.43v-7.46l-3.54.93v7.33l3.54-.8Z" class="b" transform="translate(-29.48 -213.83)"/>
    <path fill="url(#ka)" d="m51.57 416.07-3.23.74v-6.54l3.23-.84v6.64m.24.44v-7.65l-3.71 1v7.51l3.71-.85Z" class="b" transform="translate(-29.48 -213.83)"/>
    <path fill="url(#kb)" d="m56.73 414.88-3.4.78V409l3.4-.9v6.82m.26.46v-7.86l-3.91 1v7.71l3.91-.89Z" class="b" transform="translate(-29.48 -213.83)"/>
    <path fill="url(#kc)" d="m62.17 413.63-3.59.83v-6.89l3.59-.94v7m.27.47V406l-4.12 1.1v7.9l4.12-.93Z" class="b" transform="translate(-29.48 -213.83)"/>
    <path fill="url(#kd)" d="m67.9 412.31-3.78.87v-7.06l3.78-1v7.19m.3.48v-8.29l-4.36 1.16v8.12l4.36-1Z" class="b" transform="translate(-29.48 -213.83)"/>
    <path fill="url(#ke)" d="m80.39 409.45-4.23 1v-7.48l4.23-1.11v7.62m.33.5v-8.78l-4.88 1.29v8.59l4.88-1.1Z" class="b" transform="translate(-29.48 -213.83)"/>
    <path fill="url(#kf)" d="m87.2 407.88-4.49 1v-7.7L87.2 400v7.85m.35.51v-9l-5.17 1.37v8.85l5.17-1.18Z" class="b" transform="translate(-29.48 -213.83)"/>
    <path fill="url(#kg)" d="m94.44 406.22-4.78 1.1v-7.93l4.78-1.27v8.1m.36.52v-9.32l-5.49 1.46V408l5.49-1.25Z" class="b" transform="translate(-29.48 -213.83)"/>
    <path fill="url(#kh)" d="m102.14 404.45-5.09 1.17v-8.18l5.09-1.34v8.35m.39.54v-9.63l-5.85 1.56v9.4l5.85-1.33Z" class="b" transform="translate(-29.48 -213.83)"/>
    <path fill="url(#ki)" d="m110.34 402.56-5.42 1.25v-8.45l5.42-1.43v8.63m.42.56v-9.95l-6.24 1.66v9.71l6.24-1.42Z" class="b" transform="translate(-29.48 -213.83)"/>
    <path fill="url(#kj)" d="m119.12 400.55-5.79 1.33v-8.73l5.79-1.53v8.93m.45.57v-10.29l-6.67 1.77v10l6.67-1.51Z" class="b" transform="translate(-29.48 -213.83)"/>
    <path fill="url(#kk)" d="m128.52 398.39-6.21 1.42v-9l6.21-1.64v9.25m.48.59v-10.69l-7.15 1.9v10.38L129 399Z" class="b" transform="translate(-29.48 -213.83)"/>
    <path fill="url(#kl)" d="m149.48 393.57-7.18 1.65v-9.71l7.18-1.89v9.95m.56.63v-11.48l-8.27 2.2v11.16l8.23-1.88Z" class="b" transform="translate(-29.48 -213.83)"/>
    <path fill="url(#km)" d="m161.22 390.88-7.77 1.78v-10.09l7.77-2v10.35m.6.64v-11.98l-8.94 2.42v11.59l8.94-2Z" class="b" transform="translate(-29.48 -213.83)"/>
    <path fill="url(#kn)" d="m173.92 388-8.41 1.93v-10.5l8.41-2.21V388m.66.66v-12.47l-9.69 2.58v12.05l9.69-2.2Z" class="b" transform="translate(-29.48 -213.83)"/>
    <path fill="url(#ko)" d="m42 409-2.92.81v-6.22l2.92-.92V409m.22.41v-7.28l-3.36 1.06v7.15l3.36-.93Z" class="b" transform="translate(-29.48 -213.83)"/>
    <path fill="url(#kp)" d="m51.57 406.29-3.23.89v-6.53l3.23-1v6.65m.24.42v-7.65l-3.71 1.17v7.51l3.71-1Z" class="b" transform="translate(-29.48 -213.83)"/>
    <path fill="url(#kq)" d="m56.73 404.84-3.4 1v-6.7l3.4-1.07v6.82m.26.44v-7.85l-3.91 1.23v7.7l3.92-1.13Z" class="b" transform="translate(-29.48 -213.83)"/>
    <path fill="url(#kr)" d="m62.17 403.32-3.59 1v-6.88l3.59-1.12v7m.27.45v-8.07l-4.12 1.3v7.91l4.12-1.14Z" class="b" transform="translate(-29.48 -213.83)"/>
    <path fill="url(#ks)" d="m67.9 401.71-3.78 1.07v-7.08l3.78-1.18v7.19m.3.47v-8.3l-4.36 1.38v8.12l4.36-1.2Z" class="b" transform="translate(-29.48 -213.83)"/>
    <path fill="url(#kt)" d="m74 400-4 1.12v-7.27l4-1.25v7.4m.3.47V392l-4.6 1.46v8.35l4.6-1.28Z" class="b" transform="translate(-29.48 -213.83)"/>
    <path fill="url(#ku)" d="m80.39 398.23-4.23 1.18v-7.48l4.23-1.32v7.62m.33.48v-8.78l-4.88 1.54v8.59l4.88-1.35Z" class="b" transform="translate(-29.48 -213.83)"/>
    <path fill="url(#kv)" d="m87.2 396.32-4.49 1.26v-7.7l4.49-1.41v7.85m.35.5v-9.05l-5.17 1.63v8.85l5.17-1.43Z" class="b" transform="translate(-29.48 -213.83)"/>
    <path fill="url(#kw)" d="m94.44 394.3-4.78 1.33v-7.93l4.78-1.49v8.09m.36.5v-9.32l-5.49 1.73v9.12l5.49-1.53Z" class="b" transform="translate(-29.48 -213.83)"/>
    <path fill="url(#kx)" d="m102.14 392.15-5.09 1.42v-8.19l5.09-1.59v8.36m.39.52V383l-5.85 1.84v9.41l5.85-1.62Z" class="b" transform="translate(-29.48 -213.83)"/>
    <path fill="url(#ky)" d="m110.34 389.85-5.42 1.52v-8.45l5.42-1.7v8.63m.42.54v-9.95l-6.24 2v9.71l6.24-1.73Z" class="b" transform="translate(-29.48 -213.83)"/>
    <path fill="url(#kz)" d="m119.12 387.4-5.79 1.6v-8.73l5.79-1.82v8.93m.45.55v-10.3l-6.67 2.11v10l6.67-1.84Z" class="b" transform="translate(-29.48 -213.83)"/>
    <path fill="url(#la)" d="m128.52 384.77-6.21 1.74v-9l6.21-2v9.25m.48.56v-10.65l-7.15 2.27v10.37l7.15-2Z" class="b" transform="translate(-29.48 -213.83)"/>
    <path fill="url(#lb)" d="m138.62 382-6.68 1.87v-9.37l6.68-2.09V382m.51.58v-11.11l-7.68 2.43v10.76l7.68-2.13Z" class="b" transform="translate(-29.48 -213.83)"/>
    <path fill="url(#lc)" d="m149.48 378.91-7.18 2v-9.71l7.18-2.25v10m.56.6V368l-8.27 2.62v11.18l8.27-2.29Z" class="b" transform="translate(-29.48 -213.83)"/>
    <path fill="url(#ld)" d="m173.92 372.08-8.41 2.35v-10.5l8.41-2.63v10.78m.66.63v-12.43l-9.69 3.06v12.05l9.69-2.68Z" class="b" transform="translate(-29.48 -213.83)"/>
    <path fill="url(#le)" d="m187.73 368.22-9.15 2.55v-10.94l9.15-2.86v11.25m.72.65v-13l-10.54 3.32v12.57l10.54-2.92Z" class="b" transform="translate(-29.48 -213.83)"/>
    <g style="mix-blend-mode:multiply">
      <path d="m15.45 221.22-14.04 1.93v.63l13.9-1.86 1.77 3.46 5.65-.65 6.4 12.17 37.81-1.95 11.99 19.16.41-.63-12.18-19.41-37.87 2.09-6.41-12.15-5.66.67-1.77-3.46z" class="lk"/>
      <path d="M78.33 254.91a.84.84 0 0 0 1.54.05 2.43 2.43 0 0 0 0-2.42.84.84 0 0 0-1.54 0 2.44 2.44 0 0 0 0 2.37Zm-76.9-30.26c-.28 0-.52-.46-.52-1.12s.24-1.21.52-1.25.53.45.53 1.11-.24 1.22-.53 1.26Zm36.42-23-18.47 3.98v.69l18.3-3.88 9.47 15.77 45.28-5.97 22.49 30.57 134-2.12v-1.52l-133.69 2.6-22.54-30.52-45.36 6.14-9.48-15.74z" class="lk"/>
      <path d="M248.76 237.08a2.89 2.89 0 0 1 3.06 2.8 3 3 0 0 1-3.06 2.91 2.9 2.9 0 0 1-3-2.81 3 3 0 0 1 3-2.9Zm-209.44-1.5-.29.55 10.39 18.82 20.76.7 8.1 13.44 94.68 8.13v-1.24l-94.44-7.77-8.11-13.43-20.81-.62-10.28-18.58z" class="lk"/>
      <path d="M172.85 274.25a2.43 2.43 0 0 1 2 2.51 2 2 0 0 1-2 2.16 2.44 2.44 0 0 1-2-2.51 2 2 0 0 1 2-2.16ZM50.34 235.16l-.32.59 4.66 8.02 7.88-.12v-.86l-7.68.15-4.54-7.78z" class="lk"/>
      <path d="M62.52 241.62c.53 0 1 .7 1 1.58s-.43 1.61-1 1.62-.95-.71-.95-1.59.42-1.59.95-1.61Zm40.11-16.77-15.57 1.27-6.06 9.71.41.63 5.9-9.43 15.32-1.19v-.99z" class="lk"/>
      <path d="M82.02 237.27a.86.86 0 0 1-1.56.06 2.45 2.45 0 0 1 0-2.43.86.86 0 0 1 1.56-.08 2.44 2.44 0 0 1 0 2.45Zm18.75-36.34-30.15 5.09-4.95 8.87.37.56 4.81-8.59 29.64-4.9 22.79 29.22 41.05-2.23v-1.22l-40.72 2.36-22.84-29.16z" class="lk"/>
      <path d="M164.23 226.06a2 2 0 0 1 1.95 2.17 2.27 2.27 0 0 1-1.95 2.39 2 2 0 0 1-1.93-2.17 2.28 2.28 0 0 1 1.93-2.39Zm-18.95 32.61-49.69-1.76-8.37 12.06.43.7 8.22-11.78 49.41 1.92v-1.14z" class="lk"/>
      <path d="M145.2 257.08a2.05 2.05 0 0 1 1.73 2.22 1.87 1.87 0 0 1-1.73 2.08 2.07 2.07 0 0 1-1.68-2.21 1.9 1.9 0 0 1 1.68-2.09Zm6.29-15.61-.67.84 8.9 10.76 58.17.98v-1.4l-57.75-.78-8.65-10.4z" class="lk"/>
      <path d="M217.76 250.71a2.65 2.65 0 0 1 2.61 2.67 2.57 2.57 0 0 1-2.61 2.6 2.67 2.67 0 0 1-2.59-2.68 2.57 2.57 0 0 1 2.59-2.59Zm22.9-60.56-16.54 18.13-81.66 8.01-9.93 13.45.6.74 9.71-13.08 81.88-7.75 17.04-18.6-1.1-.9z" class="lk"/>
      <path d="M239.05 189.02a3.07 3.07 0 0 1 4.13-.58 2.71 2.71 0 0 1 0 4 3.07 3.07 0 0 1-4.13.55 2.71 2.71 0 0 1 0-3.97ZM9.08 225.64l-5.79.69-2.89 6.8.19.43 2.82-6.61 5.55-.64 12.44 25.55 10.19.23 12.1 23.66 18.46 2.39v-.85l-18.28-2.3-12.12-23.63-10.22-.2-12.45-25.52z" class="lk"/>
      <path d="M62.1 279.3c.53.07 1-.59 1-1.47s-.42-1.65-1-1.71-.94.59-.94 1.47.42 1.64.94 1.71ZM.88 234.11c-.2.48-.53.5-.73.05a2.37 2.37 0 0 1 0-1.66c.2-.47.53-.5.73-.06a2.4 2.4 0 0 1 0 1.67Zm17.47-2.54-6.2.5v.67l6.06-.47 5.81 11.55 6.2-.11v-.73l-6.05.13-5.82-11.54z" class="lk"/>
      <path d="M30.18 241.96c.4 0 .71.6.71 1.37s-.31 1.38-.71 1.39-.7-.61-.7-1.36.31-1.39.7-1.4Zm24.7 19.54-18.59-1.15v.76l18.39 1.2 4.26 7.68 12.56 1.21 2.28 3.9.39-.59-2.44-4.17-12.58-1.17-4.27-7.67z" class="lk"/>
      <path d="M74.68 273.63a2.45 2.45 0 0 1 0 2.38c-.42.6-1.08.52-1.48-.17a2.47 2.47 0 0 1 0-2.36c.4-.61 1.06-.54 1.48.15Zm-30.81-29.68-5.78.09-2.65 5.02.27.54 2.55-4.79 5.61-.07v-.79z" class="lk"/>
      <path d="M36.13 250.28c-.3.55-.77.54-1.06 0a2.38 2.38 0 0 1 0-2c.29-.56.76-.56 1.06 0a2.41 2.41 0 0 1 0 2Zm154.86 31.22-8.55 8.52-71.98-8.59-7.74 9.88-28.86-4.57-9.58-16.88-.37.57 9.72 17.16 29.38 4.76 7.75-9.87 72.15 8.88 8.94-8.86-.86-1z" class="lk"/>
      <path d="M189.75 280.17a2.14 2.14 0 0 1 3.2.28 2.63 2.63 0 0 1 0 3.5 2.15 2.15 0 0 1-3.2-.32 2.6 2.6 0 0 1 0-3.46Zm-88.97-39.94-3.03 4.46-23.89.24v.89l24.16-.16 3.24-4.74-.48-.69z" class="lk"/>
      <path d="M100.06 239.35a1 1 0 0 1 1.82-.05 2.45 2.45 0 0 1 0 2.63 1 1 0 0 1-1.82 0 2.5 2.5 0 0 1 0-2.58Zm2.11 41.36-14.94-1.8-6.45 9.03.42.71 6.29-8.77 14.68 1.82v-.99z" class="lk"/>
      <path d="M102.1 279.33c.71.09 1.29 1 1.29 2s-.58 1.79-1.29 1.7-1.29-1-1.29-2 .57-1.78 1.29-1.7Zm35.77-28.72-23.29-.24-5.14 7.03.51.73 4.94-6.72 22.98.32v-1.12z" class="lk"/>
      <path d="M137.78 249.06a2 2 0 0 1 1.66 2.13 1.88 1.88 0 0 1-1.66 2.08 2 2 0 0 1-1.64-2.12 1.91 1.91 0 0 1 1.64-2.09Zm-13.19 34.31-.57.69 14.73 21.44 82.08 15.22 19.83 23.64 1.1-.8-20.35-24.15-82.3-14.97-14.52-21.07z" class="lk"/>
      <path d="M243.18 342.33c1.16 1.37 1.16 3.15 0 4s-3 .38-4.13-1-1.13-3.11 0-3.94 2.98-.42 4.13.94Z" class="lk"/>
    </g>
    <g class="b">
      <path fill="url(#lf)" d="m180.05 283.3 4.38-2.4-4.38-3.21v5.61z"/>
      <path fill="url(#lg)" d="m116.87 212.4 6.44-5.87-6.44-4.08v9.95z"/>
      <path fill="url(#lh)" d="m94.97 230.8 4.6-4.21-4.6-3.5v7.71z"/>
      <path fill="url(#li)" d="m68.64 245.28 3.24-3.09-3.24-2.95v6.04z"/>
      <path fill="url(#lj)" d="m175.08 209.29 4.39-3.37-4.39-2.33v5.7z"/>
      <path fill="url(#lk)" d="m60.99 285.12-2.75 2.25 2.75 3.19v-5.44z"/>
      <path fill="url(#ll)" d="m34.3 177.81-1.41 2.02 1.41 1.1v-3.12z"/>
      <path fill="url(#lm)" d="m54.58 197.03-1.59 1.95 1.59 1.28v-3.23z"/>
      <path fill="url(#ln)" d="m101.58 276.34-3.19 2.32 3.19 3.05v-5.37z"/>
      <path fill="url(#lo)" d="m117.63 274.19-2.67 1.85 2.67 2.38v-4.23z"/>
      <path fill="url(#lp)" d="m143.97 245.79-3.82 2.78 3.82 2.8v-5.58z"/>
    </g>
  </g>
</svg>
