<svg xmlns="http://www.w3.org/2000/svg" xmlns:xlink="http://www.w3.org/1999/xlink" viewBox="0 0 441.11 305.75"><defs><style>.a{isolation:isolate;}.b,.d,.eu{opacity:0.5;}.b,.d{mix-blend-mode:screen;}.c,.d{fill:#271e4a;}.e,.fo{opacity:0.2;}.ee,.ef,.eg,.eh,.ei,.ej,.ek,.el,.em,.en,.eo,.ep,.f,.g,.h,.i,.j,.k,.l,.m,.n,.o,.p,.q{fill:#010101;}.f{opacity:0;}.g{opacity:0.09;}.h{opacity:0.18;}.i{opacity:0.27;}.j{opacity:0.36;}.k{opacity:0.45;}.l{opacity:0.55;}.m{opacity:0.64;}.n{opacity:0.73;}.o{opacity:0.82;}.p{opacity:0.91;}.r{fill:url(#a);}.s{fill:url(#b);}.t{fill:url(#c);}.u{fill:url(#d);}.v{fill:url(#e);}.w{fill:url(#f);}.x{fill:url(#g);}.y{fill:url(#h);}.z{fill:url(#i);}.aa{fill:url(#j);}.ab{fill:url(#k);}.ac{fill:url(#l);}.ad{fill:url(#m);}.ae{fill:url(#n);}.af{fill:url(#o);}.ag{fill:url(#p);}.ah{fill:url(#q);}.ai{fill:url(#r);}.aj{fill:url(#s);}.ak{fill:url(#t);}.al{fill:url(#u);}.am{fill:url(#v);}.an{fill:url(#w);}.ao{fill:url(#x);}.ap{fill:url(#y);}.aq{fill:url(#z);}.ar{fill:url(#aa);}.as{fill:url(#ab);}.at{fill:url(#ac);}.au{fill:url(#ad);}.av{fill:url(#ae);}.aw{fill:url(#af);}.ax{fill:url(#ag);}.ay{fill:url(#ah);}.az{fill:url(#ai);}.ba{fill:url(#aj);}.bb{fill:url(#ak);}.bc{fill:url(#al);}.bd{fill:url(#am);}.be{fill:url(#an);}.bf{fill:url(#ao);}.bg{fill:url(#ap);}.bh{fill:url(#aq);}.bi{fill:#c5a6cf;}.bj{fill:#c6a7d0;}.bk{fill:#c6a8d0;}.bl{fill:#c7a9d1;}.bm{fill:#c7aad1;}.bn{fill:#c8abd2;}.bo{fill:#c9abd2;}.bp{fill:#c9acd3;}.bq{fill:#caadd3;}.br{fill:#caaed4;}.bs{fill:#cbafd4;}.bt{fill:#cbb0d5;}.bu{fill:#ccb1d6;}.bv{fill:#ccb2d6;}.bw{fill:#cdb3d7;}.bx,.fh{fill:#ceb3d7;}.by{fill:#ceb4d8;}.bz{fill:#cfb5d8;}.ca{fill:#cfb6d9;}.cb{fill:#d0b7d9;}.cc{fill:#d0b8da;}.cd{fill:#d1b9da;}.ce{fill:#d2badb;}.cf{fill:#d3bbdc;}.cg{fill:#d3bcdc;}.ch{fill:#d4bddd;}.ci{fill:#d5bedd;}.cj{fill:#d5bfde;}.ck{fill:#d6c0de;}.cl{fill:#d6c1df;}.cm{fill:#d7c1df;}.cn{fill:#d8c2e0;}.co{fill:#d8c3e0;}.cp{fill:#d9c4e1;}.cq{fill:#d9c5e1;}.cr{fill:#dac6e2;}.cs{fill:#dbc7e2;}.ct{fill:#dbc8e3;}.cu{fill:#dcc9e3;}.cv{fill:#dcc9e4;}.cw{fill:#ddcae4;}.cx{fill:#decbe5;}.cy{fill:#decce5;}.cz{fill:#dfcde6;}.da{fill:#dfcee6;}.db{fill:#e0cfe7;}.dc{fill:#e1d0e7;}.dd{fill:#e1d0e8;}.de{fill:#e2d1e8;}.df{fill:#e2d2e8;}.dg{fill:#e3d3e9;}.dh{fill:#e4d4e9;}.di{fill:#e4d5ea;}.dj{fill:#e5d6ea;}.dk{fill:#e5d7eb;}.dl{fill:#e6d7eb;}.dm{fill:#e7d8ec;}.dn{fill:#e7d9ec;}.do{fill:#e8daed;}.dp{fill:#e8dbed;}.dq{fill:#e9dcee;}.dr{fill:#eaddee;}.ds,.eu,.ev,.fi{fill:#eadeee;}.dt{fill:url(#ar);}.du{fill:url(#as);}.dv{fill:url(#at);}.dw{fill:url(#au);}.dx,.dy,.dz,.fd,.fh{mix-blend-mode:multiply;}.dx{fill:url(#av);}.dy,.ea{fill:#e5d4e9;}.eb{opacity:0.1;}.ec{fill:url(#aw);}.ed,.ev{opacity:0.7;}.ee{opacity:0.02;}.ef{opacity:0.05;}.eg{opacity:0.07;}.eh{opacity:0.1;}.ei{opacity:0.12;}.ej{opacity:0.15;}.ek{opacity:0.17;}.el{opacity:0.2;}.em{opacity:0.22;}.en{opacity:0.25;}.eo{opacity:0.27;}.ep{opacity:0.3;}.eq{fill:url(#ax);}.er{fill:url(#ay);}.es{fill:url(#az);}.et{fill:#231f20;mix-blend-mode:color-dodge;}.ew{fill:url(#ba);}.ex{fill:url(#bb);}.ey{fill:url(#bc);}.ez{fill:url(#bd);}.fa{fill:url(#be);}.fb{fill:url(#bf);}.fc{fill:url(#bg);}.fd{fill:#ceb2d6;}.fe{fill:url(#bh);}.ff{fill:url(#bi);}.fg{fill:url(#bj);}.fi,.fr{opacity:0.8;}.fj,.fo,.fp,.fq,.fr{fill:#c4b1d1;}.fk{fill:url(#bk);}.fl{fill:url(#bl);}.fm{fill:url(#bm);}.fn{fill:url(#bn);}.fp{opacity:0.4;}.fq{opacity:0.6;}.fs{fill:url(#bo);}.ft{fill:url(#bp);}.fu{fill:url(#bq);}.fv{fill:url(#br);}.fw{fill:url(#bs);}.fx{fill:url(#bt);}.fy{opacity:0.15;}</style><linearGradient id="a" x1="363.09" y1="442.02" x2="363.09" y2="478.28" gradientUnits="userSpaceOnUse"><stop offset="0.04" stop-color="#544394"/><stop offset="0.37" stop-color="#634193"/><stop offset="0.98" stop-color="#893d8f"/></linearGradient><linearGradient id="b" x1="361.81" y1="437.46" x2="358.93" y2="481.72" xlink:href="#a"/><linearGradient id="c" x1="361.17" y1="432.4" x2="354.31" y2="484.8" xlink:href="#a"/><linearGradient id="d" x1="361.25" y1="426.96" x2="349.29" y2="487.46" xlink:href="#a"/><linearGradient id="e" x1="362.11" y1="421.26" x2="343.91" y2="489.64" xlink:href="#a"/><linearGradient id="f" x1="363.79" y1="415.43" x2="338.23" y2="491.26" xlink:href="#a"/><linearGradient id="g" x1="366.31" y1="409.62" x2="332.31" y2="492.28" xlink:href="#a"/><linearGradient id="h" x1="369.66" y1="403.96" x2="326.25" y2="492.65" xlink:href="#a"/><linearGradient id="i" x1="374.05" y1="398.21" x2="320.16" y2="492.28" xlink:href="#a"/><linearGradient id="j" x1="379.94" y1="391.88" x2="311.63" y2="494.94" xlink:href="#a"/><linearGradient id="k" x1="386.98" y1="385.86" x2="302.51" y2="496.9" xlink:href="#a"/><linearGradient id="l" x1="395.18" y1="380.29" x2="293.03" y2="497.86" xlink:href="#a"/><linearGradient id="m" x1="404.49" y1="375.38" x2="283.34" y2="497.75" xlink:href="#a"/><linearGradient id="n" x1="414.78" y1="371.34" x2="273.58" y2="496.53" xlink:href="#a"/><linearGradient id="o" x1="425.92" y1="368.34" x2="263.89" y2="494.18" xlink:href="#a"/><linearGradient id="p" x1="437.73" y1="366.53" x2="254.43" y2="490.67" xlink:href="#a"/><linearGradient id="q" x1="449.97" y1="366.03" x2="245.34" y2="486" xlink:href="#a"/><linearGradient id="r" x1="462.44" y1="366.88" x2="236.76" y2="480.16" xlink:href="#a"/><linearGradient id="s" x1="474.94" y1="369.22" x2="228.9" y2="473.3" xlink:href="#a"/><linearGradient id="t" x1="487.22" y1="373.08" x2="221.88" y2="465.5" xlink:href="#a"/><linearGradient id="u" x1="499.06" y1="378.44" x2="215.86" y2="456.86" xlink:href="#a"/><linearGradient id="v" x1="510.19" y1="385.28" x2="210.94" y2="447.53" xlink:href="#a"/><linearGradient id="w" x1="508.96" y1="387.53" x2="209.62" y2="445.87" xlink:href="#a"/><linearGradient id="x" x1="508.83" y1="387.26" x2="209.64" y2="445.56" gradientUnits="userSpaceOnUse"><stop offset="0.04" stop-color="#594797"/><stop offset="0.38" stop-color="#684595"/><stop offset="0.98" stop-color="#8c4292"/></linearGradient><linearGradient id="y" x1="508.73" y1="386.97" x2="209.65" y2="445.26" gradientUnits="userSpaceOnUse"><stop offset="0.04" stop-color="#5f4b99"/><stop offset="0.41" stop-color="#6e4998"/><stop offset="0.98" stop-color="#8e4695"/></linearGradient><linearGradient id="z" x1="508.65" y1="386.69" x2="209.65" y2="444.96" gradientUnits="userSpaceOnUse"><stop offset="0.04" stop-color="#644f9c"/><stop offset="0.42" stop-color="#734e9a"/><stop offset="0.98" stop-color="#914b97"/></linearGradient><linearGradient id="aa" x1="508.57" y1="386.4" x2="209.66" y2="444.65" gradientUnits="userSpaceOnUse"><stop offset="0.04" stop-color="#69539f"/><stop offset="0.44" stop-color="#78529d"/><stop offset="0.98" stop-color="#94509a"/></linearGradient><linearGradient id="ab" x1="508.5" y1="386.11" x2="209.66" y2="444.35" gradientUnits="userSpaceOnUse"><stop offset="0.04" stop-color="#6e57a1"/><stop offset="0.46" stop-color="#7d569f"/><stop offset="0.98" stop-color="#96559d"/></linearGradient><linearGradient id="ac" x1="508.42" y1="385.83" x2="209.66" y2="444.05" gradientUnits="userSpaceOnUse"><stop offset="0.04" stop-color="#745ca4"/><stop offset="0.49" stop-color="#835ba2"/><stop offset="0.98" stop-color="#995aa0"/></linearGradient><linearGradient id="ad" x1="508.34" y1="385.54" x2="209.66" y2="443.75" gradientUnits="userSpaceOnUse"><stop offset="0.04" stop-color="#7960a6"/><stop offset="0.51" stop-color="#8860a5"/><stop offset="0.98" stop-color="#9c5fa3"/></linearGradient><linearGradient id="ae" x1="508.27" y1="385.25" x2="209.66" y2="443.45" gradientUnits="userSpaceOnUse"><stop offset="0.04" stop-color="#7f65a9"/><stop offset="0.55" stop-color="#8e65a8"/><stop offset="0.98" stop-color="#9f64a6"/></linearGradient><linearGradient id="af" x1="508.2" y1="384.97" x2="209.66" y2="443.14" gradientUnits="userSpaceOnUse"><stop offset="0.04" stop-color="#8469ac"/><stop offset="0.59" stop-color="#9369aa"/><stop offset="0.98" stop-color="#a169a9"/></linearGradient><linearGradient id="ag" x1="508.13" y1="384.68" x2="209.66" y2="442.84" gradientUnits="userSpaceOnUse"><stop offset="0.04" stop-color="#8a6eaf"/><stop offset="0.65" stop-color="#996ead"/><stop offset="0.98" stop-color="#a46eac"/></linearGradient><linearGradient id="ah" x1="508.07" y1="384.39" x2="209.66" y2="442.54" gradientUnits="userSpaceOnUse"><stop offset="0.04" stop-color="#8f73b2"/><stop offset="0.69" stop-color="#9e73b0"/><stop offset="0.98" stop-color="#a773af"/></linearGradient><linearGradient id="ai" x1="508.02" y1="384.1" x2="209.66" y2="442.24" gradientUnits="userSpaceOnUse"><stop offset="0.04" stop-color="#9578b4"/><stop offset="0.77" stop-color="#a478b3"/><stop offset="0.98" stop-color="#aa78b3"/></linearGradient><linearGradient id="aj" x1="507.96" y1="383.81" x2="209.66" y2="441.94" gradientUnits="userSpaceOnUse"><stop offset="0.04" stop-color="#9a7cb7"/><stop offset="0.83" stop-color="#a97db6"/><stop offset="0.98" stop-color="#ad7db6"/></linearGradient><linearGradient id="ak" x1="507.92" y1="383.51" x2="209.66" y2="441.64" gradientUnits="userSpaceOnUse"><stop offset="0.04" stop-color="#9f81ba"/><stop offset="0.91" stop-color="#ae82b9"/><stop offset="0.98" stop-color="#b082b9"/></linearGradient><linearGradient id="al" x1="507.88" y1="383.22" x2="209.66" y2="441.34" gradientUnits="userSpaceOnUse"><stop offset="0.04" stop-color="#a487bd"/><stop offset="0.98" stop-color="#b287bc"/></linearGradient><linearGradient id="am" x1="507.85" y1="382.92" x2="209.66" y2="441.03" gradientUnits="userSpaceOnUse"><stop offset="0.04" stop-color="#aa8cc0"/><stop offset="0.98" stop-color="#b68dbf"/></linearGradient><linearGradient id="an" x1="507.82" y1="382.63" x2="209.66" y2="440.73" gradientUnits="userSpaceOnUse"><stop offset="0.04" stop-color="#af91c3"/><stop offset="0.98" stop-color="#b992c3"/></linearGradient><linearGradient id="ao" x1="507.8" y1="382.33" x2="209.66" y2="440.43" gradientUnits="userSpaceOnUse"><stop offset="0.04" stop-color="#b596c6"/><stop offset="0.98" stop-color="#bc97c6"/></linearGradient><linearGradient id="ap" x1="507.78" y1="382.03" x2="209.65" y2="440.13" gradientUnits="userSpaceOnUse"><stop offset="0.04" stop-color="#ba9cc9"/><stop offset="0.98" stop-color="#bf9cc9"/></linearGradient><linearGradient id="aq" x1="507.77" y1="381.73" x2="209.65" y2="439.83" gradientUnits="userSpaceOnUse"><stop offset="0.04" stop-color="#c0a1cc"/><stop offset="0.98" stop-color="#c2a1cc"/></linearGradient><linearGradient id="ar" x1="473.91" y1="415.64" x2="470.16" y2="407.39" xlink:href="#a"/><linearGradient id="as" x1="9453.33" y1="-641.36" x2="9446.94" y2="-629.44" gradientTransform="matrix(-0.87, 0.5, -0.5, 1.44, 8336.11, -3336.04)" gradientUnits="userSpaceOnUse"><stop offset="0.04" stop-color="#a081ba"/><stop offset="0.98" stop-color="#ab79b3"/></linearGradient><linearGradient id="at" x1="459.34" y1="428.03" x2="453.97" y2="414.78" xlink:href="#a"/><linearGradient id="au" x1="9467.4" y1="-633.81" x2="9461.01" y2="-621.89" xlink:href="#as"/><linearGradient id="av" x1="410.08" y1="334.48" x2="269.95" y2="554.19" gradientUnits="userSpaceOnUse"><stop offset="0" stop-color="#fff"/><stop offset="1" stop-color="#e5d4e9"/></linearGradient><linearGradient id="aw" x1="382.15" y1="377.61" x2="448.79" y2="377.61" xlink:href="#a"/><linearGradient id="ax" x1="392.52" y1="358.39" x2="379.49" y2="426.47" xlink:href="#a"/><linearGradient id="ay" x1="342.27" y1="439" x2="355.11" y2="470" xlink:href="#a"/><linearGradient id="az" x1="-4163.71" y1="2628.45" x2="-4014.97" y2="2628.45" gradientTransform="matrix(0.87, 0.5, -1, 0.58, 6351.08, 685.91)" gradientUnits="userSpaceOnUse"><stop offset="0" stop-color="#2e2358"/><stop offset="1" stop-color="#40277a"/></linearGradient><linearGradient id="ba" x1="162.97" y1="113.46" x2="215.88" y2="204.88" xlink:href="#a"/><linearGradient id="bb" x1="191.95" y1="96.68" x2="244.86" y2="188.11" xlink:href="#a"/><linearGradient id="bc" x1="167.88" y1="110.61" x2="220.8" y2="202.04" xlink:href="#a"/><linearGradient id="bd" x1="187.03" y1="99.53" x2="239.95" y2="190.96" xlink:href="#a"/><linearGradient id="be" x1="238.65" y1="144.73" x2="240.03" y2="147.13" xlink:href="#a"/><linearGradient id="bf" x1="201.09" y1="167.79" x2="201.29" y2="168.13" xlink:href="#a"/><linearGradient id="bg" x1="287.27" y1="418.92" x2="300.11" y2="449.92" xlink:href="#a"/><linearGradient id="bh" x1="186.73" y1="-13.21" x2="315.9" y2="230.98" xlink:href="#a"/><linearGradient id="bi" x1="287.24" y1="40.77" x2="285.92" y2="147.83" gradientTransform="matrix(1, 0, 0, 1, 0, 0)" xlink:href="#az"/><linearGradient id="bj" x1="310.5" y1="353.27" x2="306.58" y2="437.32" gradientTransform="matrix(1, 0, 0, 1, 0, 0)" xlink:href="#az"/><linearGradient id="bk" x1="-4174.64" y1="2503.9" x2="-4026.02" y2="2503.9" xlink:href="#az"/><linearGradient id="bl" x1="286.78" y1="64.66" x2="331.35" y2="64.66" gradientUnits="userSpaceOnUse"><stop offset="0.04" stop-color="#873a8e"/><stop offset="0.28" stop-color="#964493"/><stop offset="0.75" stop-color="#bf5fa1"/><stop offset="1" stop-color="#d66fa9"/></linearGradient><linearGradient id="bm" x1="281.19" y1="53.33" x2="319.44" y2="54.33" xlink:href="#bl"/><linearGradient id="bn" x1="273.53" y1="46.27" x2="344.51" y2="46.27" xlink:href="#bl"/><linearGradient id="bo" x1="146.14" y1="130.86" x2="207.64" y2="193.61" xlink:href="#bl"/><linearGradient id="bp" x1="140.44" y1="136.45" x2="201.94" y2="199.2" xlink:href="#bl"/><linearGradient id="bq" x1="147.9" y1="129.14" x2="209.4" y2="191.89" xlink:href="#bl"/><linearGradient id="br" x1="144.09" y1="132.87" x2="205.59" y2="195.62" xlink:href="#bl"/><linearGradient id="bs" x1="142.72" y1="134.22" x2="204.22" y2="196.97" xlink:href="#bl"/><linearGradient id="bt" x1="149.34" y1="127.73" x2="210.84" y2="190.48" xlink:href="#bl"/></defs><g class="a"><g class="b"><polygon class="c" points="369.66 42.05 337.73 23.62 339.8 22.43 371.73 40.86 369.66 42.05"/><path class="c" d="M425.67,318l4.23,2.44,2.1-1.21-4.23-2.44ZM437,327.76l-2.6-1.5-2.1,1.21,2.6,1.5Zm2.36-4.24-5.64-3.26-2.11,1.22,5.64,3.25Zm13,7.7-11.24-6.7-2.1,1.21,11.24,6.7Zm-17.14,1.09-9.11-5.26L424,328.27l9.11,5.26Zm-10.85-6.26-5.64-3.26-2.1,1.22,5.64,3.25Zm-5.49-6.35,11.71,6.77,2.1-1.22L421,318.49Zm8.56,13.72-11.71-6.76-2.11,1.21,11.72,6.76Zm20.33.54-9-5.2-2.1,1.21,9,5.2ZM441.62,336l-4.68-2.7-2.1,1.22,4.68,2.69ZM426,315.82,422,313.46l-2.11,1.21,4.08,2.36ZM414,325.66l-6.57-3.8-2.11,1.21,6.58,3.8Zm3-3.87-4.73-2.73-2.11,1.21,4.73,2.74Zm2.24-4.3-2.12-1.23L415,317.47l2.13,1.23Z" transform="translate(-77.44 -268)"/><path class="c" d="M416.52,308.39l-30.25,17.46-30.18-17.43L386.33,291l30.19,17.43Zm2.25,0-32.44-18.73-32.5,18.76,32.45,18.73,32.49-18.76Z" transform="translate(-77.44 -268)"/><path class="c" d="M484.09,315.94,405,270.27c-5.21-3-13.66-3-18.83,0l-127.4,73.55.75.44,127.4-73.55c4.76-2.75,12.54-2.74,17.33,0l79.11,45.67c4.79,2.77,4.81,7.26.05,10l-128.17,74,.75.44,128.18-74C489.32,323.83,489.3,319,484.09,315.94Z" transform="translate(-77.44 -268)"/></g><path class="d" d="M248.46,359.25,242,355.53l-4.83,2.79,11.3,6.52,11.23-6.48-4.86-2.81Zm0-7.42-5.17,3,5.2,3,5.18-3Zm0-1.4,12.53,7.23,5.44-3.14-18-10.4-17.89,10.33,5.48,3.16ZM169.2,392.55,392.43,521.43l-85.2-79.69ZM446.52,490.2,223.3,361.32,308.49,441Zm-50.79,32.41,52.83-30.51-138-49.18ZM220.63,359.78Zm-.63.36-52.84,30.5,138,49.19ZM166.53,391Zm90.83,67.22Zm123.39,71.24L258.91,459.12l34.54,50.4Zm-176.82-40.4L291.23,509l-34.54-50.4Zm-.67.39Zm1.55.9L326.65,560.7l-34.54-50.4Zm124.06,70.85,52.76-30.46-87.3-19.94ZM242.7,334.07,77.44,429.48,327.33,573.76l165.26-95.42ZM463,494.45,215.12,351.32l-.82.47L462.22,494.93l-134.9,77.88L79.09,429.49,242.71,335,490.94,478.34ZM147.72,402.29l16.56,9.56,3.46-2-16.55-9.56ZM234.57,445l3.47-2-4.74-2.73-3.46,2Zm-57-29.52-7-4-3.46,2,7,4Zm-9.75-9,19.3,11.14,3.47-2L171.28,404.5Zm-13.69-7.91L165,404.85l3.46-2-10.83-6.26Zm35,27.6,17.69,10.22,3.47-2-17.7-10.22Zm11.47-4.77-3.46,2L212,432l3.46-2Zm12.55,14.64-3.47,2,4.65,2.68,3.46-2Zm-15.4-16.29-4.29-2.48-3.47,2,4.29,2.48Zm-20.77-.6,9.29,5.37,3.46-2-9.29-5.37Zm53.47,19.48-12.15-7-3.46,2,12.15,7Zm7,8,15.64,9,3.47-2-15.64-9Zm-20.25-4.3,12.69,7.33,3.46-2-12.69-7.33ZM454.8,469.64l-11.05-6.38-6.64,3.84,11,6.37Zm-34.46-19.9-12.49-7.21-6.64,3.84,12.49,7.21Zm20.55,11.87L423.2,451.4l-6.64,3.83,17.69,10.22Zm-52.13-30.1L372.21,422l-6.64,3.83,16.55,9.56Zm81.59,47.11-12.69-7.33L451,475.12l12.69,7.33ZM405,440.88l-13.37-7.72L385,437l13.37,7.72ZM149.42,427.31l-2.95-1.7L144.1,427l2.94,1.7ZM130,412.52l4.61,2.66,2.38-1.37-4.62-2.66Zm5.48-3.17,7.56,4.36,2.37-1.37L137.87,408Zm-11,6.33,2.41,1.39,2.38-1.37-2.41-1.39Zm41.66,15-12.14-7L151.67,425l12.14,7Zm-14.1-8.14-6.38-3.68-2.37,1.37,6.38,3.68Zm16.68,31.37,2.37-1.38-3.25-1.87L165.51,452Zm-6.17-31.64-2.37,1.38,2.94,1.7,2.38-1.38Zm23.28,32.44-15.32-8.85-2.38,1.38,15.33,8.85Zm-49.29-38.38,4.79,2.77,2.37-1.38L139,414.94Zm-7.69,1.9,13.25,7.64,2.37-1.37-13.24-7.65ZM145,414.85l13.25,7.64,2.37-1.37-13.24-7.64Zm48.32,27.89,10.18,5.88,2.37-1.37-10.18-5.88Zm-65.19-6,6.37,3.68,2.38-1.37-6.38-3.68Zm29.77,1.78-8.58-5L147,435l8.59,4.95Zm-19.75-2.33,2.94,1.7,2.38-1.37-2.95-1.7Zm-1.68,5.36,12.14,7,2.37-1.37-12.14-7Zm-15.09-8.71,4.78,2.76,2.38-1.37-4.78-2.76ZM213.54,458l-20.68-11.94-2.38,1.37,20.68,11.94Zm-47.62-8.49-8.34-4.82-2.38,1.37,8.34,4.82Zm-57.85-24.33,11.36,6.56,2.38-1.37-11.36-6.56Zm77.57,32.12,14.74,8.51,2.38-1.37L188,455.93Zm11.25.17,9,5.18,2.38-1.38-9-5.18Zm.83-2.27-7.83-4.52-2.38,1.37,7.83,4.52Zm-47.14-5.48,3.19,1.85,2.37-1.38L153,448.35Zm54.89,0,11.36,6.56,2.38-1.37-11.36-6.56Zm-49.74,2.95,8.71,5,2.37-1.38-8.7-5Zm27.68,9.65,11.36,6.56,2.38-1.37L185.79,461ZM170.72,455l10.73,6.19,2.37-1.37-10.73-6.19ZM119,418.85l5.35,3.09,2.38-1.37-5.35-3.09ZM177.68,431l-10.18-5.87-2.38,1.37,10.18,5.88Zm-16.12,3.36-10.18-5.87L149,429.82l10.18,5.87Zm13.33,1.37-6.74-3.9-2.38,1.38,6.75,3.89Zm-27.52-3.23-10.3-5.95-2.38,1.38,10.3,5.94Zm38.19,9.39-8.71-5-2.37,1.37,8.7,5Zm-72-19.83,7.43,4.29,2.38-1.37-7.44-4.3Zm21.54,3.36-6.37-3.68-2.38,1.37,6.38,3.68Zm3.47,8.34-13.24-7.65L123,427.44l13.25,7.65ZM188,436.91l-8.34-4.81-2.38,1.37,8.34,4.81Zm-16.12,3.36-8.34-4.81-2.38,1.37,8.34,4.81Zm-3.28,4.44-8.7-5-2.38,1.38,8.71,5Zm-25.52-5.66,10.18,5.88,2.38-1.37-10.18-5.88Zm44.86,10.49-8.33-4.81-2.38,1.37,8.34,4.82Zm-10.3-5.94-3.8-2.2-2.37,1.37,3.8,2.2Zm7.53.75,3.72,2.15,2.38-1.37L187.52,443Zm2.41-4.93,3.81,2.19,2.37-1.37-3.8-2.2Z" transform="translate(-77.44 -268)"/><g class="e"><path class="f" d="M314.58,531.1a26.35,26.35,0,0,0,13.16-3.17L511,422.44c4.8-2.77,7.55-7.15,7.55-12,0-5.34-3.32-10.32-9.09-13.65l-79.05-45.64a32.4,32.4,0,0,0-16-4.06,26.28,26.28,0,0,0-13.15,3.17L218,455.73c-4.79,2.77-7.54,7.15-7.54,12,0,5.34,3.31,10.32,9.08,13.65L298.61,527A32.36,32.36,0,0,0,314.58,531.1Z" transform="translate(-77.44 -268)"/><path class="g" d="M401.43,350.55,218.16,456.05c-4.61,2.66-7.22,6.84-7.2,11.47,0,5.06,3.2,9.79,8.74,13l75.5,43.59c.12.07,3.81,2.18,3.95,2.22a31.46,31.46,0,0,0,16.08,3.6,28.22,28.22,0,0,0,13-3.46L510.46,421.55c4.61-2.66,7.22-6.84,7.2-11.47,0-5.06-3.2-9.79-8.74-13l-78.58-45.37a32.56,32.56,0,0,0-5.82-2.59,34.16,34.16,0,0,0-10-1.64A26,26,0,0,0,401.43,350.55Z" transform="translate(-77.44 -268)"/><path class="h" d="M401.58,350.87,218.31,456.36c-4.42,2.55-6.89,6.53-6.85,10.92,0,4.78,3.08,9.27,8.39,12.34l75.85,43.79c.24.14,3.71,2.1,4,2.19a30.56,30.56,0,0,0,16.17,3.14c4.1,0,9.85-2.06,12.79-3.75L509.91,420.66c4.42-2.55,6.89-6.53,6.84-10.92,0-4.78-3.07-9.27-8.38-12.34l-78.11-45.09a37.29,37.29,0,0,0-5.76-2.64,34.11,34.11,0,0,0-9.9-1.75A25.18,25.18,0,0,0,401.58,350.87Z" transform="translate(-77.44 -268)"/><path class="i" d="M401.73,351.19,218.45,456.68c-4.23,2.44-6.56,6.21-6.49,10.36.07,4.5,3,8.76,8,11.69l76.21,44c.37.21,3.62,2,4,2.15a29.69,29.69,0,0,0,16.28,2.69c3.64,0,10-2.55,12.6-4.06L509.36,419.77c4.23-2.45,6.56-6.22,6.49-10.37-.07-4.5-3-8.75-8-11.68l-77.64-44.83a45,45,0,0,0-5.69-2.67,33.8,33.8,0,0,0-9.81-1.88A24.71,24.71,0,0,0,401.73,351.19Z" transform="translate(-77.44 -268)"/><path class="j" d="M401.87,351.5,218.6,457c-4,2.34-6.23,5.91-6.14,9.81.09,4.23,2.84,8.24,7.68,11L296.71,522c.48.28,3.51,2,4.07,2.12a28.81,28.81,0,0,0,16.39,2.23c3.18,0,10.12-3,12.41-4.35L508.81,418.88c4-2.34,6.23-5.91,6.14-9.82-.09-4.22-2.84-8.23-7.68-11L430.1,353.48a52.25,52.25,0,0,0-5.63-2.71,33.49,33.49,0,0,0-9.71-2A24.3,24.3,0,0,0,401.87,351.5Z" transform="translate(-77.44 -268)"/><path class="k" d="M402,351.82,218.75,457.31c-3.86,2.22-5.9,5.59-5.79,9.26.11,3.94,2.72,7.71,7.33,10.37l76.92,44.41a44.17,44.17,0,0,0,4.12,2.09,27.8,27.8,0,0,0,16.48,1.77c2.73,0,10.27-3.51,12.23-4.64L508.26,418c3.85-2.22,5.9-5.59,5.79-9.25-.11-4-2.72-7.72-7.33-10.38L430,354.07c-1-.57-4.45-2.34-5.57-2.75a33.25,33.25,0,0,0-9.62-2.12A23.59,23.59,0,0,0,402,351.82Z" transform="translate(-77.44 -268)"/><path class="l" d="M402.17,352.13,218.9,457.63c-3.67,2.11-5.58,5.28-5.44,8.7.13,3.66,2.6,7.2,7,9.72l77.27,44.62a36.51,36.51,0,0,0,4.16,2.05A27,27,0,0,0,318.46,524c2.28,0,10.41-4,12-4.94l177.21-102c3.66-2.11,5.57-5.28,5.44-8.7-.14-3.66-2.61-7.2-7-9.72l-76.22-44c-.82-.47-4.58-2.44-5.51-2.8a33.53,33.53,0,0,0-9.52-2.24A23.24,23.24,0,0,0,402.17,352.13Z" transform="translate(-77.44 -268)"/><path class="m" d="M402.32,352.45,219,457.94c-3.47,2-5.24,5-5.09,8.15.16,3.39,2.49,6.68,6.63,9.07L298.21,520a33.17,33.17,0,0,0,4.2,2c5.37,2.1,11.83,2.44,16.69.85,1.83,0,10.55-4.47,11.86-5.23L507.16,416.2c3.48-2,5.24-5,5.09-8.15-.16-3.38-2.49-6.68-6.63-9.07l-75.75-43.73c-.65-.38-4.7-2.55-5.44-2.84a33,33,0,0,0-9.43-2.36C410.28,349.71,405.67,350.51,402.32,352.45Z" transform="translate(-77.44 -268)"/><path class="n" d="M402.46,352.77,219.19,458.26c-3.29,1.9-4.92,4.66-4.74,7.6.18,3.1,2.37,6.15,6.28,8.41l78,45a28.34,28.34,0,0,0,4.24,2c5.48,2,12.06,2.21,16.79.39,1.37,0,10.69-5,11.67-5.52L506.61,415.31c3.29-1.9,4.91-4.66,4.74-7.6-.19-3.1-2.37-6.16-6.28-8.41l-75.28-43.46c-.49-.29-4.82-2.66-5.38-2.88a33,33,0,0,0-9.33-2.49C410.4,350.09,405.79,350.85,402.46,352.77Z" transform="translate(-77.44 -268)"/><path class="o" d="M402.61,353.08,219.34,458.57c-3.1,1.79-4.59,4.35-4.39,7.05s2.25,5.64,5.93,7.76l78.34,45.23a25.18,25.18,0,0,0,4.28,1.94c5.61,2,12.29,2,16.89-.06.92,0,10.84-5.44,11.49-5.82L506.06,414.42c3.1-1.79,4.59-4.35,4.39-7.05s-2.26-5.64-5.93-7.76l-74.8-43.18c-.33-.19-5-2.77-5.33-2.92a32.31,32.31,0,0,0-9.23-2.61C410.52,350.46,405.9,351.18,402.61,353.08Z" transform="translate(-77.44 -268)"/><path class="p" d="M402.76,353.4,219.48,458.89c-2.91,1.68-4.25,4-4,6.49s2.13,5.12,5.57,7.11l78.7,45.43a22.74,22.74,0,0,0,4.32,1.91c5.73,1.88,12.53,1.76,17-.52.46,0,11-5.92,11.3-6.11l173.17-99.67c2.91-1.68,4.26-4,4-6.5s-2.13-5.11-5.57-7.1L429.64,357c-.16-.09-5.08-2.88-5.26-3a32.75,32.75,0,0,0-9.14-2.73C410.64,350.84,406,351.52,402.76,353.4Z" transform="translate(-77.44 -268)"/><path class="q" d="M321.69,518.13,505,412.63c5.5-3.17,4.81-8.72-1.54-12.39L424.36,354.6c-6.35-3.67-16-4.06-21.46-.89L219.63,459.2c-5.5,3.18-4.81,8.73,1.54,12.4l79.06,45.64C306.58,520.9,316.19,521.3,321.69,518.13Z" transform="translate(-77.44 -268)"/></g><path class="r" d="M295.72,500.28l-73.91-42.67c-3.72-2.15-5.58-5-5.63-8,0-.27,0-2.56,0-2.83.31-3.49,3-1.57,7.94-4.42L397.94,342c9.63-5.56,24.19-6.16,32.52-1.35l73.91,42.67c3.73,2.15,5.58-1.63,5.63,1.38,0,.26,0,3.67,0,3.93-.3,3.49-3,7.11-7.93,10L328.25,498.93C318.62,504.49,304.06,505.09,295.72,500.28Z" transform="translate(-77.44 -268)"/><path class="s" d="M397.94,341.69c9.63-5.56,24.19-6.17,32.52-1.35L504.37,383c3.66,2.11,5.39-1.41,5.59,1.54,0,.3,0,3.61,0,3.93-.28,3.49-3,7.11-7.93,10L328.25,498.79c-9.63,5.56-24.19,6.17-32.53,1.35l-73.91-42.67c-3.74-2.16-5.6-5-5.62-8.06,0-.3,0-2.53.06-2.83.41-3.44,3-1.73,7.9-4.55Z" transform="translate(-77.44 -268)"/><path class="t" d="M397.94,341.38c9.63-5.55,24.19-6.16,32.52-1.34l73.91,42.67c3.59,2.07,5.24-1.18,5.55,1.69,0,.36.08,3.57.06,3.93-.28,3.5-3,7.12-7.94,10L328.25,498.66c-9.63,5.56-24.19,6.16-32.53,1.35l-73.91-42.67c-3.75-2.17-5.62-5.06-5.62-8.09,0-.34,0-2.5.09-2.84.5-3.38,3-1.9,7.87-4.69Z" transform="translate(-77.44 -268)"/><path class="u" d="M397.94,341.08c9.63-5.55,24.19-6.16,32.52-1.34l73.91,42.67c3.53,2,5.11-1,5.51,1.85.06.41.13,3.51.1,3.93-.27,3.5-3,7.13-7.94,10L328.25,498.52c-9.63,5.56-24.19,6.17-32.53,1.35L221.81,457.2c-3.76-2.17-5.64-5.08-5.62-8.12,0-.36.06-2.47.13-2.84.57-3.33,3.06-2.07,7.83-4.82Z" transform="translate(-77.44 -268)"/><path class="v" d="M397.94,340.78c9.63-5.56,24.19-6.16,32.52-1.35l73.91,42.67c3.46,2,5-.72,5.48,2,.07.46.16,3.46.13,3.92-.27,3.51-3,7.14-7.94,10L328.25,498.39c-9.63,5.56-24.19,6.16-32.53,1.35l-73.91-42.67c-3.77-2.18-5.66-5.1-5.62-8.15,0-.4.08-2.44.16-2.84.64-3.29,3.1-2.25,7.8-5Z" transform="translate(-77.44 -268)"/><path class="w" d="M397.94,340.48c9.63-5.56,24.19-6.16,32.52-1.35l73.91,42.67c3.4,2,4.91-.49,5.44,2.18a36.6,36.6,0,0,1,.17,3.92c-.26,3.51-3,7.14-7.94,10L328.25,498.25c-9.63,5.56-24.19,6.17-32.53,1.35l-73.91-42.67c-3.79-2.19-5.67-5.11-5.62-8.18,0-.43.1-2.4.19-2.84.69-3.24,3.13-2.41,7.77-5.09Z" transform="translate(-77.44 -268)"/><path class="x" d="M397.94,340.18c9.63-5.56,24.19-6.16,32.52-1.35l73.91,42.67c3.33,1.92,4.83-.27,5.4,2.34a32,32,0,0,1,.21,3.91c-.26,3.51-3,7.15-7.94,10L328.25,498.12c-9.63,5.56-24.19,6.16-32.53,1.35L221.81,456.8c-3.8-2.2-5.68-5.14-5.62-8.21a27.36,27.36,0,0,1,.23-2.85c.73-3.19,3.15-2.58,7.73-5.22Z" transform="translate(-77.44 -268)"/><path class="y" d="M397.94,339.88c9.63-5.56,24.19-6.16,32.52-1.35l73.91,42.67c3.26,1.88,4.76-.05,5.36,2.5a28.32,28.32,0,0,1,.25,3.91c-.25,3.51-3,7.16-7.94,10L328.25,498c-9.63,5.56-24.19,6.17-32.53,1.35l-73.91-42.67c-3.81-2.2-5.7-5.15-5.62-8.24a25.15,25.15,0,0,1,.26-2.85c.78-3.14,3.18-2.75,7.7-5.35Z" transform="translate(-77.44 -268)"/><path class="z" d="M397.94,339.58c9.63-5.56,24.19-6.17,32.52-1.35l73.91,42.67c3.2,1.84,4.68.18,5.32,2.66a23.2,23.2,0,0,1,.29,3.9c-.25,3.52-3,7.17-7.94,10.05L328.25,497.85c-9.63,5.56-24.19,6.16-32.53,1.35l-73.91-42.67c-3.82-2.21-5.71-5.18-5.62-8.27a21.69,21.69,0,0,1,.3-2.86c.81-3.09,3.2-2.91,7.66-5.49Z" transform="translate(-77.44 -268)"/><path class="aa" d="M397.94,339.27c9.63-5.55,24.19-6.16,32.52-1.34l73.91,42.67c3.13,1.8,4.62.4,5.28,2.82a20.41,20.41,0,0,1,.33,3.9c-.24,3.52-2.94,7.17-7.94,10.06L328.25,497.71c-9.63,5.56-24.19,6.17-32.53,1.35l-73.91-42.67c-3.83-2.21-5.72-5.19-5.62-8.3a19.92,19.92,0,0,1,.33-2.85c.85-3.06,3.23-3.09,7.63-5.63Z" transform="translate(-77.44 -268)"/><path class="ab" d="M397.94,339c9.63-5.56,24.19-6.16,32.52-1.35l73.91,42.68c3.07,1.76,4.55.62,5.24,3a18.85,18.85,0,0,1,.37,3.89c-.24,3.52-2.94,7.18-7.94,10.07L328.25,497.58c-9.63,5.56-24.19,6.16-32.53,1.35l-73.91-42.67c-3.85-2.23-5.73-5.22-5.62-8.33a18.79,18.79,0,0,1,.36-2.86c.88-3,3.26-3.26,7.6-5.76Z" transform="translate(-77.44 -268)"/><path class="ac" d="M397.94,338.67c9.63-5.56,24.19-6.16,32.52-1.35L504.37,380c3,1.73,4.49.84,5.21,3.15A16.93,16.93,0,0,1,510,387c-.23,3.53-2.93,7.19-7.94,10.09L328.25,497.44c-9.63,5.56-24.19,6.17-32.53,1.35l-73.91-42.67c-3.86-2.23-5.74-5.23-5.62-8.36a16.68,16.68,0,0,1,.4-2.86c.91-3,3.28-3.42,7.56-5.89Z" transform="translate(-77.44 -268)"/><path class="ad" d="M397.94,338.37c9.63-5.56,24.19-6.16,32.52-1.35l73.91,42.67c2.93,1.69,4.43,1.06,5.17,3.31a15.4,15.4,0,0,1,.44,3.88c-.23,3.53-2.93,7.2-7.94,10.09L328.25,497.31c-9.63,5.56-24.19,6.16-32.53,1.35L221.81,456c-3.87-2.24-5.75-5.25-5.62-8.39a15.93,15.93,0,0,1,.43-2.87c.94-2.92,3.31-3.59,7.53-6Z" transform="translate(-77.44 -268)"/><path class="ae" d="M397.94,338.07c9.63-5.56,24.19-6.16,32.52-1.35l73.91,42.67c2.87,1.65,4.38,1.28,5.13,3.47a14.11,14.11,0,0,1,.48,3.87c-.22,3.54-2.92,7.21-7.94,10.11L328.25,497.18c-9.63,5.55-24.19,6.16-32.53,1.34l-73.91-42.67c-3.88-2.24-5.76-5.27-5.62-8.42a14.56,14.56,0,0,1,.47-2.87c1-2.88,3.34-3.76,7.49-6.15Z" transform="translate(-77.44 -268)"/><path class="af" d="M397.94,337.77c9.63-5.56,24.19-6.17,32.52-1.35l73.91,42.67c2.8,1.61,4.32,1.49,5.09,3.62a12.53,12.53,0,0,1,.52,3.88c-.22,3.54-2.92,7.21-7.94,10.11L328.25,497c-9.63,5.56-24.19,6.16-32.53,1.35l-73.91-42.67c-3.9-2.25-5.77-5.29-5.62-8.45a13.2,13.2,0,0,1,.5-2.87c1-2.85,3.37-3.93,7.46-6.3Z" transform="translate(-77.44 -268)"/><path class="ag" d="M397.94,337.46c9.63-5.55,24.19-6.16,32.52-1.34l73.91,42.67c2.74,1.57,4.26,1.71,5.05,3.78a11.67,11.67,0,0,1,.56,3.87c-.22,3.54-2.91,7.22-7.94,10.13L328.25,496.91c-9.63,5.55-24.19,6.16-32.53,1.34l-73.91-42.67c-3.91-2.26-5.78-5.31-5.61-8.48a11.68,11.68,0,0,1,.53-2.87c1-2.81,3.39-4.1,7.42-6.43Z" transform="translate(-77.44 -268)"/><path class="ah" d="M397.94,337.16c9.63-5.55,24.19-6.16,32.52-1.35l73.91,42.68c2.67,1.54,4.21,1.92,5,3.94a11,11,0,0,1,.61,3.87c-.22,3.54-2.92,7.23-7.95,10.13L328.25,496.77c-9.63,5.56-24.19,6.16-32.53,1.35l-73.91-42.67c-3.92-2.27-5.78-5.33-5.61-8.51a11.37,11.37,0,0,1,.56-2.88c1-2.77,3.42-4.27,7.39-6.56Z" transform="translate(-77.44 -268)"/><path class="ai" d="M397.94,336.86c9.63-5.56,24.19-6.16,32.52-1.35l73.91,42.67c2.6,1.51,4.15,2.14,5,4.11a10.12,10.12,0,0,1,.65,3.86c-.22,3.55-2.91,7.24-7.95,10.15L328.25,496.64c-9.63,5.55-24.19,6.16-32.53,1.34l-73.91-42.67c-3.93-2.27-5.79-5.34-5.61-8.54a10.63,10.63,0,0,1,.59-2.88c1.06-2.73,3.45-4.43,7.36-6.69Z" transform="translate(-77.44 -268)"/><path class="aj" d="M397.94,336.56c9.63-5.56,24.19-6.16,32.52-1.35l73.91,42.67c2.54,1.47,4.1,2.35,4.94,4.27A9.55,9.55,0,0,1,510,386c-.22,3.55-2.91,7.24-7.95,10.15L328.25,496.5c-9.63,5.56-24.19,6.16-32.53,1.35l-73.91-42.67c-3.95-2.28-5.8-5.37-5.61-8.57a10,10,0,0,1,.63-2.89c1.07-2.69,3.47-4.6,7.32-6.82Z" transform="translate(-77.44 -268)"/><path class="ak" d="M397.94,336.26c9.63-5.56,24.19-6.16,32.52-1.35l73.91,42.67c2.47,1.43,4.05,2.56,4.9,4.43a8.76,8.76,0,0,1,.72,3.85c-.22,3.55-2.9,7.25-7.95,10.17L328.25,496.37c-9.63,5.55-24.19,6.16-32.53,1.34L221.81,455c-4-2.28-5.81-5.38-5.61-8.6a9.45,9.45,0,0,1,.66-2.88c1.1-2.66,3.5-4.78,7.29-7Z" transform="translate(-77.44 -268)"/><path class="al" d="M397.94,336c9.63-5.56,24.19-6.16,32.52-1.35l73.91,42.67c2.41,1.39,4,2.77,4.86,4.59a8.22,8.22,0,0,1,.76,3.85c-.21,3.55-2.9,7.25-7.95,10.17L328.25,496.23c-9.63,5.56-24.19,6.16-32.53,1.35l-73.91-42.67c-4-2.3-5.81-5.41-5.61-8.63a9,9,0,0,1,.7-2.89c1.11-2.62,3.52-4.94,7.25-7.09Z" transform="translate(-77.44 -268)"/><path class="am" d="M295.72,497.44l-73.91-42.67c-8.34-4.81-7.29-13.22,2.34-18.78L397.94,335.66c9.63-5.56,24.19-6.17,32.52-1.35L504.37,377c8.34,4.81,7.29,13.22-2.33,18.78L328.25,496.1C318.62,501.65,304.06,502.26,295.72,497.44Z" transform="translate(-77.44 -268)"/><path class="an" d="M295.72,497.53l-73.91-42.67c-3.72-2.15-5.58-5-5.63-8,0-.27,0-6.06,0-6.33.31-3.49,3-1.57,7.94-4.42L397.94,335.74c9.63-5.56,24.19-6.16,32.52-1.35l73.91,42.67c3.73,2.15,5.58-1.63,5.63,1.38,0,.26,0,7.17,0,7.43-.3,3.49-3,7.11-7.93,10L328.25,496.18C318.62,501.74,304.06,502.34,295.72,497.53Z" transform="translate(-77.44 -268)"/><path class="ao" d="M397.94,335.44c9.63-5.56,24.19-6.17,32.52-1.35l73.91,42.67c3.64,2.1,5.26-1.42,5.57,1.5,0,.35.06,7,0,7.38-.4,3.46-3,7.06-7.92,9.9L328.25,495.88c-9.63,5.56-24.19,6.16-32.53,1.35l-73.91-42.68c-3.71-2.14-5.52-5-5.62-8,0-.34,0-5.94.09-6.29.54-3.4,3-1.69,7.87-4.49Z" transform="translate(-77.44 -268)"/><path class="ap" d="M397.94,335.13c9.63-5.55,24.19-6.16,32.52-1.34l73.91,42.67c3.56,2.05,5.05-1.21,5.51,1.62.07.44.13,6.88.07,7.33-.47,3.43-3,7-7.91,9.83L328.25,495.58c-9.63,5.55-24.19,6.16-32.53,1.34l-73.91-42.67c-3.69-2.13-5.49-5-5.62-7.95,0-.41.06-5.83.15-6.25.7-3.32,3-1.82,7.81-4.58Z" transform="translate(-77.44 -268)"/><path class="aq" d="M397.94,334.83c9.63-5.55,24.19-6.16,32.52-1.34l73.91,42.67c3.48,2,4.89-1,5.45,1.75.11.52.2,6.73.12,7.27-.52,3.4-3.05,6.95-7.9,9.76L328.25,495.27c-9.63,5.56-24.19,6.17-32.53,1.35L221.81,454c-3.68-2.12-5.46-4.95-5.62-7.91,0-.49.09-5.71.22-6.22.79-3.23,3.06-1.95,7.74-4.65Z" transform="translate(-77.44 -268)"/><path class="ar" d="M397.94,334.53c9.63-5.56,24.19-6.16,32.52-1.35l73.91,42.67c3.4,2,4.76-.77,5.4,1.88a69.48,69.48,0,0,1,.15,7.22c-.55,3.38-3.06,6.9-7.88,9.68L328.25,495c-9.63,5.56-24.19,6.16-32.53,1.35l-73.91-42.67c-3.66-2.11-5.44-4.93-5.61-7.88,0-.56.11-5.59.27-6.18.87-3.15,3.09-2.07,7.68-4.72Z" transform="translate(-77.44 -268)"/><path class="as" d="M397.94,334.23c9.63-5.56,24.19-6.16,32.52-1.35l73.91,42.67c3.32,1.92,4.66-.57,5.34,2a55.2,55.2,0,0,1,.2,7.16c-.58,3.36-3.08,6.86-7.87,9.62L328.25,494.67c-9.63,5.56-24.19,6.16-32.53,1.35l-73.91-42.67c-3.64-2.11-5.42-4.9-5.61-7.84a50.88,50.88,0,0,1,.34-6.14c.92-3.08,3.1-2.2,7.61-4.8Z" transform="translate(-77.44 -268)"/><path class="at" d="M397.94,333.93c9.63-5.56,24.19-6.16,32.52-1.35l73.91,42.67c3.23,1.87,4.56-.36,5.28,2.13a44.29,44.29,0,0,1,.25,7.1c-.61,3.33-3.1,6.8-7.86,9.55L328.25,494.37c-9.63,5.56-24.19,6.16-32.53,1.35l-73.91-42.67c-3.63-2.1-5.4-4.88-5.61-7.8a43.63,43.63,0,0,1,.4-6.11c1-3,3.13-2.32,7.55-4.87Z" transform="translate(-77.44 -268)"/><path class="au" d="M397.94,333.63c9.63-5.56,24.19-6.16,32.52-1.35L504.37,375c3.15,1.82,4.47-.16,5.22,2.25a37.77,37.77,0,0,1,.3,7.05c-.63,3.31-3.13,6.75-7.85,9.48L328.25,494.07c-9.63,5.56-24.19,6.16-32.53,1.35l-73.91-42.68c-3.61-2.08-5.39-4.85-5.61-7.76a37,37,0,0,1,.46-6.07c1-2.94,3.16-2.45,7.49-4.94Z" transform="translate(-77.44 -268)"/><path class="av" d="M397.94,333.33c9.63-5.56,24.19-6.17,32.52-1.35l73.91,42.67c3.07,1.77,4.39,0,5.16,2.37a31.53,31.53,0,0,1,.34,7c-.64,3.28-3.14,6.7-7.83,9.41L328.25,493.77c-9.63,5.55-24.19,6.16-32.53,1.34l-73.91-42.67c-3.6-2.07-5.37-4.83-5.6-7.72a31,31,0,0,1,.52-6c1-2.88,3.18-2.58,7.42-5Z" transform="translate(-77.44 -268)"/><path class="aw" d="M397.94,333c9.63-5.55,24.19-6.16,32.52-1.34l73.91,42.67c3,1.72,4.31.24,5.1,2.5a27.35,27.35,0,0,1,.39,6.94c-.66,3.26-3.16,6.65-7.82,9.34L328.25,493.46c-9.63,5.56-24.19,6.17-32.53,1.35l-73.91-42.67c-3.58-2.07-5.36-4.8-5.6-7.68a27.41,27.41,0,0,1,.58-6c1.07-2.81,3.21-2.7,7.36-5.1Z" transform="translate(-77.44 -268)"/><path class="ax" d="M397.94,332.72c9.63-5.56,24.19-6.16,32.52-1.35l73.91,42.68c2.91,1.67,4.24.43,5,2.62a23.75,23.75,0,0,1,.44,6.88c-.68,3.25-3.19,6.6-7.81,9.27L328.25,493.16c-9.63,5.56-24.19,6.16-32.53,1.35l-73.91-42.67c-3.56-2.06-5.35-4.78-5.6-7.65a23.61,23.61,0,0,1,.65-6c1.09-2.74,3.23-2.83,7.29-5.17Z" transform="translate(-77.44 -268)"/><path class="ay" d="M397.94,332.42c9.63-5.56,24.19-6.16,32.52-1.35l73.91,42.67c2.82,1.63,4.16.64,5,2.75a21,21,0,0,1,.49,6.83c-.7,3.22-3.21,6.55-7.8,9.2L328.25,492.86c-9.63,5.56-24.19,6.16-32.53,1.35l-73.91-42.67c-3.55-2.05-5.33-4.76-5.6-7.61a21.31,21.31,0,0,1,.71-5.92c1.11-2.69,3.26-3,7.23-5.25Z" transform="translate(-77.44 -268)"/><path class="az" d="M397.94,332.12c9.63-5.56,24.19-6.16,32.52-1.35l73.91,42.67c2.74,1.58,4.09.83,4.93,2.88a18.64,18.64,0,0,1,.52,6.77c-.71,3.2-3.22,6.5-7.78,9.13L328.25,492.56c-9.63,5.56-24.19,6.16-32.53,1.35l-73.91-42.67c-3.53-2-5.32-4.74-5.59-7.57a18.88,18.88,0,0,1,.77-5.89c1.13-2.62,3.28-3.08,7.16-5.32Z" transform="translate(-77.44 -268)"/><path class="ba" d="M397.94,331.82c9.63-5.56,24.19-6.16,32.52-1.35l73.91,42.67c2.66,1.53,4,1,4.87,3a16.62,16.62,0,0,1,.57,6.72c-.72,3.18-3.24,6.45-7.77,9.06L328.25,492.26c-9.63,5.56-24.19,6.16-32.53,1.35l-73.91-42.67c-3.52-2-5.31-4.71-5.59-7.54a17.06,17.06,0,0,1,.83-5.84c1.15-2.57,3.31-3.21,7.1-5.4Z" transform="translate(-77.44 -268)"/><path class="bb" d="M397.94,331.52c9.63-5.56,24.19-6.17,32.52-1.35l73.91,42.67c2.58,1.49,3.95,1.22,4.81,3.12a14.84,14.84,0,0,1,.62,6.67c-.74,3.16-3.27,6.39-7.76,9L328.25,492c-9.63,5.55-24.19,6.16-32.53,1.35l-73.91-42.68c-3.5-2-5.3-4.68-5.59-7.49a15.49,15.49,0,0,1,.9-5.81c1.17-2.51,3.32-3.34,7-5.48Z" transform="translate(-77.44 -268)"/><path class="bc" d="M397.94,331.21c9.63-5.55,24.19-6.16,32.52-1.34l73.91,42.67c2.5,1.44,3.88,1.41,4.75,3.25a13.32,13.32,0,0,1,.67,6.61c-.76,3.13-3.29,6.34-7.75,8.92L328.25,491.66c-9.63,5.55-24.19,6.16-32.53,1.34l-73.91-42.67c-3.48-2-5.29-4.66-5.58-7.45a13.94,13.94,0,0,1,1-5.78c1.19-2.45,3.35-3.46,7-5.55Z" transform="translate(-77.44 -268)"/><path class="bd" d="M397.94,330.91c9.63-5.55,24.19-6.16,32.52-1.35l73.91,42.68c2.41,1.39,3.81,1.59,4.69,3.37a12.06,12.06,0,0,1,.71,6.55c-.76,3.12-3.3,6.3-7.73,8.86L328.25,491.35c-9.63,5.56-24.19,6.17-32.53,1.35L221.81,450c-3.47-2-5.28-4.63-5.58-7.41a12.78,12.78,0,0,1,1-5.74c1.21-2.4,3.38-3.59,6.91-5.63Z" transform="translate(-77.44 -268)"/><path class="be" d="M397.94,330.61c9.63-5.56,24.19-6.16,32.52-1.35l73.91,42.67c2.33,1.35,3.75,1.79,4.63,3.5a11,11,0,0,1,.76,6.5c-.78,3.1-3.33,6.25-7.72,8.78L328.25,491.05c-9.63,5.56-24.19,6.16-32.53,1.35l-73.91-42.67c-3.45-2-5.27-4.61-5.58-7.38a11.82,11.82,0,0,1,1.08-5.7c1.22-2.35,3.4-3.72,6.84-5.7Z" transform="translate(-77.44 -268)"/><path class="bf" d="M397.94,330.31c9.63-5.56,24.19-6.16,32.52-1.35l73.91,42.67c2.25,1.3,3.68,2,4.57,3.63a10,10,0,0,1,.81,6.44c-.79,3.08-3.35,6.19-7.71,8.71L328.25,490.75c-9.63,5.56-24.19,6.16-32.53,1.35l-73.91-42.67c-3.44-2-5.26-4.59-5.58-7.34a10.91,10.91,0,0,1,1.14-5.67c1.25-2.29,3.43-3.84,6.78-5.77Z" transform="translate(-77.44 -268)"/><path class="bg" d="M397.94,330c9.63-5.56,24.19-6.16,32.52-1.35l73.91,42.67c2.17,1.25,3.61,2.16,4.51,3.75a9.08,9.08,0,0,1,.86,6.39c-.81,3.06-3.37,6.14-7.7,8.64L328.25,490.45c-9.63,5.56-24.19,6.16-32.53,1.35l-73.91-42.67c-3.42-2-5.25-4.56-5.57-7.3a10,10,0,0,1,1.2-5.63c1.26-2.25,3.45-4,6.71-5.85Z" transform="translate(-77.44 -268)"/><path class="bh" d="M397.94,329.71c9.63-5.56,24.19-6.16,32.52-1.35L504.37,371a11.55,11.55,0,0,1,4.46,3.87,8.36,8.36,0,0,1,.89,6.34c-.81,3-3.38,6.09-7.68,8.57L328.25,490.15c-9.63,5.56-24.19,6.16-32.53,1.35l-73.91-42.68c-3.41-2-5.24-4.53-5.57-7.26A9.31,9.31,0,0,1,217.5,436c1.28-2.2,3.48-4.09,6.65-5.92Z" transform="translate(-77.44 -268)"/><path class="bi" d="M295.72,491.19l-73.91-42.67c-8.34-4.81-7.29-13.22,2.34-18.78L397.94,329.41c9.63-5.56,24.19-6.17,32.52-1.35l73.91,42.67c8.34,4.81,7.29,13.22-2.33,18.78L328.25,489.85C318.62,495.4,304.06,496,295.72,491.19Z" transform="translate(-77.44 -268)"/><path class="bi" d="M295.72,491.19l-73.91-42.67c-8.34-4.81-7.29-13.22,2.34-18.78L397.94,329.41c9.63-5.56,24.19-6.17,32.52-1.35l73.91,42.67c8.34,4.81,7.29,13.22-2.33,18.78L328.25,489.85C318.62,495.4,304.06,496,295.72,491.19Z" transform="translate(-77.44 -268)"/><path class="bj" d="M224.2,429.75,398,329.43c9.61-5.54,24.14-6.14,32.46-1.34l73.88,42.66c8.32,4.8,7.28,13.19-2.33,18.73L328.21,489.8c-9.6,5.54-24.13,6.15-32.45,1.34l-73.89-42.65C213.55,443.68,214.6,435.3,224.2,429.75Z" transform="translate(-77.44 -268)"/><path class="bk" d="M224.26,429.75,398,329.46c9.58-5.53,24.08-6.13,32.38-1.34l73.86,42.64c8.3,4.8,7.26,13.17-2.32,18.7L328.18,489.75c-9.59,5.54-24.09,6.14-32.39,1.34l-73.85-42.64C213.64,443.66,214.68,435.29,224.26,429.75Z" transform="translate(-77.44 -268)"/><path class="bl" d="M224.32,429.76,398,329.49c9.56-5.52,24-6.12,32.31-1.34l73.83,42.63c8.28,4.78,7.25,13.14-2.32,18.66L328.14,489.7c-9.56,5.53-24,6.13-32.31,1.34L222,448.42C213.72,443.63,214.75,435.28,224.32,429.76Z" transform="translate(-77.44 -268)"/><path class="bm" d="M224.37,429.77,398,329.52c9.54-5.51,24-6.11,32.24-1.33l73.81,42.61c8.27,4.77,7.23,13.1-2.31,18.61L328.11,489.66c-9.54,5.51-24,6.11-32.24,1.33l-73.81-42.61C213.8,443.61,214.83,435.28,224.37,429.77Z" transform="translate(-77.44 -268)"/><path class="bn" d="M224.43,429.77,398,329.55c9.52-5.5,23.92-6.09,32.17-1.33L504,370.82c8.25,4.76,7.21,13.07-2.31,18.57L328.08,489.61c-9.53,5.5-23.93,6.1-32.17,1.33l-73.79-42.59C213.88,443.58,214.91,435.27,224.43,429.77Z" transform="translate(-77.44 -268)"/><path class="bo" d="M224.49,429.78,398,329.58c9.5-5.48,23.88-6.08,32.1-1.33l73.76,42.58c8.23,4.76,7.2,13.05-2.3,18.54L328,489.56c-9.5,5.49-23.87,6.08-32.1,1.33l-73.76-42.58C214,443.56,215,435.26,224.49,429.78Z" transform="translate(-77.44 -268)"/><path class="bp" d="M224.55,429.78l173.5-100.17c9.48-5.47,23.82-6.07,32-1.33l73.73,42.57c8.21,4.74,7.18,13-2.3,18.49L328,489.52c-9.48,5.47-23.82,6.06-32,1.32l-73.73-42.57C214,443.53,215.07,435.26,224.55,429.78Z" transform="translate(-77.44 -268)"/><path class="bq" d="M224.6,429.79,398.06,329.64c9.46-5.46,23.77-6.05,32-1.32l73.71,42.55c8.19,4.73,7.16,13-2.29,18.45L328,489.47c-9.45,5.46-23.76,6-32,1.32l-73.71-42.55C214.12,443.51,215.14,435.25,224.6,429.79Z" transform="translate(-77.44 -268)"/><path class="br" d="M224.66,429.79,398.08,329.67c9.44-5.45,23.71-6,31.89-1.32l73.68,42.54c8.17,4.72,7.15,13-2.29,18.41L327.94,489.42c-9.44,5.45-23.71,6-31.89,1.32L222.37,448.2C214.2,443.48,215.22,435.24,224.66,429.79Z" transform="translate(-77.44 -268)"/><path class="bs" d="M224.72,429.8,398.1,329.7c9.41-5.44,23.66-6,31.81-1.32l73.66,42.53c8.16,4.7,7.13,12.93-2.28,18.37L327.91,489.38c-9.42,5.43-23.66,6-31.82,1.31l-73.66-42.52C214.28,443.46,215.3,435.24,224.72,429.8Z" transform="translate(-77.44 -268)"/><path class="bt" d="M224.77,429.8,398.11,329.73c9.4-5.43,23.61-6,31.75-1.32l73.63,42.51c8.14,4.7,7.12,12.91-2.28,18.33L327.87,489.33c-9.39,5.42-23.61,6-31.74,1.31l-73.64-42.51C214.36,443.43,215.38,435.23,224.77,429.8Z" transform="translate(-77.44 -268)"/><path class="bu" d="M224.83,429.81l173.3-100.05c9.37-5.42,23.55-6,31.67-1.32l73.61,42.5c8.12,4.69,7.1,12.88-2.27,18.29l-173.3,100c-9.38,5.41-23.56,6-31.68,1.31l-73.6-42.49C214.44,443.41,215.46,435.22,224.83,429.81Z" transform="translate(-77.44 -268)"/><path class="bv" d="M224.89,429.82l173.25-100c9.36-5.4,23.51-6,31.61-1.31L503.33,371c8.1,4.68,7.08,12.85-2.27,18.25l-173.26,100c-9.35,5.41-23.5,6-31.6,1.31l-73.58-42.48C214.52,443.38,215.53,435.22,224.89,429.82Z" transform="translate(-77.44 -268)"/><path class="bw" d="M224.94,429.82l173.22-100c9.33-5.39,23.45-6,31.53-1.31L503.25,371c8.08,4.66,7.07,12.81-2.27,18.2l-173.21,100c-9.33,5.39-23.45,6-31.53,1.3L222.68,448C214.6,443.36,215.61,435.21,224.94,429.82Z" transform="translate(-77.44 -268)"/><path class="bx" d="M225,429.83l173.17-100c9.32-5.37,23.4-5.95,31.47-1.3L503.17,371c8.06,4.65,7.05,12.78-2.26,18.16l-173.17,100c-9.32,5.38-23.4,6-31.46,1.3L222.74,448C214.68,443.33,215.69,435.2,225,429.83Z" transform="translate(-77.44 -268)"/><path class="by" d="M225.06,429.83l173.13-100c9.29-5.36,23.34-5.94,31.39-1.3L503.09,371c8,4.65,7,12.76-2.26,18.13L327.7,489.09c-9.29,5.37-23.34,6-31.39,1.3L222.8,448C214.76,443.31,215.77,435.2,225.06,429.83Z" transform="translate(-77.44 -268)"/><path class="bz" d="M225.11,429.84l173.1-99.94c9.27-5.35,23.29-5.93,31.31-1.29L503,371c8,4.64,7,12.73-2.25,18.08L327.67,489.05c-9.27,5.35-23.29,5.93-31.32,1.3l-73.48-42.43C214.84,443.28,215.85,435.19,225.11,429.84Z" transform="translate(-77.44 -268)"/><path class="ca" d="M225.17,429.84l173.05-99.91c9.25-5.34,23.24-5.92,31.25-1.29l73.46,42.41c8,4.62,7,12.7-2.25,18L327.63,489c-9.24,5.34-23.23,5.92-31.24,1.3l-73.46-42.42C214.92,443.26,215.92,435.18,225.17,429.84Z" transform="translate(-77.44 -268)"/><path class="cb" d="M225.23,429.85l173-99.89c9.22-5.33,23.18-5.9,31.17-1.29l73.44,42.4c8,4.61,7,12.67-2.24,18L327.6,489c-9.23,5.33-23.19,5.91-31.18,1.3L223,447.85C215,443.23,216,435.18,225.23,429.85Z" transform="translate(-77.44 -268)"/><path class="cc" d="M225.29,429.85l173-99.86c9.21-5.31,23.14-5.89,31.11-1.29l73.41,42.38c8,4.61,7,12.65-2.24,18l-173,99.87c-9.21,5.31-23.14,5.89-31.11,1.29l-73.41-42.39C215.08,443.21,216.08,435.17,225.29,429.85Z" transform="translate(-77.44 -268)"/><path class="cd" d="M225.34,429.86,398.27,330c9.18-5.3,23.08-5.88,31-1.29l73.39,42.37c7.95,4.59,6.95,12.62-2.23,17.92L327.53,488.86c-9.18,5.3-23.08,5.88-31,1.29l-73.39-42.37C215.16,443.19,216.16,435.16,225.34,429.86Z" transform="translate(-77.44 -268)"/><path class="ce" d="M225.4,429.87l172.88-99.82c9.17-5.29,23-5.87,31-1.28l73.36,42.35c7.93,4.58,6.94,12.59-2.23,17.88L327.5,488.81c-9.17,5.29-23,5.87-31,1.29l-73.35-42.36C215.24,443.16,216.23,435.16,225.4,429.87Z" transform="translate(-77.44 -268)"/><path class="ce" d="M225.46,429.87,398.3,330.08c9.14-5.28,23-5.85,30.89-1.28l73.34,42.34c7.91,4.57,6.92,12.55-2.22,17.83L327.46,488.76c-9.14,5.28-23,5.86-30.89,1.29l-73.33-42.34C215.32,443.14,216.31,435.15,225.46,429.87Z" transform="translate(-77.44 -268)"/><path class="cf" d="M225.51,429.88l172.81-99.77c9.12-5.27,22.92-5.84,30.82-1.28l73.31,42.33c7.9,4.56,6.9,12.52-2.22,17.79l-172.8,99.77c-9.12,5.26-22.92,5.84-30.82,1.28L223.3,447.67C215.4,443.11,216.39,435.14,225.51,429.88Z" transform="translate(-77.44 -268)"/><path class="cg" d="M225.57,429.88l172.76-99.74c9.1-5.26,22.87-5.83,30.75-1.28l73.28,42.31c7.89,4.55,6.9,12.5-2.2,17.76L327.4,488.67c-9.11,5.26-22.87,5.83-30.76,1.28l-73.28-42.31C215.48,443.09,216.47,435.14,225.57,429.88Z" transform="translate(-77.44 -268)"/><path class="ch" d="M225.63,429.89l172.72-99.72c9.08-5.25,22.81-5.81,30.68-1.27l73.25,42.29c7.87,4.54,6.88,12.47-2.2,17.71L327.36,488.62c-9.08,5.25-22.81,5.82-30.68,1.28l-73.26-42.3C215.56,443.06,216.55,435.13,225.63,429.89Z" transform="translate(-77.44 -268)"/><path class="ci" d="M225.68,429.89,398.36,330.2c9.06-5.23,22.77-5.8,30.61-1.27l73.23,42.28c7.85,4.53,6.87,12.44-2.19,17.67l-172.68,99.7c-9.06,5.23-22.77,5.8-30.61,1.27l-73.23-42.29C215.64,443,216.62,435.12,225.68,429.89Z" transform="translate(-77.44 -268)"/><path class="cj" d="M225.74,429.9l172.64-99.67c9-5.22,22.71-5.79,30.54-1.27l73.2,42.27c7.83,4.52,6.85,12.41-2.19,17.63L327.29,488.53c-9,5.22-22.71,5.78-30.53,1.27l-73.21-42.27C215.72,443,216.7,435.12,225.74,429.9Z" transform="translate(-77.44 -268)"/><path class="ck" d="M225.8,429.9l172.59-99.64c9-5.21,22.66-5.78,30.47-1.27L502,371.24c7.81,4.51,6.83,12.39-2.18,17.59l-172.6,99.65c-9,5.21-22.66,5.77-30.47,1.27l-73.18-42.26C215.8,443,216.78,435.11,225.8,429.9Z" transform="translate(-77.44 -268)"/><path class="cl" d="M225.85,429.91l172.56-99.63c9-5.19,22.6-5.75,30.4-1.26L502,371.26c7.79,4.5,6.82,12.36-2.18,17.55L327.23,488.44c-9,5.19-22.61,5.75-30.4,1.26l-73.16-42.24C215.88,443,216.86,435.1,225.85,429.91Z" transform="translate(-77.44 -268)"/><path class="cm" d="M225.91,429.91l172.52-99.6c9-5.18,22.55-5.74,30.32-1.25l73.13,42.22c7.78,4.49,6.8,12.33-2.17,17.51l-172.52,99.6c-9,5.18-22.55,5.74-30.32,1.26l-73.14-42.23C216,442.94,216.94,435.1,225.91,429.91Z" transform="translate(-77.44 -268)"/><path class="cn" d="M226,429.92l172.47-99.58c9-5.17,22.5-5.73,30.26-1.25l73.1,42.21c7.76,4.47,6.78,12.3-2.17,17.46L327.16,488.34c-9,5.17-22.5,5.73-30.26,1.26l-73.1-42.21C216,442.91,217,435.09,226,429.92Z" transform="translate(-77.44 -268)"/><path class="co" d="M226,429.93l172.43-99.56c8.93-5.16,22.44-5.72,30.18-1.25l73.08,42.2c7.74,4.46,6.77,12.26-2.16,17.42L327.12,488.29c-8.93,5.16-22.44,5.72-30.18,1.26l-73.08-42.2C216.12,442.89,217.09,435.08,226,429.93Z" transform="translate(-77.44 -268)"/><path class="cp" d="M226.08,429.93,398.47,330.4c8.91-5.14,22.4-5.7,30.11-1.25l73.06,42.18c7.72,4.46,6.75,12.24-2.16,17.39L327.09,488.25c-8.91,5.14-22.39,5.7-30.11,1.25l-73.06-42.18C216.2,442.86,217.17,435.08,226.08,429.93Z" transform="translate(-77.44 -268)"/><path class="cq" d="M226.14,429.94l172.35-99.51c8.89-5.13,22.34-5.69,30-1.24l73,42.16c7.7,4.45,6.74,12.21-2.16,17.35L327.06,488.2c-8.9,5.13-22.35,5.69-30.05,1.25l-73-42.17C216.28,442.84,217.25,435.07,226.14,429.94Z" transform="translate(-77.44 -268)"/><path class="cr" d="M226.2,429.94l172.3-99.48c8.87-5.12,22.29-5.68,30-1.24l73,42.15c7.68,4.43,6.72,12.18-2.15,17.3L327,488.15c-8.87,5.13-22.29,5.68-30,1.25l-73-42.15C216.36,442.81,217.33,435.06,226.2,429.94Z" transform="translate(-77.44 -268)"/><path class="cs" d="M226.25,430l172.27-99.46c8.85-5.11,22.24-5.66,29.9-1.24l73,42.14c7.66,4.42,6.7,12.15-2.15,17.26L327,488.11c-8.85,5.11-22.24,5.66-29.9,1.24l-73-42.14C216.44,442.79,217.4,435.06,226.25,430Z" transform="translate(-77.44 -268)"/><path class="ct" d="M226.31,430l172.23-99.43c8.82-5.1,22.18-5.65,29.82-1.24l73,42.12c7.65,4.42,6.69,12.13-2.14,17.23L327,488.06c-8.82,5.1-22.18,5.65-29.82,1.24l-73-42.13C216.52,442.76,217.48,435.05,226.31,430Z" transform="translate(-77.44 -268)"/><path class="cu" d="M226.37,430l172.18-99.41c8.81-5.09,22.13-5.64,29.76-1.24l72.93,42.11c7.63,4.41,6.67,12.1-2.14,17.18L326.92,488c-8.81,5.09-22.13,5.64-29.76,1.24l-72.93-42.11C216.6,442.74,217.56,435,226.37,430Z" transform="translate(-77.44 -268)"/><path class="cv" d="M226.42,430l172.15-99.38c8.78-5.07,22.07-5.63,29.68-1.23l72.91,42.09c7.61,4.39,6.65,12.07-2.13,17.14L326.89,488c-8.79,5.07-22.08,5.62-29.69,1.23l-72.91-42.1C216.68,442.71,217.64,435,226.42,430Z" transform="translate(-77.44 -268)"/><path class="cw" d="M226.48,430l172.1-99.36c8.77-5.06,22-5.61,29.62-1.23l72.88,42.08c7.59,4.38,6.64,12-2.13,17.1l-172.1,99.36c-8.76,5.06-22,5.61-29.61,1.23l-72.89-42.08C216.76,442.69,217.72,435,226.48,430Z" transform="translate(-77.44 -268)"/><path class="cx" d="M226.54,430,398.6,330.64c8.74-5.05,22-5.6,29.54-1.23L501,371.48c7.57,4.37,6.62,12-2.12,17L326.82,487.87c-8.75,5.05-22,5.6-29.55,1.23L224.42,447C216.84,442.66,217.79,435,226.54,430Z" transform="translate(-77.44 -268)"/><path class="cy" d="M226.59,430l172-99.31c8.73-5,21.92-5.59,29.48-1.23l72.83,42.05c7.55,4.36,6.61,12-2.12,17l-172,99.31c-8.72,5-21.92,5.59-29.47,1.23L224.48,447C216.92,442.64,217.87,435,226.59,430Z" transform="translate(-77.44 -268)"/><path class="cz" d="M226.65,430l172-99.3c8.7-5,21.87-5.56,29.4-1.21l72.81,42c7.53,4.35,6.59,11.95-2.11,17l-172,99.29c-8.7,5-21.87,5.57-29.4,1.22l-72.81-42C217,442.61,218,435,226.65,430Z" transform="translate(-77.44 -268)"/><path class="da" d="M226.71,430l171.94-99.27c8.68-5,21.81-5.55,29.33-1.21l72.78,42c7.52,4.34,6.57,11.92-2.11,16.93L326.72,487.73c-8.69,5-21.82,5.56-29.34,1.22l-72.78-42C217.08,442.59,218,435,226.71,430Z" transform="translate(-77.44 -268)"/><path class="db" d="M226.77,430l171.89-99.25c8.66-5,21.76-5.54,29.26-1.21l72.76,42c7.5,4.33,6.56,11.89-2.1,16.89l-171.9,99.24c-8.66,5-21.76,5.55-29.26,1.22l-72.76-42C217.17,442.56,218.11,435,226.77,430Z" transform="translate(-77.44 -268)"/><path class="dc" d="M226.82,430l171.86-99.22c8.64-5,21.7-5.53,29.19-1.21l72.73,42c7.48,4.32,6.54,11.87-2.1,16.86L326.65,487.64c-8.64,5-21.71,5.53-29.19,1.21l-72.73-42C217.25,442.54,218.18,435,226.82,430Z" transform="translate(-77.44 -268)"/><path class="dd" d="M226.88,430l171.81-99.2c8.62-5,21.66-5.51,29.12-1.2l72.71,42c7.46,4.31,6.52,11.84-2.09,16.81l-171.82,99.2c-8.61,5-21.65,5.52-29.11,1.21l-72.71-42C217.33,442.51,218.26,435,226.88,430Z" transform="translate(-77.44 -268)"/><path class="de" d="M226.94,430l171.77-99.17c8.6-5,21.6-5.5,29.05-1.2l72.68,42c7.44,4.3,6.51,11.81-2.09,16.77L326.58,487.54c-8.6,5-21.6,5.51-29.05,1.21l-72.68-42C217.41,442.49,218.34,435,226.94,430Z" transform="translate(-77.44 -268)"/><path class="df" d="M227,430l171.73-99.15c8.58-4.95,21.55-5.49,29-1.2l72.66,41.95c7.42,4.29,6.49,11.78-2.08,16.73L326.55,487.5c-8.58,4.95-21.55,5.48-29,1.2l-72.66-41.95C217.49,442.46,218.42,435,227,430Z" transform="translate(-77.44 -268)"/><path class="dg" d="M227.05,430,398.74,330.9c8.55-4.94,21.5-5.48,28.9-1.2l72.64,41.94c7.4,4.27,6.48,11.74-2.08,16.68L326.51,487.45c-8.55,4.94-21.49,5.47-28.9,1.2L225,446.71C217.57,442.44,218.5,435,227.05,430Z" transform="translate(-77.44 -268)"/><path class="dh" d="M227.11,430l171.65-99.1c8.53-4.93,21.44-5.46,28.83-1.2l72.61,41.92c7.39,4.27,6.46,11.72-2.07,16.65L326.48,487.4c-8.54,4.93-21.45,5.46-28.84,1.2L225,446.68C217.65,442.41,218.57,435,227.11,430Z" transform="translate(-77.44 -268)"/><path class="di" d="M227.16,430,398.77,331c8.51-4.92,21.39-5.45,28.76-1.19l72.59,41.9c7.37,4.26,6.44,11.69-2.07,16.61L326.44,487.35c-8.51,4.92-21.39,5.45-28.76,1.2L225.1,446.64C217.73,442.39,218.65,435,227.16,430Z" transform="translate(-77.44 -268)"/><path class="dj" d="M227.22,430,398.79,331c8.49-4.9,21.33-5.44,28.69-1.19L500,371.69c7.36,4.24,6.44,11.66-2.06,16.56L326.41,487.31c-8.49,4.9-21.34,5.43-28.69,1.19l-72.56-41.89C217.81,442.36,218.73,434.94,227.22,430Z" transform="translate(-77.44 -268)"/><path class="dk" d="M227.28,430.05,398.8,331c8.47-4.89,21.29-5.42,28.62-1.19L500,371.71c7.34,4.23,6.42,11.63-2.05,16.52l-171.52,99c-8.48,4.89-21.29,5.42-28.63,1.19l-72.53-41.88C217.89,442.34,218.81,434.94,227.28,430.05Z" transform="translate(-77.44 -268)"/><path class="dl" d="M227.33,430.05l171.49-99c8.45-4.88,21.23-5.41,28.55-1.19l72.5,41.86c7.32,4.23,6.4,11.61-2.05,16.49l-171.48,99c-8.45,4.88-21.23,5.41-28.55,1.19l-72.5-41.86C218,442.31,218.89,434.93,227.33,430.05Z" transform="translate(-77.44 -268)"/><path class="dm" d="M227.39,430.06l171.44-99c8.43-4.87,21.18-5.4,28.48-1.18l72.48,41.84c7.3,4.22,6.39,11.58-2,16.44l-171.44,99c-8.43,4.86-21.18,5.39-28.48,1.18L225.35,446.5C218.05,442.29,219,434.92,227.39,430.06Z" transform="translate(-77.44 -268)"/><path class="dn" d="M227.45,430.06l171.4-98.95c8.41-4.86,21.13-5.39,28.41-1.18l72.45,41.83c7.28,4.2,6.37,11.55-2,16.4l-171.4,99c-8.4,4.85-21.12,5.38-28.4,1.18l-72.46-41.84C218.13,442.26,219,434.92,227.45,430.06Z" transform="translate(-77.44 -268)"/><path class="do" d="M227.51,430.07l171.36-98.94c8.38-4.84,21.07-5.36,28.33-1.17l72.43,41.82c7.27,4.19,6.36,11.52-2,16.36L326.24,487.07c-8.39,4.84-21.07,5.37-28.34,1.18l-72.43-41.82C218.21,442.24,219.12,434.91,227.51,430.07Z" transform="translate(-77.44 -268)"/><path class="dp" d="M227.56,430.07l171.32-98.91c8.37-4.83,21-5.35,28.27-1.17l72.4,41.81c7.25,4.18,6.34,11.49-2,16.32L326.21,487c-8.37,4.83-21,5.35-28.27,1.17l-72.41-41.81C218.29,442.21,219.2,434.9,227.56,430.07Z" transform="translate(-77.44 -268)"/><path class="dq" d="M227.62,430.08,398.9,331.19c8.34-4.81,21-5.34,28.19-1.17l72.38,41.79c7.23,4.18,6.32,11.46-2,16.28L326.17,487c-8.34,4.82-21,5.34-28.19,1.17L225.6,446.36C218.37,442.19,219.27,434.9,227.62,430.08Z" transform="translate(-77.44 -268)"/><path class="dr" d="M227.68,430.09l171.23-98.87c8.33-4.8,20.92-5.33,28.13-1.16l72.35,41.77c7.21,4.16,6.31,11.43-2,16.24L326.14,486.93c-8.33,4.81-20.92,5.33-28.13,1.17l-72.35-41.78C218.45,442.16,219.35,434.89,227.68,430.09Z" transform="translate(-77.44 -268)"/><path class="ds" d="M227.73,430.09l171.2-98.84c8.3-4.79,20.86-5.31,28.05-1.16l72.33,41.76c7.19,4.15,6.29,11.4-2,16.2L326.1,486.88c-8.3,4.8-20.86,5.32-28.05,1.17l-72.33-41.76C218.53,442.14,219.43,434.88,227.73,430.09Z" transform="translate(-77.44 -268)"/><path class="dt" d="M467.44,416.27l8.79-5.08a4.74,4.74,0,0,0,2-3.79h0c0-1.47-.89-2.14-2-1.51L467.44,411a4.74,4.74,0,0,0-2,3.79h0C465.45,416.23,466.34,416.9,467.44,416.27Z" transform="translate(-77.44 -268)"/><path class="du" d="M466.65,416a1.09,1.09,0,0,0,.53-.17l8.79-5.08a4.24,4.24,0,0,0,1.73-3.34c0-.57-.18-1.23-.68-1.23a1.09,1.09,0,0,0-.53.17l-8.79,5.08a4.24,4.24,0,0,0-1.73,3.34C466,415.33,466.15,416,466.65,416Z" transform="translate(-77.44 -268)"/><path class="dv" d="M451.75,425.33l8.79-5.08a4.76,4.76,0,0,0,2-3.79h0c0-1.47-.89-2.14-2-1.51L451.75,420a4.74,4.74,0,0,0-2,3.79h0C449.76,425.29,450.65,426,451.75,425.33Z" transform="translate(-77.44 -268)"/><path class="dw" d="M451,425.05a1.12,1.12,0,0,0,.53-.17l8.79-5.08a4.24,4.24,0,0,0,1.73-3.34c0-.57-.18-1.23-.68-1.23a1.09,1.09,0,0,0-.53.17L452,420.48a4.24,4.24,0,0,0-1.73,3.34C450.28,424.39,450.46,425.05,451,425.05Z" transform="translate(-77.44 -268)"/><path class="dx" d="M310.55,488.36h0a21.76,21.76,0,0,1-10.71-2.58l-70.29-40.57c-3-1.71-4.59-4-4.59-6.48s1.61-4.72,4.53-6.4L404.54,331.26a21.57,21.57,0,0,1,10.59-2.54,21.8,21.8,0,0,1,10.72,2.58l70.28,40.58c3,1.71,4.59,4,4.59,6.47s-1.6,4.72-4.52,6.41l-175,101.06A21.5,21.5,0,0,1,310.55,488.36ZM415.13,329.72A20.51,20.51,0,0,0,405,332.13L230,433.19c-2.6,1.5-4,3.47-4,5.54s1.45,4.09,4.09,5.61l70.29,40.58a20.78,20.78,0,0,0,10.21,2.44h0a20.52,20.52,0,0,0,10.1-2.4L495.7,383.89c2.59-1.5,4-3.46,4-5.54s-1.45-4.08-4.09-5.61l-70.28-40.58A20.85,20.85,0,0,0,415.13,329.72Z" transform="translate(-77.44 -268)"/><path class="bx" d="M464.35,360.63l-17.43-10.07c-.69-.39-.6-1.09.19-1.54h0a3,3,0,0,1,2.68-.11L467.22,359c.69.4.6,1.09-.19,1.55h0A3,3,0,0,1,464.35,360.63Z" transform="translate(-77.44 -268)"/><path class="dy" d="M369,408.07l-11.32-6.54L355,403.06l11.32,6.53Zm-5.14,4.07-13.51-7.8-2.64,1.53,13.5,7.8Zm16.59,2.54-9.27-5.35-2.64,1.52,9.27,5.36Zm5.8,3.35-3.61-2.09-2.65,1.53,3.62,2.08Zm-53.12-30.67-8.26-4.77-2.65,1.52,8.27,4.78Zm-1.73,6-12.63-7.29-2.65,1.52,12.64,7.3Zm34.64,20-2.65,1.53,3.55,2,2.64-1.52Zm-16-16.28-14.73-8.5-2.64,1.53,14.73,8.5Zm5.46,3.15-3.28-1.89-2.64,1.53,3.28,1.89Zm-7.33,2.81L341,399l-2.64,1.53,7.09,4.09Zm-14.59-8.42-2.64,1.53,5.32,3.07,2.64-1.53Zm35.54,23.57,9.68,5.59,2.65-1.52-9.69-5.59Zm31.25,7.95-11.94-6.89-2.64,1.52,11.93,6.89Zm7.7,4.45-5.52-3.19L399.85,429l5.53,3.19Zm-66.77-10-6.9-4-2,1.13,6.9,4Zm2.16-1.72,10.24,5.93,2-1.14-10.23-5.92Zm18.74,5.64,8.66,5.05,2-1.14-8.65-5.05Zm-8.56,5.53,12.4,7.22,2-1.14L355.55,429Zm1.68-4.31,13.47,7.87,2-1.13-13.47-7.87Zm-43.21-25,4,2.29,2-1.14-4-2.28Zm10.62,9.1-2.44-1.4-2,1.13,2.43,1.41Zm2.2-4-5.27-3.05-2,1.13,5.28,3.05Zm11.67,6.73-10-5.8-2,1.14,10,5.8Zm9.9,16.25-15.12-8.78-2,1.13,15.12,8.78ZM319,399.64,330,406l2-1.14-11-6.33ZM345.72,415l14.81,8.61,2-1.14-14.82-8.6Zm.87,21.52,2-1.14L338,429.25l-2,1.13Zm19.67,3.9L348.07,429.9l-2,1.14L364.3,441.6ZM346.06,413l-8.42-4.86-2,1.14,8.42,4.86ZM321,414.21l-8.52-4.92-2,1.14,8.52,4.92Zm22.77,2.67-5.58-3.22-2,1.13,5.58,3.23Zm-32.91-8.53-5.28-3-2,1.13,5.27,3.05Zm-5.14-5.93,11,6.32,2-1.13-11-6.33Zm8,12.83-11-6.33-2,1.14,11,6.32Zm19,.5-8.42-4.86-2,1.13,8.42,4.87Zm3.61,12.56-6.9-4-2,1.13,6.9,4Zm-12.69.18,2.64,1.53,2-1.14-2.63-1.52ZM327.9,431l7.2,4.16,2-1.13-7.2-4.16Zm-10.48-11.29,8.42,4.87,2-1.14-8.42-4.86Zm-12.35-1.89,5.28,3.05,2-1.14-5.28-3Zm24.64,1.48-7.1-4.1-2,1.13,7.1,4.1Zm-16.35-1.93,2.44,1.41,2-1.14-2.44-1.4Zm71.08,17.92-2,1.13,8.34,4.74,2-1.14Zm-9.06,7.51,6.36,3.6,2-1.14-6.35-3.59Zm-9.31-.13L377.2,449l2-1.14L368,441.49Zm-1.84,4.17,8.33,4.74,2-1.14-8.34-4.73Zm-16-9.29,14.38,8.36,2-1.14-14.39-8.36ZM312,421.76l10,5.8,2-1.14-10-5.8Zm7.41-24.19-10.85-6.28-2,1.14,10.84,6.27Zm53.05,33,8.42,4.87,2-1.14-8.42-4.86ZM331.61,406.9l2.44,1.41,2-1.14-2.44-1.4Zm56.48,35.6-16-9.18-2,1.13,16.05,9.19Zm-12-1.62-6.48-3.74-2,1.13L374.1,442Zm-22.13-12.83-11.06-6.44-2,1.13L352,429.18ZM312.4,398.78l-8.4-4.87-2,1.14,8.41,4.87Zm-28.52,6.75,14,8.09,2-1.14-14-8.09ZM301.13,408l-10.74-6.22-2,1.14,10.74,6.21Zm2.81-3.62-9-5.22-2,1.14,9,5.22Zm2.1-4-6.58-3.82-2,1.14,6.58,3.81Zm-6.55,14.2,4,2.29,2-1.14-4-2.28Z" transform="translate(-77.44 -268)"/><g class="dz"><path class="ea" d="M468.23,379.94l10.08,5.82a1.67,1.67,0,0,0,1.51,0,.46.46,0,0,0,0-.87l-10.08-5.82a1.67,1.67,0,0,0-1.51,0A.46.46,0,0,0,468.23,379.94Zm9,6.41-10.08-5.82a1.65,1.65,0,0,0-1.5,0,.46.46,0,0,0,0,.87l10.08,5.82a1.67,1.67,0,0,0,1.51,0A.46.46,0,0,0,477.28,386.35Zm-2.53,1.46L464.67,382a1.65,1.65,0,0,0-1.5,0,.46.46,0,0,0,0,.87l10.09,5.82a1.65,1.65,0,0,0,1.5,0A.46.46,0,0,0,474.75,387.81Z" transform="translate(-77.44 -268)"/></g><polygon class="bx" points="323.07 120.31 337.96 159.38 390.74 128.9 323.07 120.31"/><polygon class="bx" points="336.35 159.17 321.47 120.1 253.8 111.51 336.35 159.17"/><polygon class="bx" points="322.72 119.38 390.39 127.97 307.84 80.31 322.72 119.38"/><polygon class="bx" points="253.45 110.58 321.12 119.18 306.23 80.11 253.45 110.58"/><polygon class="dy" points="338.12 80.34 332.91 83.35 327.66 80.32 323.73 82.59 332.93 87.91 342.08 82.63 338.12 80.34"/><polygon class="dy" points="332.9 82.19 337.12 79.76 332.88 77.31 328.66 79.74 332.9 82.19"/><polygon class="dy" points="332.87 76.17 343.07 82.06 347.51 79.5 332.84 71.03 318.27 79.44 322.73 82.02 332.87 76.17"/><g class="dz"><polygon class="ea" points="199.36 164.7 160.08 164.63 199.49 187.38 199.36 164.7"/><polygon class="ea" points="200.7 141.18 200.82 163.85 240.1 163.93 200.7 141.18"/><polygon class="ea" points="199.36 163.85 199.23 141.18 160.08 163.78 199.36 163.85"/><polygon class="ea" points="240.1 164.77 200.83 164.7 200.95 187.38 240.1 164.77"/><polygon class="ea" points="240.84 164.35 240.84 164.35 240.84 164.35 240.84 164.35"/><polygon class="ea" points="200.22 187.8 200.22 187.8 200.22 187.8 200.22 187.8"/></g><g class="dz"><polygon class="ea" points="243.22 190.16 203.94 190.09 243.34 212.84 243.22 190.16"/><polygon class="ea" points="244.56 166.64 244.68 189.32 283.96 189.39 244.56 166.64"/><polygon class="ea" points="243.22 189.32 243.09 166.64 203.94 189.25 243.22 189.32"/><polygon class="ea" points="283.96 190.24 244.69 190.16 244.81 212.84 283.96 190.24"/><polygon class="ea" points="284.69 189.81 284.69 189.81 284.69 189.81 284.69 189.81"/><polygon class="ea" points="244.08 213.26 244.08 213.26 244.08 213.26 244.08 213.26"/></g><g class="eb"><path class="q" d="M421.39,383.58l2.64-1.53-11.32-6.54L410.07,377Zm-16-5.25-2.65,1.52,13.51,7.8,2.64-1.53Zm27.46,11.86,2.64-1.53-9.28-5.35-2.64,1.53Zm4.82-.27L435,391.45l11.12,6.38,2.64-1.53Zm-16.6-2.54-2.64,1.53,3.54,2,2.65-1.52Zm-16.79-16.75-19.49-11.16L382.15,361l19.49,11.16Zm3.61,5.15,2.64-1.53-4.07-2.36-2.64,1.52ZM396.11,373l-2.64,1.53,7.09,4.09,2.65-1.52Zm-9.87-5.64-2.65,1.52,7.7,4.39,2.64-1.53Zm37.92,24.88,9.68,5.59,2.64-1.52-9.68-5.59Z" transform="translate(-77.44 -268)"/></g><path class="ec" d="M421.39,382.54,424,381l-11.32-6.53L410.07,376Zm-16-5.25-2.65,1.53,13.51,7.79,2.64-1.53Zm27.46,11.86,2.64-1.52-9.28-5.36-2.64,1.53Zm4.82-.26L435,390.41l11.12,6.38,2.64-1.53Zm-16.6-2.55-2.64,1.53,3.54,2.05,2.65-1.53Zm-16.79-16.75-19.49-11.16L382.15,360l19.49,11.15Zm3.61,5.15,2.64-1.52-4.07-2.37-2.64,1.52Zm-11.78-2.8-2.64,1.52,7.09,4.1,2.65-1.53Zm-9.87-5.65-2.65,1.53,7.7,4.38,2.64-1.52Zm37.92,24.89,9.68,5.59,2.64-1.53-9.68-5.59Z" transform="translate(-77.44 -268)"/><g class="ed"><path class="ee" d="M401.79,417.12a14,14,0,0,1-7-1.67L378,405.8l-16.73-9.66a6.54,6.54,0,0,1-3.6-5.6c0-2.52,1.66-4.93,4.55-6.6a18,18,0,0,1,8.78-2.21,14,14,0,0,1,7,1.67l16.72,9.65,16.72,9.65a6.57,6.57,0,0,1,3.61,5.61c0,2.52-1.66,4.93-4.55,6.6A18,18,0,0,1,401.79,417.12Z" transform="translate(-77.44 -268)"/><path class="ef" d="M362.88,384.14h0a17.37,17.37,0,0,1,8.54-2.15,14.32,14.32,0,0,1,6.05,1.22c.26.12.56.28.8.42l16.29,9.4,1.36.79,14.92,8.62a8.06,8.06,0,0,1,2.93,2.83,5.63,5.63,0,0,1,.72,2.51c.08,2.44-1.49,4.8-4.34,6.44h0a17.41,17.41,0,0,1-8.55,2.15,14.25,14.25,0,0,1-6-1.22c-.26-.12-.57-.28-.81-.42l-16.28-9.4-1.37-.79-14.92-8.61a8.05,8.05,0,0,1-2.92-2.84,5.59,5.59,0,0,1-.72-2.51C358.46,388.14,360,385.78,362.88,384.14Z" transform="translate(-77.44 -268)"/><path class="eg" d="M363.5,384.34h0a17,17,0,0,1,8.32-2.09,14,14,0,0,1,5.88,1.21c.23.11.56.28.77.41L394.33,393l1.32.77,14.52,8.38a8.57,8.57,0,0,1,2.89,2.7,5.41,5.41,0,0,1,.79,2.39c.17,2.35-1.32,4.66-4.12,6.28h0a17.11,17.11,0,0,1-8.32,2.09,14,14,0,0,1-5.87-1.21c-.24-.11-.56-.29-.78-.41l-15.85-9.15-1.33-.77-14.52-8.38a8.77,8.77,0,0,1-2.89-2.7,5.54,5.54,0,0,1-.79-2.39C359.21,388.27,360.7,386,363.5,384.34Z" transform="translate(-77.44 -268)"/><path class="eh" d="M364.13,384.53h0a16.59,16.59,0,0,1,8.09-2,13.51,13.51,0,0,1,5.7,1.19c.21.1.56.29.76.4l15.41,8.9,1.29.75,14.12,8.15a9.78,9.78,0,0,1,2.86,2.56,5.63,5.63,0,0,1,.86,2.28c.25,2.25-1.15,4.53-3.91,6.12h0a16.58,16.58,0,0,1-8.08,2,13.52,13.52,0,0,1-5.71-1.19c-.21-.1-.56-.29-.76-.4l-15.41-8.9-1.3-.75-14.11-8.15a9.65,9.65,0,0,1-2.86-2.56,5.63,5.63,0,0,1-.86-2.28C360,388.4,361.37,386.13,364.13,384.53Z" transform="translate(-77.44 -268)"/><path class="ei" d="M364.75,384.73h0a16,16,0,0,1,7.86-2,13.1,13.1,0,0,1,5.54,1.17l.73.39,15,8.65,1.26.72,13.71,7.92a10.89,10.89,0,0,1,2.82,2.43,5.72,5.72,0,0,1,.94,2.16c.33,2.16-1,4.39-3.7,5.95h0a16,16,0,0,1-7.85,2,13,13,0,0,1-5.55-1.18c-.18-.08-.55-.29-.72-.39l-15-8.64-1.26-.73-13.71-7.92a10.76,10.76,0,0,1-2.83-2.43,5.51,5.51,0,0,1-.93-2.15C360.72,388.52,362,386.3,364.75,384.73Z" transform="translate(-77.44 -268)"/><path class="ej" d="M365.38,384.93h0A15.44,15.44,0,0,1,373,383a12.49,12.49,0,0,1,5.37,1.16c.16.07.55.29.7.37l14.55,8.4,1.22.71,13.3,7.68a12.66,12.66,0,0,1,2.8,2.3,5.85,5.85,0,0,1,1,2c.41,2.08-.82,4.26-3.48,5.8h0a15.47,15.47,0,0,1-7.63,1.89,12.72,12.72,0,0,1-5.38-1.16c-.15-.07-.55-.29-.7-.38l-14.54-8.39-1.23-.71-13.3-7.68a13.19,13.19,0,0,1-2.8-2.3,5.78,5.78,0,0,1-1-2C361.48,388.65,362.71,386.47,365.38,384.93Z" transform="translate(-77.44 -268)"/><path class="ek" d="M366,385.13h0a15,15,0,0,1,7.41-1.83,12.21,12.21,0,0,1,5.2,1.14l.67.37L393.39,393l1.19.68,12.9,7.45a15.3,15.3,0,0,1,2.77,2.17,6,6,0,0,1,1.07,1.91c.51,2-.64,4.12-3.26,5.63h0a15,15,0,0,1-7.4,1.83,12.26,12.26,0,0,1-5.21-1.14l-.67-.37L380.67,403l-1.19-.68-12.9-7.45a15.3,15.3,0,0,1-2.77-2.17,6,6,0,0,1-1.07-1.91C362.23,388.77,363.38,386.64,366,385.13Z" transform="translate(-77.44 -268)"/><path class="el" d="M366.63,385.33h0a14.41,14.41,0,0,1,7.17-1.76,11.84,11.84,0,0,1,5,1.12l.64.36,13.68,7.89,1.15.67,12.5,7.21a19.6,19.6,0,0,1,2.73,2,6.29,6.29,0,0,1,1.15,1.79c.6,1.9-.48,4-3.05,5.47h0a14.41,14.41,0,0,1-7.17,1.76,11.8,11.8,0,0,1-5-1.12l-.65-.36-13.67-7.9-1.15-.66-12.5-7.22a19.47,19.47,0,0,1-2.74-2,6.47,6.47,0,0,1-1.14-1.79C363,388.9,364.06,386.81,366.63,385.33Z" transform="translate(-77.44 -268)"/><path class="em" d="M367.25,385.52h0a14,14,0,0,1,6.95-1.69,11.19,11.19,0,0,1,4.86,1.11l.63.34,13.24,7.65,1.11.64,12.1,7a18,18,0,0,1,2.7,1.91,4.07,4.07,0,0,1,1.22,1.67c.68,1.8-.31,3.85-2.84,5.31h0a14,14,0,0,1-6.94,1.69,11.2,11.2,0,0,1-4.87-1.11l-.62-.34L381.55,402l-1.12-.64-12.09-7a18.63,18.63,0,0,1-2.71-1.91,4,4,0,0,1-1.21-1.67C363.73,389,364.73,387,367.25,385.52Z" transform="translate(-77.44 -268)"/><path class="en" d="M367.88,385.72h0a13.5,13.5,0,0,1,6.71-1.63,10.89,10.89,0,0,1,4.7,1.09l.6.34,12.8,7.39,1.09.63,11.69,6.75a24.72,24.72,0,0,1,2.67,1.77,4,4,0,0,1,1.29,1.54c.77,1.72-.15,3.72-2.63,5.15h0a13.34,13.34,0,0,1-6.71,1.63,10.78,10.78,0,0,1-4.7-1.09l-.6-.33-12.8-7.4-1.08-.62-11.69-6.75a25.22,25.22,0,0,1-2.67-1.77,4.06,4.06,0,0,1-1.3-1.55C364.48,389.15,365.4,387.15,367.88,385.72Z" transform="translate(-77.44 -268)"/><path class="eo" d="M368.5,385.92h0a13,13,0,0,1,6.49-1.57,10.47,10.47,0,0,1,4.53,1.08l.57.32,12.37,7.14,1.05.61L404.8,400c.12.07,2.58,1.53,2.63,1.63a4,4,0,0,1,1.37,1.43c.86,1.63,0,3.58-2.41,5h0a13,13,0,0,1-6.49,1.56,10.47,10.47,0,0,1-4.53-1.07l-.57-.33-12.37-7.14-1.05-.6L370.09,394c-.12-.07-2.58-1.53-2.63-1.64a3.92,3.92,0,0,1-1.37-1.42C365.23,389.28,366.07,387.32,368.5,385.92Z" transform="translate(-77.44 -268)"/><path class="ep" d="M395.35,407.82,381.86,400l-13.49-7.79c-2.72-1.57-2.38-4.32.76-6.13h0c3.14-1.82,7.9-2,10.62-.44l13.49,7.78,13.49,7.79c2.72,1.57,2.38,4.32-.76,6.13h0C402.82,409.2,398.07,409.4,395.35,407.82Z" transform="translate(-77.44 -268)"/></g><path class="eq" d="M396.08,404.05l-33.45-19.31c-3.37-1.94-2.95-5.35.95-7.6h0c3.89-2.24,9.79-2.49,13.16-.54l33.44,19.31c3.38,1.94,2.95,5.35-.94,7.6h0C405.34,405.75,399.45,406,396.08,404.05Z" transform="translate(-77.44 -268)"/><polygon class="ds" points="318.1 126.61 317.22 123.67 315.81 124.48 306.77 119.26 305.37 120.07 314.41 125.29 313 126.1 318.1 126.61"/><path class="ds" d="M405.21,399.56l0,0,1.31-.76c.84-.48.84-1.27,0-1.76l-1-.61a3.4,3.4,0,0,0-3.06,0l-1.31.76-.06,0a1.55,1.55,0,0,0-1.42,0L396.31,399a.43.43,0,0,0,0,.82l4.23,2.44a1.55,1.55,0,0,0,1.42,0l3.26-1.88C405.61,400.16,405.61,399.79,405.21,399.56Zm-4.57.51-.77.44-.53-.31.77-.44c-.11-.18-.05-.38.2-.53a1.42,1.42,0,0,1,1.24,0,.38.38,0,0,1,0,.72A1.39,1.39,0,0,1,400.64,400.07Zm3.63-1.05-2.34-1.36,1.05-.6a1.89,1.89,0,0,1,1.73,0l.6.35c.49.28.49.72,0,1Z" transform="translate(-77.44 -268)"/><path class="er" d="M355.29,456.48a5.68,5.68,0,0,0-3.67-.53c.39-.72.08-1.55-.91-2.12a5.71,5.71,0,0,0-5.17,0c-2.6,1.5-.92,6.17-.92,6.17s8.09,1,10.69-.53C356.73,458.64,356.73,457.3,355.29,456.48Z" transform="translate(-77.44 -268)"/><path class="ee" d="M260.93,499.2l-68.82-40a6.76,6.76,0,0,1-.2-11.59l86.65-55.17a6.78,6.78,0,0,1,7-.13L358.82,435a6.78,6.78,0,0,1,0,11.72l-91.12,52.52A6.76,6.76,0,0,1,260.93,499.2Z" transform="translate(-77.44 -268)"/><path class="ef" d="M261.36,498.19,194,459.07a6.81,6.81,0,0,1-.19-11.67l84.68-53.55a6.79,6.79,0,0,1,7-.11l71.39,41.51a6.81,6.81,0,0,1,0,11.78l-88.73,51.15A6.81,6.81,0,0,1,261.36,498.19Z" transform="translate(-77.44 -268)"/><path class="eg" d="M261.79,497.17l-65.86-38.26a6.84,6.84,0,0,1-.17-11.74l82.71-51.94a6.83,6.83,0,0,1,7-.1L355,435.55a6.85,6.85,0,0,1,0,11.84l-86.35,49.77A6.84,6.84,0,0,1,261.79,497.17Z" transform="translate(-77.44 -268)"/><path class="eh" d="M262.22,496.16l-64.38-37.41a6.87,6.87,0,0,1-.15-11.81l80.73-50.33a6.89,6.89,0,0,1,7-.09l67.62,39.33a6.87,6.87,0,0,1,0,11.89l-84,48.41A6.89,6.89,0,0,1,262.22,496.16Z" transform="translate(-77.44 -268)"/><path class="ei" d="M262.66,495.14l-62.91-36.55a6.91,6.91,0,0,1-.13-11.88L278.37,398a6.88,6.88,0,0,1,7.05-.08l65.74,38.23a6.9,6.9,0,0,1,0,12l-81.59,47A6.88,6.88,0,0,1,262.66,495.14Z" transform="translate(-77.44 -268)"/><path class="ej" d="M263.09,494.13l-61.43-35.7a7,7,0,0,1-.12-12l76.79-47.09a6.92,6.92,0,0,1,7.06-.07l63.86,37.14a6.94,6.94,0,0,1,0,12l-79.21,45.66A7,7,0,0,1,263.09,494.13Z" transform="translate(-77.44 -268)"/><path class="ek" d="M263.52,493.11l-59.95-34.84a7,7,0,0,1-.1-12l74.81-45.48a7,7,0,0,1,7.08-.06l62,36.05a7,7,0,0,1,0,12.07L270.51,493.1A7,7,0,0,1,263.52,493.11Z" transform="translate(-77.44 -268)"/><path class="el" d="M264,492.1l-58.47-34A7,7,0,0,1,205.4,446l72.83-43.86a7,7,0,0,1,7.1,0l60.09,34.95a7,7,0,0,1,0,12.13L271,492.09A7,7,0,0,1,264,492.1Z" transform="translate(-77.44 -268)"/><path class="em" d="M264.38,491.08l-57-33.14a7,7,0,0,1-.07-12.16l70.86-42.25a7,7,0,0,1,7.12,0l58.21,33.86a7,7,0,0,1,0,12.19l-72.07,41.53A7.06,7.06,0,0,1,264.38,491.08Z" transform="translate(-77.44 -268)"/><path class="en" d="M264.81,490.07,209.3,457.78a7.08,7.08,0,0,1-.05-12.23l68.89-40.64a7.08,7.08,0,0,1,7.13,0l56.32,32.77a7.07,7.07,0,0,1,0,12.25l-69.7,40.15A7.09,7.09,0,0,1,264.81,490.07Z" transform="translate(-77.44 -268)"/><path class="eo" d="M265.24,489.05l-54-31.43a7.12,7.12,0,0,1,0-12.31l66.91-39a7.11,7.11,0,0,1,7.15,0L339.68,438a7.11,7.11,0,0,1,0,12.31L272.38,489A7.12,7.12,0,0,1,265.24,489.05Z" transform="translate(-77.44 -268)"/><path class="ep" d="M265.67,488l-52.55-30.58a7.16,7.16,0,0,1,0-12.38L278,407.68a7.15,7.15,0,0,1,7.17,0l52.55,30.57a7.15,7.15,0,0,1,0,12.38L272.85,488A7.17,7.17,0,0,1,265.67,488Z" transform="translate(-77.44 -268)"/><polygon class="es" points="188.96 219.27 105.5 170.77 202.18 115.07 285.64 163.58 188.96 219.27"/><polygon class="et" points="188.96 218.26 106.96 169.93 105.5 170.77 188.96 219.27 285.58 163.6 284.13 163.43 188.96 218.26"/><path class="eu" d="M252.75,453.9l-6.86-4-2,1.13,6.87,4Zm2.16-1.72,7.17,4.15,2-1.13-7.17-4.15Zm10.78,1,3.13,1.81,2-1.13-3.13-1.81Zm-8.53,5.51,6.87,4,2-1.13-6.87-4Zm6.54-1.44,3.07,1.77,2-1.13-3.07-1.77Zm-40-23.1,3.94,2.28,2-1.13L225.65,433Zm10.58,9.06-2.43-1.4-2,1.13,2.43,1.4Zm2.19-4-5.25-3-2,1.13,5.25,3ZM248.08,446l-10-5.78-2,1.14,10,5.77Zm2,11.57-7.18-4.14-1.95,1.13,7.17,4.14ZM230.64,433l10.91,6.3,1.95-1.13-10.91-6.3Zm26.57,15.34,6.87,4,1.95-1.13-6.87-4Zm-7,16.82,2-1.13-2.68-1.54-2,1.13Zm14.1.67-12.63-7.29-2,1.13,12.63,7.29Zm-6.75-19.55-8.39-4.84-2,1.13,8.39,4.84Zm-25,1.23-8.49-4.9-2,1.13,8.49,4.9Zm22.67,2.66-5.55-3.21-2,1.13,5.55,3.21Zm-32.77-8.49-5.26-3-2,1.13,5.26,3Zm-5.12-5.91,10.91,6.3,2-1.13-10.91-6.3Zm8,12.78-10.91-6.3-2,1.13,10.92,6.3Zm18.94.5-8.39-4.85-1.95,1.14,8.38,4.84Zm3.59,12.5-6.87-4-2,1.13,6.87,4ZM229,452.89l8.39,4.84,2-1.13L231,451.76Zm12.24-.41-7.08-4.08-1.95,1.13,7.07,4.08ZM225,450.56l2.43,1.4,2-1.13-2.42-1.4Zm57.41,10-2,1.13,8.75,5,2-1.13Zm-9,7.48,6.77,3.89,2-1.13-6.78-3.89Zm-9.27-.13,11.53,6.63,1.95-1.13-11.52-6.63Zm-33.13-37-10.16-5.8-1.95,1.13L229,432Zm39.46,25,8.39,4.84,1.95-1.13-8.38-4.84Zm-27.28-15.74,2.43,1.39,2-1.13-2.43-1.4Zm43.32,27.93-16.43-9.45-2,1.13,16.43,9.45Zm-12.42-1.92-6.45-3.73-2,1.13,6.45,3.73Zm-16.56-9.56-3.13-1.81-2,1.13,3.14,1.81ZM224,432.1l-7.73-4.4-2,1.13,7.73,4.4Zm-11.23,9.16-10.06-5.74-2,1.13,10.06,5.74Zm2.8-3.6-8.34-4.75-2,1.13,8.34,4.75Zm2.09-4-5.91-3.35-2,1.13,5.91,3.35Z" transform="translate(-77.44 -268)"/><polygon class="ev" points="270.73 164.8 262.35 159.96 260.39 161.09 268.77 165.93 270.73 164.8"/><polygon class="ev" points="248.16 151.71 242.04 148.17 240.08 149.3 246.21 152.84 248.16 151.71"/><polygon class="ev" points="246.88 156.18 237.52 150.78 235.56 151.91 244.92 157.31 246.88 156.18"/><polygon class="ev" points="260.69 158.94 249.78 152.64 247.82 153.77 258.73 160.07 260.69 158.94"/><polygon class="ev" points="259.3 163.36 254.05 160.32 252.09 161.45 257.35 164.49 259.3 163.36"/><polygon class="ev" points="248.49 157.12 246.54 158.25 250.48 160.52 252.43 159.39 248.49 157.12"/><g class="ed"><polygon class="ev" points="228.83 162.05 232.77 164.33 234.73 163.2 230.79 160.92 228.83 162.05"/><polygon class="ev" points="239.41 171.11 236.98 169.71 235.02 170.84 237.45 172.24 239.41 171.11"/><polygon class="ev" points="241.6 167.16 236.35 164.13 234.39 165.26 239.64 168.29 241.6 167.16"/><polygon class="ev" points="235.77 160.84 246.69 167.14 248.64 166.01 237.73 159.71 235.77 160.84"/><polygon class="ev" points="222.5 163.61 233.41 169.91 235.36 168.78 224.45 162.48 222.5 163.61"/><polygon class="ev" points="236.12 158.78 229.89 155.19 227.93 156.32 234.16 159.91 236.12 158.78"/><polygon class="ev" points="248.3 168.08 250.73 169.48 252.68 168.34 250.26 166.95 248.3 168.08"/><polygon class="ev" points="229.17 159.99 225.37 157.79 223.41 158.92 227.22 161.12 229.17 159.99"/><polygon class="ev" points="222.84 161.55 220.85 160.4 218.9 161.53 220.88 162.68 222.84 161.55"/></g><polygon class="ew" points="200.38 146.26 163.49 146.19 200.5 167.56 200.38 146.26"/><polygon class="ex" points="201.64 124.17 201.75 145.47 238.65 145.53 201.64 124.17"/><polygon class="ey" points="200.38 145.47 200.26 124.16 163.48 145.4 200.38 145.47"/><polygon class="ez" points="238.65 146.33 201.76 146.26 201.87 167.56 238.65 146.33"/><polygon class="fa" points="239.34 145.93 239.34 145.93 239.34 145.93 239.34 145.93"/><polygon class="fb" points="201.19 167.96 201.19 167.96 201.19 167.96 201.19 167.96"/><path class="fc" d="M300.29,436.39a5.68,5.68,0,0,0-3.67-.52c.39-.73.08-1.55-.91-2.13a5.71,5.71,0,0,0-5.17,0c-2.6,1.5-.92,6.17-.92,6.17s8.09,1,10.69-.53C301.73,438.55,301.73,437.22,300.29,436.39Z" transform="translate(-77.44 -268)"/><polygon class="fd" points="208.93 146.63 201.08 151.16 193.18 146.6 187.26 150.02 201.12 158.03 214.89 150.07 208.93 146.63"/><polygon class="fd" points="201.07 149.42 207.41 145.76 201.03 142.07 194.69 145.74 201.07 149.42"/><polygon class="fd" points="201.02 140.35 216.38 149.21 223.05 145.36 200.98 132.62 179.05 145.28 185.76 149.16 201.02 140.35"/><path class="ee" d="M315.59,429l-62.43-36a9.74,9.74,0,0,1,0-16.84l77.36-44.79a9.71,9.71,0,0,1,9.75,0l62.42,36a9.72,9.72,0,0,1,0,16.83L325.33,429A9.72,9.72,0,0,1,315.59,429Z" transform="translate(-77.44 -268)"/><path class="ef" d="M316,428.05l-61.77-35.67a9.47,9.47,0,0,1,0-16.4l75.94-44a9.49,9.49,0,0,1,9.5,0l61.77,35.67a9.47,9.47,0,0,1,0,16.4l-75.93,44A9.49,9.49,0,0,1,316,428.05Z" transform="translate(-77.44 -268)"/><path class="eg" d="M316.45,427.1l-61.12-35.29a9.22,9.22,0,0,1,0-16l74.5-43.15a9.23,9.23,0,0,1,9.26,0L400.19,368a9.22,9.22,0,0,1,0,16l-74.5,43.15A9.23,9.23,0,0,1,316.45,427.1Z" transform="translate(-77.44 -268)"/><path class="eh" d="M316.89,426.16l-60.48-34.91a9,9,0,0,1,0-15.55l73.08-42.32a9,9,0,0,1,9,0L399,368.28a9,9,0,0,1,0,15.55l-73.08,42.32A9,9,0,0,1,316.89,426.16Z" transform="translate(-77.44 -268)"/><path class="ei" d="M317.32,425.22,257.5,390.68a8.73,8.73,0,0,1,0-15.12l71.65-41.5a8.76,8.76,0,0,1,8.76,0l59.82,34.54a8.74,8.74,0,0,1,0,15.12l-71.65,41.5A8.74,8.74,0,0,1,317.32,425.22Z" transform="translate(-77.44 -268)"/><path class="ej" d="M317.76,424.28l-59.18-34.16a8.5,8.5,0,0,1,0-14.7l70.22-40.67a8.49,8.49,0,0,1,8.51,0l59.18,34.16a8.49,8.49,0,0,1,0,14.69l-70.22,40.68A8.49,8.49,0,0,1,317.76,424.28Z" transform="translate(-77.44 -268)"/><path class="ek" d="M318.19,423.34l-58.52-33.79a8.24,8.24,0,0,1,0-14.27l68.79-39.85a8.26,8.26,0,0,1,8.26,0l58.53,33.79a8.25,8.25,0,0,1,0,14.27l-68.8,39.85A8.24,8.24,0,0,1,318.19,423.34Z" transform="translate(-77.44 -268)"/><path class="el" d="M318.62,422.4,260.75,389a8,8,0,0,1,0-13.84l67.37-39a8,8,0,0,1,8,0L394,369.52a8,8,0,0,1,0,13.84l-67.36,39A8,8,0,0,1,318.62,422.4Z" transform="translate(-77.44 -268)"/><path class="em" d="M319.06,421.46l-57.22-33a7.75,7.75,0,0,1,0-13.41l65.93-38.2a7.76,7.76,0,0,1,7.77,0l57.22,33a7.75,7.75,0,0,1,0,13.41l-65.93,38.21A7.76,7.76,0,0,1,319.06,421.46Z" transform="translate(-77.44 -268)"/><path class="en" d="M319.49,420.52l-56.57-32.66a7.51,7.51,0,0,1,0-13l64.51-37.38a7.51,7.51,0,0,1,7.52,0l56.57,32.66a7.5,7.5,0,0,1,0,13L327,420.51A7.53,7.53,0,0,1,319.49,420.52Z" transform="translate(-77.44 -268)"/><path class="eo" d="M319.93,419.58,264,387.29a7.26,7.26,0,0,1,0-12.56l63.07-36.55a7.26,7.26,0,0,1,7.28,0l55.92,32.28a7.26,7.26,0,0,1,0,12.56L327.2,419.57A7.26,7.26,0,0,1,319.93,419.58Z" transform="translate(-77.44 -268)"/><path class="ep" d="M320.36,418.64l-55.27-31.91a7,7,0,0,1,0-12.14l61.65-35.73a7,7,0,0,1,7,0L389,370.76a7,7,0,0,1,0,12.13l-61.65,35.73A7,7,0,0,1,320.36,418.64Z" transform="translate(-77.44 -268)"/><polygon class="fe" points="244.06 150.31 165.08 104.71 251.78 54.61 330.76 100.21 244.06 150.31"/><polygon class="ff" points="318.15 107.45 239.17 61.85 255.37 52.54 334.35 98.14 318.15 107.45"/><polygon class="ds" points="286.28 113.33 228.08 79.72 240.23 72.91 298.43 106.51 286.28 113.33"/><polygon class="ds" points="269.09 123.41 210.9 89.81 223.05 82.99 281.25 116.59 269.09 123.41"/><path class="fg" d="M317.56,406.14l-30.15-17.41c-2.93-1.69-2.56-4.64.82-6.59h0c3.38-1.95,8.49-2.16,11.42-.47l30.15,17.41c2.93,1.69,2.56,4.64-.82,6.59h0C325.6,407.62,320.49,407.83,317.56,406.14Z" transform="translate(-77.44 -268)"/><polygon class="fh" points="267.3 133.63 193.38 90.95 194.05 90.66 267.97 133.34 267.3 133.63"/><path class="eu" d="M395.44,365.79h4.05c.35,0,.63-.16.63-.37s-.28-.37-.64-.37h-4.05v-2.34c0-.2-.29-.37-.64-.37s-.63.16-.63.37v2.33h-4.05c-.35,0-.63.16-.63.36a.31.31,0,0,0,.19.26.86.86,0,0,0,.45.11h4.05v2.34a.32.32,0,0,0,.19.26,1,1,0,0,0,.45.11c.35,0,.63-.17.63-.37Z" transform="translate(-77.44 -268)"/><polygon class="et" points="244.06 149.47 166.29 104.01 165.08 104.71 244.06 150.31 334.18 98.15 332.96 98.01 244.06 149.47"/><polygon class="fi" points="238.78 129.8 237.9 126.86 236.49 127.67 227.45 122.46 226.06 123.26 235.09 128.48 233.69 129.29 238.78 129.8"/><polygon class="fi" points="246.73 133.57 244.52 134.85 242.29 133.56 240.62 134.53 244.53 136.79 248.41 134.54 246.73 133.57"/><polygon class="fi" points="244.52 134.36 246.31 133.32 244.5 132.29 242.72 133.32 244.52 134.36"/><polygon class="fi" points="244.5 131.8 248.84 134.3 250.72 133.21 244.49 129.62 238.3 133.19 240.2 134.28 244.5 131.8"/><path class="fj" d="M319.06,350.18a1.47,1.47,0,0,1-.53-1c0-.21.3-.38.67-.38a6.36,6.36,0,0,0,1.44-.16,1.3,1.3,0,0,0,.93,0c.24-.14.32-.33.21-.45,1-.62,1.42-1.36,0-2.16a3.67,3.67,0,0,0-3.73,0,1.08,1.08,0,0,0-.79.12.31.31,0,0,0,0,.53,1.44,1.44,0,0,0-.27.84c0,.21-.3.39-.67.38a5.37,5.37,0,0,1-1.76-.3,2.92,2.92,0,0,0-2.29.15l-1.08.62a.23.23,0,0,0,0,.44l5.76,3.32a.85.85,0,0,0,.76,0l1.07-.62C319.41,351.15,319.5,350.6,319.06,350.18Z" transform="translate(-77.44 -268)"/><path class="fj" d="M304.25,358.89l-.05,0,1.31-.75a.93.93,0,0,0,0-1.77l-1.05-.61a3.37,3.37,0,0,0-3.06,0l-1.31.75-.05,0a1.63,1.63,0,0,0-1.43,0l-3.25,1.88a.43.43,0,0,0,0,.82l4.23,2.44a1.55,1.55,0,0,0,1.42,0l3.26-1.87A.44.44,0,0,0,304.25,358.89Zm-4.57.51-.77.44-.53-.3.77-.45c-.11-.17,0-.38.2-.52a1.36,1.36,0,0,1,1.24,0c.34.2.35.52,0,.71A1.33,1.33,0,0,1,299.68,359.4Zm3.63-1L301,357l1-.61a1.94,1.94,0,0,1,1.74,0l.6.35c.48.28.48.73,0,1Z" transform="translate(-77.44 -268)"/><path class="ee" d="M409.38,397.64l-77.64-45.43a5.65,5.65,0,0,1-.18-9.69L353,325.81a5.67,5.67,0,0,1,5.83-.11l81.37,47.64a5.65,5.65,0,0,1,0,9.79l-25.15,14.5A5.66,5.66,0,0,1,409.38,397.64Z" transform="translate(-77.44 -268)"/><path class="ef" d="M409.74,396.79l-76.41-44.71a5.69,5.69,0,0,1-.16-9.76L353,327a5.71,5.71,0,0,1,5.85-.09l79.79,46.72a5.68,5.68,0,0,1,0,9.84l-23.16,13.35A5.69,5.69,0,0,1,409.74,396.79Z" transform="translate(-77.44 -268)"/><path class="eg" d="M410.1,395.94l-75.17-44a5.71,5.71,0,0,1-.14-9.81l18.12-14a5.71,5.71,0,0,1,5.86-.09L437,373.84a5.72,5.72,0,0,1,0,9.89l-21.18,12.2A5.72,5.72,0,0,1,410.1,395.94Z" transform="translate(-77.44 -268)"/><path class="eh" d="M410.46,395.09l-73.93-43.28a5.75,5.75,0,0,1-.13-9.88l16.47-12.65a5.72,5.72,0,0,1,5.88-.08l76.64,44.89a5.74,5.74,0,0,1,0,9.94l-19.19,11.05A5.73,5.73,0,0,1,410.46,395.09Z" transform="translate(-77.44 -268)"/><path class="ei" d="M410.82,394.24l-72.7-42.57a5.77,5.77,0,0,1-.11-9.93l14.82-11.31a5.78,5.78,0,0,1,5.89-.07l75.07,44a5.77,5.77,0,0,1,0,10l-17.2,9.9A5.76,5.76,0,0,1,410.82,394.24Z" transform="translate(-77.44 -268)"/><path class="ej" d="M411.18,393.39l-71.46-41.85a5.8,5.8,0,0,1-.1-10l13.17-10a5.8,5.8,0,0,1,5.91-.06l73.49,43.06a5.8,5.8,0,0,1,0,10L417,393.38A5.79,5.79,0,0,1,411.18,393.39Z" transform="translate(-77.44 -268)"/><path class="ek" d="M411.54,392.54,341.32,351.4a5.83,5.83,0,0,1-.09-10l11.52-8.61a5.84,5.84,0,0,1,5.92-.05l71.92,42.15a5.83,5.83,0,0,1,0,10.09l-13.22,7.61A5.83,5.83,0,0,1,411.54,392.54Z" transform="translate(-77.44 -268)"/><path class="el" d="M411.91,391.7l-69-40.43a5.86,5.86,0,0,1-.07-10.11l9.87-7.26a5.85,5.85,0,0,1,5.94,0L429,375.09a5.86,5.86,0,0,1,0,10.14l-11.23,6.46A5.86,5.86,0,0,1,411.91,391.7Z" transform="translate(-77.44 -268)"/><path class="em" d="M412.27,390.85l-67.76-39.72a5.89,5.89,0,0,1-.06-10.17l8.22-5.9a5.89,5.89,0,0,1,5.95,0l68.78,40.32a5.9,5.9,0,0,1,0,10.2l-9.24,5.3A5.89,5.89,0,0,1,412.27,390.85Z" transform="translate(-77.44 -268)"/><path class="en" d="M412.63,390l-66.52-39a5.92,5.92,0,0,1-.05-10.23l6.57-4.56a5.93,5.93,0,0,1,6,0l67.2,39.4a5.93,5.93,0,0,1,0,10.25L418.56,390A5.9,5.9,0,0,1,412.63,390Z" transform="translate(-77.44 -268)"/><path class="eo" d="M413,389.15,347.7,350.86a6,6,0,0,1,0-10.29l4.92-3.2a6,6,0,0,1,6,0l65.63,38.49a6,6,0,0,1,0,10.3l-5.26,3A5.93,5.93,0,0,1,413,389.15Z" transform="translate(-77.44 -268)"/><path class="ep" d="M413.35,388.3,349.3,350.73a6,6,0,0,1,0-10.35l3.26-1.85a6,6,0,0,1,6,0l64.05,37.57a6,6,0,0,1,0,10.35l-3.27,1.85A6,6,0,0,1,413.35,388.3Z" transform="translate(-77.44 -268)"/><polygon class="fk" points="337.96 122.27 254.5 73.77 283.22 57.24 366.68 105.74 337.96 122.27"/><polygon class="et" points="337.96 121.26 255.96 72.93 254.5 73.77 337.96 122.27 366.63 105.76 365.17 105.59 337.96 121.26"/><polygon class="ds" points="339.47 112.41 271.89 73.31 284.05 66.49 351.63 105.59 339.47 112.41"/><path class="fj" d="M418.21,377.75l0-2.27c0-.24-.28-.44-.66-.49v-.67c2-.16,3.54-1.14,3.53-2.34s-1.85-2.38-4.13-2.38-4.1,1-4.1,2.36,1.56,2.2,3.56,2.36V375c-.38.06-.66.26-.66.5v2.27c0,.28.4.51.89.51h.68C417.81,378.26,418.21,378,418.21,377.75ZM417,373.53c-1.5,0-2.72-.7-2.72-1.56s1.2-1.57,2.7-1.56,2.71.7,2.72,1.57S418.45,373.54,417,373.53Z" transform="translate(-77.44 -268)"/><path class="ee" d="M382.43,364.49l-31.1-17.19a3.37,3.37,0,0,1,0-5.83l35-20.41a3.36,3.36,0,0,1,3.37,0l31.1,17.19a3.36,3.36,0,0,1,0,5.82l-35,20.42A3.36,3.36,0,0,1,382.43,364.49Z" transform="translate(-77.44 -268)"/><path class="ef" d="M382.54,363.8l-30.25-16.71a3.38,3.38,0,0,1,0-5.85L386,321.58a3.39,3.39,0,0,1,3.39,0l30.25,16.71a3.38,3.38,0,0,1,0,5.85l-33.71,19.66A3.39,3.39,0,0,1,382.54,363.8Z" transform="translate(-77.44 -268)"/><path class="eg" d="M382.66,363.1l-29.4-16.22a3.39,3.39,0,0,1,0-5.88l32.39-18.9a3.41,3.41,0,0,1,3.41,0l29.4,16.22a3.39,3.39,0,0,1,0,5.88l-32.39,18.9A3.38,3.38,0,0,1,382.66,363.1Z" transform="translate(-77.44 -268)"/><path class="eh" d="M382.78,362.41l-28.56-15.74a3.41,3.41,0,0,1,0-5.91l31.09-18.14a3.42,3.42,0,0,1,3.42,0l28.56,15.74a3.42,3.42,0,0,1,0,5.91L386.2,362.4A3.4,3.4,0,0,1,382.78,362.41Z" transform="translate(-77.44 -268)"/><path class="ei" d="M382.9,361.72l-27.71-15.25a3.43,3.43,0,0,1,0-5.94l29.78-17.39a3.44,3.44,0,0,1,3.44,0l27.71,15.25a3.43,3.43,0,0,1,0,5.94l-29.77,17.39A3.44,3.44,0,0,1,382.9,361.72Z" transform="translate(-77.44 -268)"/><path class="ej" d="M383,361l-26.86-14.77a3.45,3.45,0,0,1,0-6l28.47-16.62a3.43,3.43,0,0,1,3.45,0l26.87,14.77a3.45,3.45,0,0,1,0,6L386.47,361A3.45,3.45,0,0,1,383,361Z" transform="translate(-77.44 -268)"/><path class="ek" d="M383.13,360.33l-26-14.28a3.47,3.47,0,0,1,0-6l27.16-15.86a3.49,3.49,0,0,1,3.48,0l26,14.29a3.47,3.47,0,0,1,0,6l-27.16,15.86A3.46,3.46,0,0,1,383.13,360.33Z" transform="translate(-77.44 -268)"/><path class="el" d="M383.25,359.64l-25.17-13.8a3.47,3.47,0,0,1,0-6l25.85-15.11a3.48,3.48,0,0,1,3.5,0l25.17,13.79a3.49,3.49,0,0,1,0,6l-25.85,15.11A3.48,3.48,0,0,1,383.25,359.64Z" transform="translate(-77.44 -268)"/><path class="em" d="M383.36,359,359,345.64a3.5,3.5,0,0,1,0-6.06l24.55-14.35a3.5,3.5,0,0,1,3.51,0l24.32,13.31a3.5,3.5,0,0,1,0,6.06l-24.55,14.34A3.5,3.5,0,0,1,383.36,359Z" transform="translate(-77.44 -268)"/><path class="en" d="M383.48,358.26,360,345.43a3.52,3.52,0,0,1,0-6.09l23.23-13.59a3.53,3.53,0,0,1,3.53,0l23.48,12.82a3.52,3.52,0,0,1,0,6.09L387,358.24A3.53,3.53,0,0,1,383.48,358.26Z" transform="translate(-77.44 -268)"/><path class="eo" d="M383.6,357.56,361,345.22a3.53,3.53,0,0,1,0-6.11l21.93-12.84a3.53,3.53,0,0,1,3.54,0L409,338.6a3.54,3.54,0,0,1,0,6.12l-21.93,12.83A3.53,3.53,0,0,1,383.6,357.56Z" transform="translate(-77.44 -268)"/><path class="ep" d="M383.71,356.87,361.93,345a3.55,3.55,0,0,1,0-6.14l20.62-12.07a3.54,3.54,0,0,1,3.56,0l21.79,11.86a3.55,3.55,0,0,1,0,6.14l-20.62,12.07A3.56,3.56,0,0,1,383.71,356.87Z" transform="translate(-77.44 -268)"/><polygon class="fl" points="309.07 62.8 296.33 55.44 286.78 60.96 309.13 73.87 331.35 61.04 321.74 55.49 309.07 62.8"/><polygon class="fm" points="309 48.13 298.76 54.04 309.06 59.99 319.29 54.08 309 48.13"/><polygon class="fn" points="308.91 32.89 273.53 53.31 284.36 59.56 308.98 45.35 333.75 59.65 344.51 53.44 308.91 32.89"/><polygon class="et" points="309.13 72.87 287.65 60.46 286.78 60.96 309.13 73.87 331.35 61.04 330.49 60.54 309.13 72.87"/><polygon class="et" points="333.75 58.65 308.98 44.35 284.36 58.56 274.4 52.81 273.53 53.31 284.36 59.56 308.98 45.35 333.75 59.65 344.51 53.44 343.65 52.94 333.75 58.65"/><polygon class="et" points="309.06 59.99 319.29 54.08 318.43 53.58 309.06 58.99 299.63 53.54 298.76 54.04 309.06 59.99"/><path class="fo" d="M265,334.07l-3.39.26,0,0,2.65,1.17-1,.61-2.07-1.52,0,0-.36,1.93-1.53-.25,1.23-1.78,0,0-3.18.68-.33-.83,3.35-.24,0,0L257.69,333l1.05-.61,2,1.49,0,0,.42-1.92,1.48.23-1.18,1.79,0,0,3.1-.7Z" transform="translate(-77.44 -268)"/><path class="fp" d="M271.45,337.78l-3.39.26,0,0,2.65,1.17-1,.61-2.07-1.51h0l-.36,1.93-1.53-.24,1.23-1.78,0,0-3.18.67-.33-.83,3.35-.24h0l-2.59-1.16,1.05-.6,2,1.48,0,0,.42-1.92,1.48.23-1.18,1.79,0,0,3.1-.7Z" transform="translate(-77.44 -268)"/><path class="fq" d="M277.88,341.49l-3.39.26,0,0L277.1,343l-1,.6L274,342l0,0L273.6,344l-1.53-.24L273.3,342l0,0-3.18.67-.33-.83,3.35-.23,0,0-2.59-1.16,1.05-.6,2,1.48h0l.42-1.93,1.48.23-1.18,1.8h0l3.1-.7Z" transform="translate(-77.44 -268)"/><path class="fr" d="M284.31,345.21l-3.39.26h0l2.65,1.18-1,.6-2.07-1.51,0,0-.36,1.92-1.53-.24,1.23-1.78,0,0-3.18.67-.33-.83,3.35-.23,0,0L277,344.09l1-.61,2,1.49,0,0,.42-1.93,1.48.24-1.18,1.79,0,0,3.1-.7Z" transform="translate(-77.44 -268)"/><path class="fj" d="M290.74,348.92l-3.39.26,0,0,2.65,1.17-1,.6-2.07-1.51,0,0-.36,1.93-1.53-.25,1.23-1.78,0,0L283,350l-.33-.83L286,349l0,0-2.59-1.15,1-.61,2,1.49,0,0,.42-1.93,1.48.24-1.18,1.79,0,0,3.1-.7Z" transform="translate(-77.44 -268)"/><polygon class="fs" points="182.76 164.44 172.76 158.67 170.8 159.8 180.8 165.57 182.76 164.44"/><polygon class="ft" points="158.71 150.56 145.43 142.95 143.47 144.08 156.76 151.69 158.71 150.56"/><polygon class="fu" points="184.37 165.38 182.42 166.51 185.04 168.02 187 166.89 184.37 165.38"/><polygon class="fv" points="171.14 157.74 165.89 154.7 163.93 155.83 169.18 158.87 171.14 157.74"/><polygon class="fw" points="160.33 151.49 158.37 152.62 162.31 154.9 164.27 153.77 160.33 151.49"/><polygon class="fx" points="186.66 168.96 193.83 173.1 195.79 171.97 188.62 167.83 186.66 168.96"/><g class="fy"><polygon class="q" points="189.01 174.03 179.01 168.25 177.05 169.38 187.05 175.16 189.01 174.03"/><polygon class="q" points="164.96 160.14 151.68 152.54 149.72 153.67 163.01 161.28 164.96 160.14"/><polygon class="q" points="190.62 174.96 188.67 176.09 191.29 177.61 193.25 176.48 190.62 174.96"/><polygon class="q" points="177.39 167.32 172.14 164.29 170.18 165.42 175.43 168.45 177.39 167.32"/><polygon class="q" points="166.58 161.08 164.62 162.21 168.56 164.48 170.52 163.35 166.58 161.08"/><polygon class="q" points="192.91 178.54 200.08 182.68 202.04 181.55 194.87 177.41 192.91 178.54"/></g></g></svg>